<svg xmlns="http://www.w3.org/2000/svg" width="603" height="400" viewBox="0 0 603 400" fill="none"><g clip-path="url(#clip0_1603_52269)"><path d="M378.075 150.17C378.075 150.17 380.314 147.602 381.914 148.458C381.914 148.458 378.395 147.26 377.915 147.431C377.595 147.773 378.075 150.17 378.075 150.17Z" fill="#574D82"></path><path d="M389.91 166.953C389.91 166.953 392.15 179.968 395.35 185.277L401.109 172.947C400.949 172.776 395.99 172.947 389.91 166.953Z" fill="#574D82"></path><path d="M147.055 62.0645V34.75H322.877V138.87" stroke="#2D2453" stroke-width="0.5" stroke-miterlimit="10"></path><path d="M424.469 139.211L474.085 139.398" stroke="#2D2453" stroke-width="0.5" stroke-miterlimit="10"></path><path d="M474.438 140L474 211" stroke="#2D2453" stroke-width="0.5"></path><path d="M333.116 258.23H306.398V139.211H374.872" stroke="#2D2453" stroke-width="0.5" stroke-miterlimit="10"></path><path d="M453.735 258.234H420.148" stroke="#2D2453" stroke-width="0.5" stroke-miterlimit="10"></path><path d="M330.719 43.8236C412.311 -13.0314 429.749 1.52487 434.068 4.26487C441.428 9.23112 447.187 20.7049 444.147 29.4386C440.148 41.0836 420.79 63.6886 415.51 59.9211C410.231 56.1536 421.11 43.3099 431.989 47.2486C442.867 51.1874 454.386 71.9086 432.309 123.969" stroke="#FFC700" stroke-miterlimit="10" stroke-linecap="round" stroke-linejoin="round"></path><path d="M23.4533 151.883C8.7348 130.648 -8.54346 81.8415 6.01507 66.6003C20.8936 51.1878 33.3723 62.1478 40.8916 69.3403C48.4108 76.3615 51.4505 98.2815 44.5712 98.2815C37.6919 98.2815 44.2512 76.5328 48.0908 73.4503C66.009 59.2365 91.2865 59.579 111.924 68.8265" stroke="#FFC700" stroke-miterlimit="10" stroke-linecap="round" stroke-linejoin="round"></path><path d="M99.6406 327.744C118.04 365.609 161.399 383.337 201.077 380.239C211.797 379.378 223.476 376.452 229.396 366.986C233.076 361.134 233.556 347.365 225.236 350.463C216.917 353.561 230.036 373.526 239.476 380.239C275.155 405.712 322.673 401.753 362.992 386.263C376.591 380.927 391.791 371.805 393.071 356.315C393.711 348.914 390.991 341.685 387.471 335.145C384.271 328.949 378.831 322.409 372.431 323.613C365.872 324.99 362.992 333.768 363.952 340.997C366.032 356.659 378.831 368.191 391.951 375.592C430.029 397.106 478.188 396.59 515.947 374.559C531.626 365.437 546.345 351.324 549.385 332.391" stroke="#FFC700" stroke-miterlimit="10" stroke-linecap="round" stroke-linejoin="round"></path><path d="M217.131 85.6094C214.891 95.1994 216.011 104.104 216.811 104.447C217.771 104.789 224.65 103.419 225.45 103.077C229.29 101.707 233.13 99.9944 236.489 97.7681C239.849 95.3706 244.008 91.2606 246.088 87.4931C236.969 89.5481 226.09 88.6919 217.131 85.6094Z" fill="#574D82"></path><path d="M268.163 64.2031C267.843 65.9156 267.043 66.2581 264.963 67.7994C260.324 71.2244 256.644 66.9431 256.164 69.3406C258.244 71.0531 261.124 71.7381 263.683 70.8819C266.243 69.8544 268.163 67.1144 268.163 64.2031Z" fill="#574D82"></path><path d="M240.006 42.1114C240.326 42.6252 240.966 42.4539 241.446 42.4539C244.005 42.1114 246.725 43.4814 248.005 45.8789C248.325 46.5639 248.805 47.5914 249.445 47.7627C250.085 47.9339 250.725 47.2489 251.205 46.7352C251.845 45.8789 252.005 44.3377 251.205 43.4814C246.405 38.5152 244.965 38.6864 240.966 39.2002C240.326 39.3714 239.526 41.4264 240.006 42.1114Z" fill="#2D2453"></path><path d="M240.168 47.085C241.448 46.5712 242.888 46.5712 244.008 47.2562C245.127 47.9412 245.927 49.3112 246.087 50.6812" stroke="#2D2453" stroke-width="0.5" stroke-miterlimit="10" stroke-linecap="round" stroke-linejoin="round"></path><path d="M223.207 49.1363C223.847 48.2802 224.487 47.2529 225.447 46.7392C226.407 46.2255 227.527 46.0543 228.487 46.568" stroke="#2D2453" stroke-width="0.5" stroke-miterlimit="10" stroke-linecap="round" stroke-linejoin="round"></path><path d="M231.046 43.8281C230.886 45.8831 229.926 47.9381 228.646 49.4794C228.166 49.9931 227.686 50.5069 227.526 51.1919C227.366 51.8769 227.366 52.7331 228.006 53.0756C228.966 53.5894 230.246 52.3906 231.046 53.0756C231.366 53.4181 231.686 53.9319 232.166 53.7606C232.486 53.7606 232.646 53.4181 232.806 53.0756C233.286 52.7331 233.926 53.0756 234.566 53.0756C235.046 53.0756 235.686 52.7331 235.846 52.2194C236.006 51.7056 236.006 51.0206 235.686 50.6781" stroke="#2D2453" stroke-width="0.5" stroke-miterlimit="10" stroke-linecap="round" stroke-linejoin="round"></path><path d="M258.406 64.3734C259.206 63.8598 260.006 63.1749 260.966 62.8324C261.926 62.49 262.886 62.49 263.846 63.0036C264.646 63.5173 265.286 64.5446 265.286 65.572" stroke="#2D2453" stroke-width="0.5" stroke-miterlimit="10" stroke-linecap="round" stroke-linejoin="round"></path><path d="M262.084 62.8359C262.404 63.6922 262.244 64.5484 261.924 65.4047C261.604 66.2609 260.804 66.7747 260.004 66.9459" stroke="#2D2453" stroke-width="0.5" stroke-miterlimit="10" stroke-linecap="round" stroke-linejoin="round"></path><path d="M262.724 55.8125C265.603 56.4975 267.843 59.2375 268.163 62.32C268.483 65.4025 267.043 68.6563 264.483 70.1975C261.924 71.7388 258.564 71.3963 256.324 69.3413" stroke="#2D2453" stroke-width="0.5" stroke-miterlimit="10" stroke-linecap="round" stroke-linejoin="round"></path><path d="M229.928 42.2866C226.089 42.6291 222.889 46.3966 222.569 46.0541C222.249 45.7116 221.129 44.3416 221.289 43.8278C221.449 43.3141 224.489 39.5466 226.888 38.5191C227.528 38.1766 228.328 38.0053 229.128 38.1766C229.928 38.3478 230.568 38.8616 230.888 39.5466C231.048 40.4028 230.568 42.2866 229.928 42.2866Z" fill="#2D2453"></path><path d="M255.844 80.99C257.443 80.99 258.883 80.1337 260.003 78.935C261.123 77.7362 261.603 76.0237 261.603 74.4825C261.603 73.7975 261.443 73.2838 261.603 72.5988C261.763 71.9138 262.083 71.4 262.563 71.2287C260.323 71.7425 257.923 71.2288 256.164 69.6875C256.324 73.455 256.004 77.2225 255.684 80.99C255.684 80.99 255.684 80.99 255.844 80.99Z" fill="#2D2453"></path><path d="M265.766 46.0506C263.367 42.9681 259.207 42.6256 257.767 38.8581C256.807 36.4606 256.967 33.7206 255.687 31.4944C254.087 28.7544 251.208 27.0419 248.168 27.0419C245.128 26.8706 241.929 27.7269 239.369 26.0144C237.449 24.6444 235.689 22.7606 234.089 21.0481C230.89 17.9656 225.93 17.4519 222.251 19.8494C218.571 22.2469 216.011 27.7269 216.651 32.1794C217.291 36.6319 221.931 37.8306 224.49 38.5156C226.73 39.0294 230.25 35.7756 235.049 36.1181C243.689 36.8031 250.088 36.9744 254.407 43.3106C256.167 46.0506 256.487 49.4756 255.527 52.7294C254.088 57.5244 252.808 60.0931 249.448 62.6619C246.568 64.7169 242.249 64.5456 239.529 62.3194C237.929 60.9494 236.169 59.2369 234.089 58.2094C232.49 57.3531 231.85 58.2094 230.09 57.6956C229.13 57.3531 227.21 56.6681 226.25 56.3256C222.891 55.4694 219.531 60.7781 216.331 59.2369C215.211 58.7231 215.211 58.5519 215.051 57.3531C214.891 56.1544 216.491 52.2156 216.811 51.0169C218.091 46.2219 220.811 43.9956 223.691 40.0569C223.851 39.8856 223.691 39.5431 223.531 39.3719C222.411 39.0294 220.811 37.8306 219.531 36.9744C216.811 35.2619 216.811 35.2619 214.731 37.6594C211.852 40.7419 213.612 43.3106 213.292 47.7631C213.292 48.7906 212.012 52.0444 212.012 57.6956C212.012 67.9706 212.332 80.8144 218.571 88.8631C221.451 92.4594 226.09 94.3431 230.73 94.5144C238.729 94.5144 248.168 87.8356 251.528 84.9244C254.887 82.0131 255.207 78.4169 255.687 73.7931C256.007 70.7106 254.727 68.4844 255.207 65.4019C255.367 63.6894 256.327 62.1481 257.767 61.1206C259.847 59.5794 262.887 56.6681 265.446 58.2094C265.926 58.5519 266.566 58.8944 267.046 58.7231C267.526 58.5519 267.686 57.8669 267.686 57.3531C268.166 53.9281 267.686 48.7906 265.766 46.0506ZM230.41 68.4844C230.25 68.8269 229.77 68.9981 229.45 69.1694C227.69 69.8544 225.45 69.8544 223.691 68.8269C223.371 68.6556 223.051 68.4844 222.891 68.1419C222.731 67.7994 222.571 67.4569 222.731 67.1144C222.891 66.7719 223.371 66.6006 223.691 66.6006C224.97 66.2581 226.09 66.0869 227.05 66.2581C230.09 66.7719 230.73 68.1419 230.41 68.4844Z" fill="#2D2453"></path><path d="M394.39 185.968L401.109 172.61C401.109 172.61 405.748 173.467 410.708 170.727C410.708 170.727 417.907 171.412 421.267 176.72C423.347 180.145 425.266 184.084 427.026 188.365L393.43 188.194L394.39 185.968Z" fill="#2D2453"></path><path d="M412.79 136.643C414.55 136.471 415.83 135.444 417.43 134.245C418.87 133.046 419.99 131.163 419.51 129.279C420.31 131.163 421.59 135.273 422.55 137.156C423.349 138.526 424.789 140.068 425.909 139.211C426.229 138.869 426.549 138.355 426.709 138.013C427.189 136.3 427.189 132.19 426.709 130.478C425.269 125.511 421.43 122.6 417.59 120.203C421.43 118.833 423.669 114.038 423.189 109.756C422.709 105.475 419.67 101.879 416.15 99.6525C412.63 97.5975 408.311 95.2 404.151 95.0288C400.632 94.8575 397.272 96.3988 393.912 97.255C391.513 97.7688 389.113 98.7963 387.833 100.851C387.033 102.05 386.713 103.591 386.553 105.133C386.393 109.585 388.633 114.038 392.153 116.093C384.953 116.264 378.714 121.401 375.034 127.909C366.875 141.78 372.635 155.823 376.154 158.22C381.114 161.474 384.473 158.734 384.473 158.734C384.473 158.734 381.434 156.165 380.314 155.309C377.114 152.911 374.554 148.288 377.594 143.835C380.794 139.554 383.353 142.294 385.433 143.15C386.713 143.664 387.993 142.979 388.473 141.78C389.113 139.896 390.233 137.499 391.993 136.985C398.232 134.416 406.071 137.328 412.79 136.643Z" fill="#2D2453"></path><path d="M401.11 172.609C388.311 170.896 386.871 159.594 386.871 159.594" stroke="#2D2453" stroke-width="0.5" stroke-miterlimit="10" stroke-linecap="round" stroke-linejoin="round"></path><path d="M415.028 145.375C414.068 146.402 413.908 147.944 413.748 149.485C413.588 151.711 413.588 153.766 413.588 155.992C413.588 156.506 413.588 157.02 413.428 157.534C413.268 158.219 412.628 158.904 411.988 159.075C411.348 159.246 410.548 159.075 409.908 158.561C409.588 158.39 409.428 158.047 409.108 157.876C408.469 157.534 407.829 157.534 407.029 157.534C406.389 157.362 405.589 156.677 405.909 155.992" stroke="#2D2453" stroke-width="0.5" stroke-miterlimit="10" stroke-linecap="round" stroke-linejoin="round"></path><path d="M400.15 162.847C400.79 163.874 401.91 164.731 403.03 164.559C403.19 164.559 403.19 164.559 403.19 164.559C403.19 164.559 403.19 164.559 403.19 164.388C403.35 164.046 403.19 163.532 402.87 163.189C402.55 162.847 402.23 162.676 401.91 162.504C401.43 162.162 401.11 161.819 400.63 161.477C400.31 161.134 399.99 160.107 399.67 159.936C398.87 159.422 399.83 162.333 400.15 162.847Z" stroke="#2D2453" stroke-width="0.5" stroke-miterlimit="10" stroke-linecap="round" stroke-linejoin="round"></path><path d="M401.43 144.864C401.43 144.864 407.029 142.81 408.789 145.549" stroke="#2D2453" stroke-width="0.5" stroke-miterlimit="10" stroke-linecap="round" stroke-linejoin="round"></path><path d="M416.629 147.437C416.629 147.437 420.948 146.409 423.028 147.952" stroke="#2D2453" stroke-width="0.5" stroke-miterlimit="10" stroke-linecap="round" stroke-linejoin="round"></path><path d="M408.79 145.551C408.79 146.064 408.15 146.749 407.35 146.749C406.55 146.749 406.07 146.064 406.07 145.551C406.07 145.037 406.71 144.523 407.51 144.523C408.31 144.523 408.79 145.037 408.79 145.551Z" fill="#2D2453"></path><path d="M422.708 148.293C422.708 148.807 422.068 149.492 421.268 149.492C420.468 149.492 419.988 148.807 419.988 148.293C419.988 147.779 420.628 147.266 421.428 147.266C422.228 147.266 422.708 147.779 422.708 148.293Z" fill="#2D2453"></path><path d="M401.431 140.245C401.431 140.416 401.431 140.416 401.431 140.587C401.591 140.758 401.751 140.758 401.911 140.758C404.63 140.758 407.35 140.758 410.07 140.758C410.39 140.758 410.55 140.758 410.87 140.587C411.35 140.416 411.51 139.731 411.35 139.217C411.19 138.703 410.71 138.19 410.23 138.018C409.75 137.847 409.27 137.676 408.63 137.676L404.311 137.162C403.671 137.162 403.191 136.991 402.551 137.162C400.951 137.333 401.431 138.703 401.431 140.245Z" fill="#2D2453"></path><path d="M417.109 140.926C417.109 141.44 417.109 141.953 417.269 142.296C417.589 142.638 417.909 142.981 418.389 143.152C420.149 143.837 421.909 144.522 423.829 144.865C423.989 144.865 424.149 144.865 424.309 144.865C424.469 144.865 424.469 144.693 424.469 144.522C424.949 143.323 424.789 141.611 423.829 140.583C422.709 139.385 421.109 139.042 419.509 138.871C417.429 138.7 417.269 138.7 417.109 140.926Z" fill="#2D2453"></path><path d="M405.591 151.376C408.86 151.376 411.511 148.539 411.511 145.039C411.511 141.54 408.86 138.703 405.591 138.703C402.322 138.703 399.672 141.54 399.672 145.039C399.672 148.539 402.322 151.376 405.591 151.376Z" stroke="#FFC700" stroke-width="0.5" stroke-miterlimit="10"></path><path d="M421.748 154.798C425.017 154.798 427.667 151.961 427.667 148.461C427.667 144.962 425.017 142.125 421.748 142.125C418.478 142.125 415.828 144.962 415.828 148.461C415.828 151.961 418.478 154.798 421.748 154.798Z" stroke="#FFC700" stroke-width="0.5" stroke-miterlimit="10"></path><path d="M411.512 145.033C411.512 145.033 414.071 142.806 416.471 145.718" stroke="#FFC700" stroke-width="0.5" stroke-miterlimit="10"></path><path d="M388.473 154.799C388.473 156.854 386.873 158.566 384.953 158.566C383.033 158.566 381.434 156.854 381.434 154.799C381.434 152.744 383.033 151.031 384.953 151.031C386.873 151.031 388.473 152.744 388.473 154.799Z" fill="#FFC700"></path><path d="M381.754 144.868C379.674 144.354 378.394 145.724 377.914 147.094C377.434 148.293 377.434 150.177 378.554 151.547" stroke="#2D2453" stroke-width="0.5" stroke-miterlimit="10" stroke-linecap="round" stroke-linejoin="round"></path><path d="M378.074 147.094C379.034 147.094 379.994 147.436 380.794 147.779C381.594 148.121 382.554 148.806 382.874 149.662" stroke="#2D2453" stroke-width="0.5" stroke-miterlimit="10" stroke-linecap="round" stroke-linejoin="round"></path><path d="M372.635 172.609C372.635 172.609 343.518 175.521 338.878 181.172C334.238 186.994 325.599 198.468 327.999 235.287C330.239 272.106 333.758 277.072 343.038 277.586C355.836 278.271 361.756 260.289 361.756 260.289L374.234 260.461L392.313 188.536L393.592 188.022C373.274 187.337 372.635 172.609 372.635 172.609ZM382.554 198.811L377.594 201.379L375.674 199.838C375.514 199.838 375.514 199.838 375.354 199.838L374.874 199.667L380.634 204.291C380.634 204.291 378.554 206.517 377.434 206.174H377.274L380.314 208.058C380.634 208.229 380.634 208.572 380.474 208.743C379.834 209.428 377.274 210.284 376.154 209.599L375.514 209.257C376.794 210.284 377.754 210.969 377.754 211.141C377.754 211.483 375.514 213.196 374.554 212.853C374.394 212.853 374.074 212.682 373.754 212.511L374.074 212.682C374.074 212.682 373.754 219.874 371.195 221.587V222.272C370.875 224.498 369.435 226.039 369.275 227.238C368.955 228.437 368.955 227.752 368.955 227.752L357.756 227.067L358.396 224.498L354.716 207.887C354.396 206.346 355.036 204.804 356.156 203.948L365.435 197.098C366.235 196.584 367.035 196.413 367.995 196.756V196.584L378.714 196.242C378.714 196.242 378.714 196.756 378.554 197.269L381.274 195.899L386.233 195.043L382.554 198.811Z" fill="#2D2453"></path><path d="M437.589 229.635C436.789 223.641 434.869 213.195 431.83 202.406L427.19 221.415L433.429 235.458C433.429 235.458 434.389 245.904 430.55 247.616C427.99 248.815 424.63 245.561 424.63 245.561C423.67 244.876 422.87 243.849 421.911 242.65L415.031 270.564V271.078C417.271 275.359 419.991 278.955 425.91 279.298C438.869 279.983 439.189 240.595 437.589 229.635Z" fill="#2D2453"></path><path d="M356.957 231.348L358.557 224.327L354.877 207.716C354.557 206.174 355.037 204.633 356.317 203.777L365.596 196.927C366.396 196.413 367.196 196.242 368.156 196.584L375.515 199.838L381.275 204.462C381.275 204.462 379.195 206.688 378.075 206.346" stroke="#2D2453" stroke-width="0.5" stroke-miterlimit="10" stroke-linecap="round" stroke-linejoin="round"></path><path d="M376.475 209.596C377.595 210.281 380.154 209.425 380.794 208.74C380.954 208.569 380.954 208.226 380.634 208.055L369.435 201.034C368.956 200.691 368.476 200.691 367.836 200.862L360.316 203.26" stroke="#2D2453" stroke-width="0.5" stroke-miterlimit="10" stroke-linecap="round" stroke-linejoin="round"></path><path d="M361.273 206.86L368.953 204.805C369.433 204.634 369.753 204.805 370.232 204.977C370.232 204.977 378.072 210.628 378.072 210.799C378.072 211.142 375.832 212.854 374.872 212.512C374.072 212.169 370.872 210.799 369.913 210.285C369.753 210.114 369.433 210.114 369.113 210.285L366.553 211.313L366.393 213.197C366.393 213.197 371.672 219.875 371.352 221.93C371.032 224.157 369.593 225.698 369.433 226.897C369.113 228.095 368.313 232.205 368.313 232.205" stroke="#2D2453" stroke-width="0.5" stroke-miterlimit="10" stroke-linecap="round" stroke-linejoin="round"></path><path d="M367.996 196.413L378.715 196.07C378.715 196.07 378.715 196.413 378.555 196.927" stroke="#2D2453" stroke-width="0.5" stroke-miterlimit="10" stroke-linecap="round" stroke-linejoin="round"></path><path d="M374.715 198.978L380.954 195.895L385.914 195.039L382.554 198.807L377.595 201.375" stroke="#2D2453" stroke-width="0.5" stroke-miterlimit="10" stroke-linecap="round" stroke-linejoin="round"></path><path d="M380.952 195.898C380.952 195.898 380.152 197.611 382.232 199.152" stroke="#2D2453" stroke-width="0.5" stroke-miterlimit="10" stroke-linecap="round" stroke-linejoin="round"></path><path d="M267.844 128.081C267.844 128.081 263.684 126.71 260.645 127.395Z" fill="white"></path><path d="M306.4 178.258H210.25" stroke="#2D2453" stroke-width="0.5" stroke-miterlimit="10"></path><path d="M252.165 136.984C248.965 135.785 250.885 131.504 252.165 130.648C253.445 129.963 260.644 127.223 260.644 127.223L258.404 123.113C257.925 122.256 257.605 121.229 257.605 120.201C257.445 118.831 257.285 117.119 257.445 116.091C257.445 113.351 259.204 111.81 260.644 110.954C261.604 110.44 262.724 111.125 262.724 112.324L263.044 117.119C263.044 117.975 263.524 119.003 264.004 119.688L269.283 125.853L278.402 144.348C279.042 145.546 279.522 146.916 279.682 148.458L281.602 161.301L264.324 162.329L264.964 158.219C265.124 157.534 264.644 156.849 264.004 156.678L260.484 155.479C253.765 155.65 252.325 153.938 252.005 153.081C251.685 152.225 252.645 149.485 252.645 149.485" stroke="#2D2453" stroke-width="0.5" stroke-miterlimit="10" stroke-linecap="round" stroke-linejoin="round"></path><path d="M261.605 134.758C261.605 134.758 251.206 137.155 250.086 138.183C249.446 138.868 249.287 144.005 252.326 143.663" stroke="#2D2453" stroke-width="0.5" stroke-miterlimit="10" stroke-linecap="round" stroke-linejoin="round"></path><path d="M261.125 141.953C261.125 141.953 250.886 142.981 250.726 145.036C250.566 147.091 250.406 149.488 253.606 149.317C256.805 149.317 260.325 148.974 260.325 148.974" stroke="#2D2453" stroke-width="0.5" stroke-miterlimit="10" stroke-linecap="round" stroke-linejoin="round"></path><path d="M268.004 127.909C268.004 127.909 263.844 126.538 260.805 127.223" stroke="#2D2453" stroke-width="0.5" stroke-miterlimit="10" stroke-linecap="round" stroke-linejoin="round"></path><path fill-rule="evenodd" clip-rule="evenodd" d="M254.887 95.5412C254.887 95.5412 282.884 99.1375 290.084 104.446C294.243 107.529 306.722 139.21 306.402 139.21L305.922 178.255L209.772 178.769L209.932 147.601L210.243 141.526C213.497 141.765 213.434 136.971 212.81 136.302C212.203 135.746 211.282 135.41 210.566 135.219L210.572 135.1C213.931 133.901 211.852 129.449 210.572 128.764C209.292 128.079 202.093 125.339 202.093 125.339L204.332 121.229C204.812 120.373 204.972 119.345 205.132 118.318V118.317C205.132 117.583 205.178 116.751 205.221 115.978C205.258 115.309 205.292 114.684 205.292 114.207C205.292 111.467 203.532 109.926 202.093 109.07C201.293 108.556 200.013 109.241 200.013 110.44L199.693 115.235C199.693 116.262 199.373 117.119 198.733 117.804L193.453 123.969L184.334 142.464C184.014 143.149 183.694 143.834 183.534 144.519H161.137C161.137 144.519 177.775 96.74 196.173 94.5137C200.653 94 216.011 94 216.011 94C216.011 94 215.371 115.92 235.369 116.091C253.127 116.091 254.887 95.5412 254.887 95.5412ZM264.806 158.39L264.166 162.5L281.285 161.472L279.365 148.629C279.205 147.259 278.725 145.717 278.085 144.519L268.966 126.024L263.686 119.859C263.206 119.174 262.726 118.146 262.726 117.29L262.406 112.495C262.406 111.296 261.287 110.611 260.327 111.125C258.887 111.981 257.127 113.522 257.127 116.262C256.967 117.29 257.127 119.003 257.287 120.372C257.287 121.4 257.607 122.427 258.087 123.284L260.327 127.394C260.327 127.394 253.127 130.134 251.848 130.819C250.568 131.675 248.648 135.956 251.848 137.155L251.874 137.666C250.903 137.993 250.179 138.295 249.926 138.527C249.287 139.211 249.127 144.34 252.158 144.007C251.143 144.398 250.447 144.855 250.406 145.379C250.26 147.246 250.115 149.395 252.487 149.645L252.487 149.656C252.487 149.656 251.528 152.396 251.848 153.252C252.168 154.109 253.607 155.821 260.327 155.65L263.846 156.849C264.486 157.02 264.966 157.705 264.806 158.39ZM252.198 143.992L252.17 144.003L252.197 143.977L252.198 143.992Z" fill="#2D2453"></path><path d="M276.004 121.406L278.884 144.696" stroke="white" stroke-width="0.5" stroke-miterlimit="10" stroke-linecap="round" stroke-linejoin="round"></path><path d="M194.891 126.026C194.891 126.026 199.05 124.655 202.09 125.34Z" fill="white"></path><path d="M210.249 135.272C213.448 134.073 211.688 129.278 210.409 128.593C209.129 127.908 201.929 125.168 201.929 125.168L204.169 121.058C204.649 120.202 204.969 119.174 204.969 118.147C205.129 116.777 205.289 115.064 205.129 114.037C205.129 111.297 203.369 109.755 201.929 108.899C200.969 108.385 199.85 109.07 199.85 110.269L199.53 115.064C199.53 115.92 199.05 116.948 198.57 117.633L193.29 123.798L183.531 144.177" stroke="#2D2453" stroke-width="0.5" stroke-miterlimit="10" stroke-linecap="round" stroke-linejoin="round"></path><path d="M201.133 132.703C201.133 132.703 211.532 135.101 212.652 136.128C213.292 136.813 213.452 141.951 210.412 141.608" stroke="#2D2453" stroke-width="0.5" stroke-miterlimit="10" stroke-linecap="round" stroke-linejoin="round"></path><path d="M201.609 139.898C201.609 139.898 211.848 140.926 212.008 142.981C212.168 145.036 216.168 147.433 212.808 147.262" stroke="#2D2453" stroke-width="0.5" stroke-miterlimit="10" stroke-linecap="round" stroke-linejoin="round"></path><path d="M194.57 125.854C194.57 125.854 198.73 124.483 201.77 125.169" stroke="#2D2453" stroke-width="0.5" stroke-miterlimit="10" stroke-linecap="round" stroke-linejoin="round"></path><path d="M294.401 178.605L288.162 161.138L261.765 161.994L262.725 178.776H261.925L260.965 161.651C260.965 161.48 260.965 161.48 261.125 161.309C261.125 161.137 261.285 161.138 261.445 161.138L288.482 160.281C288.642 160.281 288.802 160.453 288.802 160.624L295.361 178.776L294.401 178.605Z" fill="white"></path><path d="M537.889 322.305L536.289 337.888L542.368 336.176L537.889 322.305Z" fill="#574D82"></path><path d="M523.49 324.703L538.209 322.477C538.209 322.477 548.128 324.532 548.288 328.984C548.448 333.437 544.608 334.464 544.608 334.464C540.929 337.718 529.89 339.088 529.89 339.088C529.41 340.629 526.85 344.054 526.85 344.054C526.85 344.054 526.21 345.938 525.41 347.137C524.77 347.993 522.851 348.335 521.571 348.678C521.091 348.678 520.771 348.335 520.931 347.822C521.731 345.938 523.49 341.485 523.65 340.8C523.97 339.773 527.65 333.779 527.65 333.779L524.13 339.773L521.251 342.513C521.251 342.513 518.371 347.993 517.411 349.192C516.771 350.048 515.011 350.048 514.211 350.048C513.891 350.048 513.731 349.705 513.731 349.363C514.691 347.308 517.571 340.629 517.891 339.773C518.371 338.745 523.33 332.752 523.33 332.752C523.33 332.752 518.371 335.492 517.571 336.177C516.771 336.69 512.932 343.883 511.332 344.739C510.532 345.253 509.252 345.253 508.452 344.91C507.972 344.739 507.812 344.225 507.972 343.712C509.412 341.143 513.891 333.95 514.531 332.923C515.331 331.895 520.931 328.984 520.931 328.984L514.851 332.58L510.532 339.43C509.252 340.458 507.652 340.287 506.532 340.115C506.052 340.115 505.892 339.43 506.052 339.088L513.251 327.443C513.891 326.415 514.851 325.902 515.811 325.73L523.49 324.703Z" stroke="#2D2453" stroke-width="0.5" stroke-miterlimit="10" stroke-linecap="round" stroke-linejoin="round"></path><path d="M536.934 200.715C536.934 200.715 539.013 199.858 540.773 200.201C540.773 200.201 540.933 197.804 539.813 197.804C538.693 197.633 536.934 200.715 536.934 200.715Z" fill="#574D82"></path><path d="M518.211 228.63L518.691 237.193C518.691 237.193 529.73 227.431 529.25 221.438C529.25 221.438 524.13 227.945 518.211 228.63Z" fill="#574D82"></path><path d="M497.734 330.55H453.738V211.531H504.773" stroke="#2D2453" stroke-width="0.5" stroke-miterlimit="10"></path><path d="M539.172 212.023H602.046V331.042H540.292" stroke="#2D2453" stroke-width="0.5" stroke-miterlimit="10"></path><path d="M536.927 177.602C536.927 177.602 531.648 167.155 517.409 170.58C503.17 174.005 503.65 185.821 503.65 185.821C503.65 185.821 503.65 218.359 507.33 224.695C511.01 230.86 518.209 228.463 518.209 228.463L518.529 238.224C518.529 238.224 519.649 244.56 525.888 245.416C544.286 248.156 540.767 228.463 540.767 228.463L538.367 208.084C538.367 208.084 543.486 207.913 545.566 204.145C550.046 195.925 536.927 177.602 536.927 177.602Z" stroke="#2D2453" stroke-width="0.5" stroke-miterlimit="10" stroke-linecap="round" stroke-linejoin="round"></path><path d="M536.448 177.775C534.048 178.803 531.808 180.686 531.168 183.255C530.528 185.824 531.168 189.42 532.288 191.646C532.608 192.16 533.088 194.215 533.408 194.558C534.688 195.928 536.448 193.359 538.208 193.188C540.447 193.016 542.687 194.558 543.487 196.955C544.287 199.181 543.647 203.12 542.367 205.175C541.087 207.23 537.888 207.744 537.888 207.744C537.888 207.744 538.048 209.114 538.368 210.484C538.848 212.539 541.407 213.395 543.167 212.71C544.927 212.025 546.207 210.141 547.327 208.429C548.447 206.374 547.487 203.805 548.287 201.408C549.086 198.839 550.846 196.27 550.366 193.53C550.046 190.79 549.086 188.735 546.687 187.708C545.887 187.365 545.247 187.023 544.767 186.509C543.167 184.796 544.287 182.056 543.007 179.659C542.047 176.919 538.688 176.748 536.448 177.775Z" fill="#2D2453"></path><path d="M516.931 190.442C516.931 190.784 517.091 191.298 517.251 191.641C517.411 191.812 517.731 191.983 518.051 191.983C519.171 192.154 520.29 191.812 521.57 191.641C523.33 191.298 525.09 191.298 526.85 191.983C527.49 192.154 528.13 192.497 528.77 192.497C528.93 192.497 529.25 192.497 529.41 192.326C529.57 192.154 529.73 191.812 529.73 191.641C529.89 190.613 529.89 189.586 529.57 188.558C529.41 188.044 529.25 187.359 528.93 187.017C528.29 186.161 527.33 185.818 526.37 185.476C523.81 184.791 521.25 184.448 518.691 184.791C517.731 184.962 517.091 184.962 516.931 186.161C516.611 187.531 516.771 189.072 516.931 190.442Z" fill="#2D2453"></path><path d="M508.291 190.613C508.291 190.955 508.291 191.298 508.131 191.469C507.971 191.64 507.651 191.64 507.491 191.812C505.731 191.983 503.811 192.325 502.052 192.497C501.412 192.497 500.772 192.668 500.452 192.154C500.292 191.812 500.292 191.64 500.132 191.298C499.972 190.27 499.972 189.243 500.612 188.387C500.932 188.044 501.252 187.873 501.572 187.702C502.852 187.017 504.291 186.503 505.891 186.332C506.691 186.16 508.291 186.16 508.611 187.017C508.611 188.044 508.291 189.585 508.291 190.613Z" fill="#2D2453"></path><path d="M503.171 215.621C502.691 215.621 502.371 215.278 502.371 214.764C502.531 212.709 503.171 207.058 510.37 206.887C517.73 206.716 520.609 212.024 521.249 213.908C521.409 214.251 521.089 214.593 520.769 214.593C519.009 214.422 514.69 215.449 511.97 215.107C510.69 214.936 505.251 215.621 503.171 215.621Z" fill="#2D2453"></path><path d="M504.773 196.95C504.773 197.292 504.933 197.806 505.093 198.148C505.253 198.491 505.573 198.833 505.893 199.005C506.213 199.176 506.693 199.005 507.013 198.662C507.173 198.491 507.173 198.148 507.173 197.806C507.173 197.292 507.173 196.607 507.173 196.094" stroke="#2D2453" stroke-width="0.5" stroke-miterlimit="10" stroke-linecap="round" stroke-linejoin="round"></path><path d="M520.93 194.898C520.77 195.926 520.93 197.125 521.09 198.152C521.25 198.495 521.25 198.837 521.569 199.18C521.729 199.522 522.209 199.693 522.529 199.693C523.169 199.693 523.489 199.008 523.809 198.495C524.449 197.296 524.929 196.097 525.569 194.898" stroke="#2D2453" stroke-width="0.5" stroke-miterlimit="10" stroke-linecap="round" stroke-linejoin="round"></path><path d="M511.01 189.242C511.01 193.352 510.53 197.462 509.41 201.401C509.25 202.086 509.09 202.6 509.25 203.285C509.41 203.97 509.89 204.483 510.53 204.483C510.85 204.483 511.01 204.312 511.33 204.141C512.45 203.798 513.409 204.997 514.529 204.826C515.329 204.655 515.809 203.798 515.969 202.942" stroke="#2D2453" stroke-width="0.5" stroke-miterlimit="10" stroke-linecap="round" stroke-linejoin="round"></path><path d="M537.41 195.242C538.53 195.585 539.65 196.098 540.45 197.126C541.09 198.153 541.25 199.352 540.93 200.551C540.77 201.921 540.13 203.12 539.33 203.976" stroke="#2D2453" stroke-width="0.5" stroke-miterlimit="10" stroke-linecap="round" stroke-linejoin="round"></path><path d="M536.449 200.894C536.929 200.209 537.569 199.353 538.209 198.839C538.849 198.326 539.649 197.812 540.609 197.641" stroke="#2D2453" stroke-width="0.5" stroke-miterlimit="10" stroke-linecap="round" stroke-linejoin="round"></path><path d="M518.531 237.536L513.732 242.502C513.732 242.502 491.174 249.866 489.254 254.147C482.855 268.018 482.055 286 483.975 314.085C483.975 314.085 482.855 327.442 491.974 332.066C500.933 336.518 506.532 333.778 506.532 333.778L510.852 331.723C510.852 331.723 511.972 329.326 514.851 326.415C516.931 324.36 521.891 325.387 524.45 324.702L534.529 323.161L537.569 322.305L539.969 337.717C539.969 337.717 590.844 333.778 595.643 326.928C600.443 320.078 596.923 304.837 595.483 295.247C594.043 285.657 587.484 245.071 575.165 240.79C564.606 237.022 550.048 234.967 550.048 234.967L541.249 228.117L525.57 243.53L518.531 237.536Z" fill="#2D2453"></path><path d="M535.168 206.711C535.168 206.711 536.128 207.909 538.528 208.08" stroke="#2D2453" stroke-width="0.5" stroke-miterlimit="10" stroke-linecap="round" stroke-linejoin="round"></path><path d="M529.25 221.266C525.73 227.259 518.211 228.458 518.211 228.458" stroke="#2D2453" stroke-width="0.5" stroke-miterlimit="10" stroke-linecap="round" stroke-linejoin="round"></path><path d="M543.648 320.25L546.368 332.58" stroke="white" stroke-width="0.5" stroke-miterlimit="10" stroke-linecap="round" stroke-linejoin="round"></path><path d="M503.492 275.039L505.572 305.179L512.931 307.919L503.492 275.039Z" fill="#181133"></path><path d="M503.492 273.844L512.611 307.237" stroke="white" stroke-width="0.5" stroke-miterlimit="10" stroke-linecap="round" stroke-linejoin="round"></path><path d="M497.414 302.961L547.329 318.202" stroke="white" stroke-width="0.5" stroke-miterlimit="10" stroke-linecap="round" stroke-linejoin="round"></path><path d="M558.527 272.305L573.406 305.527L563.807 310.322L558.527 272.305Z" fill="#181133"></path><path d="M583 301L537 323" stroke="white" stroke-width="0.5" stroke-miterlimit="10" stroke-linecap="round" stroke-linejoin="round"></path><path d="M558.207 271.273L573.405 305.181" stroke="white" stroke-width="0.5" stroke-miterlimit="10" stroke-linecap="round" stroke-linejoin="round"></path><path d="M525.891 243.531C525.891 243.531 528.13 255.176 528.77 255.69C529.25 256.204 530.69 254.491 530.69 254.491L525.891 243.531Z" fill="#181133"></path><path d="M526.371 242.851L531.01 254.325L549.248 234.117L549.888 234.631L531.17 255.352C531.17 255.523 531.01 255.523 530.85 255.523C530.69 255.523 530.53 255.352 530.53 255.352L526.051 243.878L525.891 243.536L526.371 242.851Z" fill="white"></path><path d="M514.211 243.016C514.211 243.016 520.77 255.688 521.25 255.688C521.73 255.688 522.05 254.318 522.05 254.318C522.21 253.976 522.21 253.462 522.05 253.119L514.211 243.016Z" fill="#181133"></path><path d="M514.371 241.82L522.53 253.637L525.249 243.019L525.729 243.362L526.049 243.019L523.17 254.664C523.17 254.835 523.01 255.007 522.85 255.007C522.69 255.007 522.53 255.007 522.53 254.835L513.891 242.334L514.371 241.82Z" fill="white"></path><path d="M395.031 184.598C395.031 184.598 418.069 181.516 417.269 173.125C415.349 171.926 414.389 171.241 410.71 170.898C410.71 170.898 406.39 172.782 403.99 172.782C401.591 172.782 400.631 172.953 400.631 172.953L395.031 184.598Z" fill="#181133"></path><path d="M393.591 188.191L401.111 172.607C401.111 172.607 414.229 175.176 419.989 158.393C425.748 141.44 427.988 123.116 408.79 117.978C389.592 113.012 377.593 127.568 375.833 132.706C371.194 146.063 370.554 148.975 383.672 158.736L372.793 172.607C372.633 172.607 373.273 187.335 393.591 188.191Z" stroke="#2D2453" stroke-width="0.5" stroke-miterlimit="10" stroke-linecap="round" stroke-linejoin="round"></path><path d="M421.43 242.648C421.43 242.648 424.79 246.93 427.83 247.786C431.029 248.813 426.87 275.7 430.229 277.755C430.229 277.755 428.63 280.495 423.03 279.125C416.471 277.583 414.711 270.733 414.711 270.733L421.43 242.648Z" fill="#181133"></path><path d="M427.027 221.075L433.427 235.46C433.427 235.46 434.546 246.248 430.707 247.618C426.867 248.988 424.787 245.563 424.787 245.563C420.788 241.967 416.308 232.035 416.308 232.035C414.708 232.035 411.029 230.493 411.029 230.493C411.029 230.493 409.109 230.322 407.829 229.808C406.869 229.466 405.909 227.582 405.429 226.383C405.269 226.041 405.589 225.527 405.909 225.527C407.829 225.698 412.309 226.212 413.109 226.212C414.069 226.212 420.468 228.096 420.468 228.096L414.069 226.212L410.709 223.986C410.709 223.986 404.949 222.787 403.67 222.102C402.71 221.588 402.23 220.047 401.91 219.02C401.75 218.677 402.07 218.335 402.39 218.335C404.469 218.677 411.189 219.533 412.149 219.705C413.269 219.876 420.148 223.13 420.148 223.13C420.148 223.13 416.148 219.02 415.508 218.335C414.708 217.65 407.349 215.766 405.909 214.567C405.109 213.882 404.949 212.683 404.789 211.827C404.789 211.313 405.269 210.971 405.749 210.971C408.469 211.827 416.308 214.053 417.268 214.396C418.548 214.91 422.708 219.705 422.708 219.705L417.748 214.567L410.229 212.341C408.949 211.313 408.629 209.601 408.469 208.573C408.469 208.06 408.789 207.717 409.269 207.888L421.748 211.827C422.708 212.17 423.668 212.855 424.147 213.882L427.027 221.075Z" stroke="#2D2453" stroke-width="0.5" stroke-miterlimit="10" stroke-linecap="round" stroke-linejoin="round"></path><path d="M421.747 242.476L414.868 270.218H371.832L392.31 188.703H435.186L427.026 221.241" stroke="#2D2453" stroke-width="0.5" stroke-miterlimit="10"></path><path d="M352.156 201.719L340.637 248.299L349.756 227.235L352.156 226.721V201.719Z" fill="#181133"></path><path d="M352.316 199.32L352.477 226.892" stroke="white" stroke-width="0.5" stroke-miterlimit="10" stroke-linecap="round" stroke-linejoin="round"></path><path d="M362.235 260.462L370.234 227.582C370.234 227.41 370.234 227.239 370.234 227.239C370.234 227.068 370.074 227.068 369.914 227.068L349.756 226.383C349.596 226.383 349.436 226.554 349.436 226.554L340.797 247.96C340.637 248.132 340.797 248.474 340.957 248.474C341.117 248.645 341.437 248.474 341.437 248.303L349.916 227.239L369.274 227.924L360.795 262.688L362.235 260.462Z" fill="white"></path><path d="M198.09 94.3497C198.09 94.3497 202.729 103.768 217.288 103.597L216.008 93.8359L198.09 94.3497Z" fill="#181133"></path><path d="M256.165 69.5181C255.845 78.5943 255.045 87.6706 254.725 96.7468C254.405 103.254 253.285 112.673 247.845 115.756C242.406 118.838 232.967 119.352 227.048 117.982C217.289 115.756 215.849 94.3493 215.849 94.3493C215.849 94.3493 217.449 84.4168 216.489 80.9918C216.009 79.4506 215.529 77.9093 215.369 76.1968C215.209 74.4843 215.209 72.7718 216.009 71.4018C217.289 69.0043 220.008 63.3531 222.568 63.0106C226.728 62.6681 230.887 68.3193 235.047 68.6618C239.206 69.0043 243.526 69.0043 247.206 67.1206C249.765 65.9218 252.165 63.8668 254.085 61.6406C255.365 60.2706 256.645 58.7293 258.084 57.5306C259.524 56.3318 261.444 55.4756 263.204 55.6468C265.124 55.8181 266.884 57.1881 267.044 59.2431" stroke="#2D2453" stroke-width="0.5" stroke-miterlimit="10" stroke-linecap="round" stroke-linejoin="round"></path><path d="M152.208 229.755C149.488 226.672 159.407 189.34 158.447 180.435C157.647 173.585 141.009 165.707 141.009 165.707C141.009 165.707 132.05 173.756 121.971 172.557C111.892 171.358 104.053 145.842 104.053 145.842C78.7754 144.815 57.1775 154.405 51.8981 158.686C46.6186 162.967 37.0196 204.41 31.5801 222.22C26.1407 240.03 30.3003 248.592 34.7798 253.387C39.2593 258.182 93.1739 254.243 93.1739 254.243L93.8139 250.133L126.451 249.962C125.331 249.277 124.211 248.25 123.891 247.051C123.571 245.338 122.131 240.201 122.131 240.201C122.131 240.201 119.411 238.317 118.131 236.947C117.331 236.091 115.892 236.947 115.572 236.433L120.051 245.51C120.211 245.852 120.051 246.195 119.731 246.366C118.931 246.537 117.651 246.708 116.532 245.852C114.932 244.653 112.212 241.057 111.092 241.057C109.972 241.057 104.213 245.338 101.333 245.681C98.4534 246.023 90.1342 245.167 90.1342 245.167L92.054 229.412L119.091 225.816C119.731 225.645 120.371 225.816 121.011 225.987C121.011 225.987 133.33 221.535 134.61 222.22C135.73 222.733 139.889 227.871 141.969 230.611C142.449 231.296 142.129 232.323 141.329 232.323C140.689 232.323 139.729 232.323 139.089 231.981C137.169 231.296 133.01 228.727 133.01 228.727L127.73 231.981L126.931 231.296C129.33 233.693 131.57 236.262 132.05 237.118C132.85 239.002 133.33 247.222 133.49 250.305L150.608 250.133L158.447 233.008C155.568 231.981 153.008 230.782 152.208 229.755Z" fill="#2D2453"></path><path d="M209.961 144.844V199.962" stroke="#2D2453" stroke-width="0.5" stroke-miterlimit="10"></path><path d="M209.959 255.104H41.3359V144.477H105.649L94.4506 159.718L117.008 186.433L137.166 177.014L145.165 171.534C145.165 171.534 142.126 169.137 139.886 165.027C138.606 162.629 138.926 161.43 138.926 161.43C138.926 161.43 144.206 159.033 147.885 154.923C151.245 150.984 154.765 144.648 154.765 144.648H210.113" stroke="#2D2453" stroke-width="0.5" stroke-miterlimit="10"></path><path d="M119.09 149.102C120.69 157.15 123.569 158.349 127.249 161.603C130.929 164.857 136.208 166.74 141.008 166.398C139.568 165.37 138.768 163.144 139.248 161.432C136.848 162.63 133.968 162.288 131.569 161.26C129.009 160.062 125.809 158.52 123.889 156.465C121.81 154.41 120.53 151.842 119.09 149.102Z" fill="#574D82"></path><path d="M143.727 108.856C144.366 108.684 145.166 109.198 145.486 109.883C145.806 110.568 145.966 111.424 146.286 112.109C146.926 113.308 148.206 113.822 149.326 114.164C153.326 115.534 157.485 115.877 162.285 117.247C161.965 113.308 158.285 108.856 154.765 107.143C152.526 106.116 150.126 105.602 147.886 106.116C146.286 106.458 144.686 107.314 143.727 108.856Z" fill="#574D82"></path><path d="M112.852 120.844C113.651 121.7 114.451 122.556 115.251 123.413C115.891 124.098 116.531 124.611 117.171 124.954C116.051 125.296 115.571 126.153 115.571 126.153C115.411 126.153 115.091 125.639 114.931 125.468C113.971 123.926 113.172 122.385 112.852 120.844Z" fill="#574D82"></path><path d="M92.3728 229.93L90.293 244.828L95.0925 245.342L92.3728 229.93Z" fill="#574D82"></path><path d="M103.57 146.705C107.09 143.793 109.49 139.341 110.13 134.717C110.29 134.032 110.29 133.518 110.13 132.833C109.97 132.148 109.49 131.806 109.01 131.292C107.09 129.066 106.29 125.812 106.93 122.901C107.57 119.99 109.49 117.421 112.209 116.222C111.09 111.598 113.329 106.461 117.169 104.063C119.249 102.865 121.808 102.351 124.208 102.18C134.767 100.981 145.806 102.179 154.925 107.831C157.805 109.543 160.685 111.941 161.804 115.366C162.924 118.448 162.444 121.702 161.964 124.956C159.885 135.231 155.245 144.992 149.166 153.212C146.606 156.808 143.086 159.206 139.247 161.09C132.687 164.515 117.809 155.781 118.929 143.622" stroke="#2D2453" stroke-width="0.5" stroke-miterlimit="10" stroke-linecap="round" stroke-linejoin="round"></path><path d="M156.686 57.8234C155.566 57.6522 154.446 57.6522 153.326 57.9947C152.206 58.3372 151.247 59.0222 150.607 60.0497C150.127 60.9059 149.967 62.1047 150.607 62.6184C149.007 62.1047 147.247 61.7622 145.647 61.9334C144.047 62.1047 142.287 63.1322 141.488 64.6734C141.008 65.7009 140.688 66.8997 140.688 67.9272C140.528 68.9547 140.688 70.1534 141.488 70.8384C140.208 70.8384 138.928 70.8384 137.648 71.0097C136.848 71.1809 136.208 71.3522 135.568 71.6947C134.928 72.2084 134.608 72.8934 134.288 73.5784C133.808 74.6059 133.648 75.6334 133.648 76.6609C133.648 77.6884 134.128 78.8872 134.928 79.5722C132.848 79.5722 130.769 79.9147 128.849 80.4284C127.729 80.7709 126.769 81.1134 125.969 81.7984C125.009 82.6547 124.689 84.0247 124.529 85.3947C124.209 88.4772 125.009 91.5597 126.609 94.1284C123.729 94.8134 121.01 95.4984 118.13 96.5259C117.33 96.8684 110.291 98.4097 111.091 105.602C111.251 106.801 112.21 108.856 113.33 109.198C117.65 110.055 121.17 109.37 129.969 109.37C132.528 109.37 141.328 111.253 143.887 111.425C146.447 111.767 143.407 109.198 145.167 108.856C147.087 108.513 147.087 112.795 149.487 113.137C152.046 113.48 157.006 114.678 159.566 114.85C161.645 115.021 163.885 115.021 165.965 114.165C168.045 113.308 169.645 111.425 169.805 109.027C169.965 107.486 169.165 105.773 168.205 104.575C167.245 103.376 165.965 102.348 164.685 101.492C163.405 100.636 162.285 99.7797 161.166 98.9234C162.445 98.5809 163.725 98.0672 164.685 97.0397C165.645 96.0122 166.445 94.6422 166.125 93.2722C165.965 92.4159 165.485 91.7309 165.005 91.0459C163.565 89.1622 162.125 87.2784 160.526 85.5659C162.765 84.8809 164.845 84.0247 166.925 82.8259C168.525 81.9697 170.125 80.7709 170.285 78.8872C170.445 77.5172 169.645 76.1472 168.845 74.9484C168.045 73.7497 167.085 72.7222 166.605 71.1809C167.565 70.6672 168.685 70.1534 169.485 69.4684C170.285 68.7834 170.925 67.5847 170.925 66.3859C170.925 65.0159 170.125 63.8172 169.165 62.9609C165.645 59.3647 160.846 57.3097 155.886 57.8234C155.726 57.9947 155.726 57.9947 156.686 57.8234Z" fill="#2D2453"></path><path d="M139.406 161.258C139.086 163.313 139.886 165.197 141.326 166.738" stroke="#2D2453" stroke-width="0.5" stroke-miterlimit="10" stroke-linecap="round" stroke-linejoin="round"></path><path d="M111.57 116.566C113.65 115.539 116.37 115.881 118.13 117.251C120.049 118.621 121.169 121.19 121.009 123.759" stroke="#2D2453" stroke-width="0.5" stroke-miterlimit="10" stroke-linecap="round" stroke-linejoin="round"></path><path d="M117.011 133.688C115.732 133.859 114.292 134.031 113.012 133.688C111.732 133.517 110.292 132.832 109.492 131.805" stroke="#2D2453" stroke-width="0.5" stroke-miterlimit="10" stroke-linecap="round" stroke-linejoin="round"></path><path d="M117.33 121.531C115.73 120.504 113.81 119.99 112.21 120.846C110.451 121.531 109.331 123.586 109.811 125.47" stroke="#2D2453" stroke-width="0.5" stroke-miterlimit="10" stroke-linecap="round" stroke-linejoin="round"></path><path d="M112.527 120.844C113.007 122.727 113.967 124.44 115.407 125.81" stroke="#2D2453" stroke-width="0.5" stroke-miterlimit="10" stroke-linecap="round" stroke-linejoin="round"></path><path d="M141.809 128.037C141.329 126.839 140.369 125.982 139.249 125.64C138.129 125.298 136.849 125.469 135.89 126.154C135.41 126.496 134.93 126.839 134.93 127.523" stroke="#2D2453" stroke-width="0.5" stroke-miterlimit="10" stroke-linecap="round" stroke-linejoin="round"></path><path d="M149.645 127.18C148.845 127.522 148.366 128.55 148.366 129.406C148.206 130.262 148.366 131.29 148.525 132.146C149.005 134.543 149.325 136.941 149.805 139.167C149.965 139.852 149.965 140.366 149.805 141.051C149.645 141.565 149.005 142.078 148.525 142.078C147.886 141.907 147.566 141.222 146.926 141.222C146.286 141.222 145.966 142.25 145.326 142.592C144.846 142.935 144.046 142.935 143.566 142.25C143.246 141.736 143.246 140.88 142.606 140.537C142.286 140.366 141.966 140.366 141.646 140.366C140.686 140.366 139.726 140.023 139.246 139.338C138.606 138.653 138.766 137.283 139.566 136.941" stroke="#2D2453" stroke-width="0.5" stroke-miterlimit="10" stroke-linecap="round" stroke-linejoin="round"></path><path d="M149.809 131.802C150.449 130.261 152.048 129.404 153.488 129.747C154.928 130.089 156.048 131.973 155.728 133.514" stroke="#2D2453" stroke-width="0.5" stroke-miterlimit="10" stroke-linecap="round" stroke-linejoin="round"></path><path d="M132.527 144.305C132.527 145.332 133.007 146.36 133.647 147.216C134.607 148.586 135.567 149.956 137.007 150.641C137.967 151.155 139.087 151.155 140.207 151.326" stroke="#2D2453" stroke-width="0.5" stroke-miterlimit="10" stroke-linecap="round" stroke-linejoin="round"></path><path d="M143.726 116.215C143.566 117.414 143.406 118.955 142.286 119.298C141.966 119.469 141.647 119.298 141.327 119.298C136.687 118.613 133.167 118.27 129.008 119.812C129.328 118.784 129.168 117.585 129.808 116.729C129.968 116.558 130.288 116.387 130.608 116.215C134.607 113.989 139.567 114.16 143.726 116.215Z" fill="#2D2453"></path><path d="M152.048 117.423C151.408 118.28 150.608 119.478 151.088 120.506C151.408 121.191 152.048 121.533 152.688 121.876C153.968 122.561 155.407 123.075 156.687 123.76C157.967 124.445 159.247 125.472 159.887 126.842C161.167 125.986 162.127 124.445 161.647 122.903C161.487 122.39 161.167 121.876 160.847 121.362C159.247 119.307 157.007 117.766 154.607 116.91C153.648 116.91 152.528 116.738 152.048 117.423Z" fill="#2D2453"></path><path d="M157.647 139.508C160.686 141.905 162.606 145.844 162.606 150.297C162.606 157.832 157.007 163.825 149.967 163.825C146.768 163.825 143.728 162.455 141.488 160.4L144.048 158.688C145.648 160.058 147.728 160.743 149.807 160.743C155.247 160.743 159.566 156.119 159.566 150.297C159.566 147.214 158.287 144.303 156.207 142.419L157.647 139.508Z" fill="#FFC700"></path><path d="M91.4127 229.586C91.4127 229.586 53.4965 252.533 35.7383 254.246C35.7383 254.246 45.0173 259.041 70.9347 253.218C86.6132 249.622 88.8529 247.225 88.8529 247.225L91.4127 229.586Z" fill="#181133"></path><path d="M63.8946 208.695C63.8946 208.695 62.2947 211.949 60.215 213.662C58.1352 215.374 56.6953 215.888 56.6953 215.888L60.8549 217.429L63.8946 208.695Z" fill="#181133"></path><path d="M89.1714 247.058L91.4111 229.591L56.0547 215.891" stroke="white" stroke-width="0.5" stroke-miterlimit="10" stroke-linecap="round" stroke-linejoin="round"></path><path d="M135.09 229.758L135.25 233.525" stroke="white" stroke-width="0.5" stroke-miterlimit="10" stroke-linecap="round" stroke-linejoin="round"></path><path d="M130.926 234.895C136.045 233.354 148.204 229.929 152.524 230.443" stroke="white" stroke-width="0.5" stroke-miterlimit="10" stroke-linecap="round" stroke-linejoin="round"></path><path d="M50.457 256.13C51.5769 255.959 52.8568 255.788 53.9767 255.617C64.5356 253.904 76.3744 252.02 88.6932 246.883C88.8532 246.883 89.1731 246.883 89.1731 247.054C89.1731 247.225 89.1731 247.568 89.0132 247.568C77.4943 252.192 66.4554 254.247 56.5364 255.788L50.457 256.13Z" fill="white"></path><path d="M60.8555 217.604L73.6542 181.812" stroke="white" stroke-width="0.5" stroke-miterlimit="10" stroke-linecap="round" stroke-linejoin="round"></path><path d="M146.448 249.279L133.649 248.937C133.649 248.937 134.449 251.334 133.169 251.334C130.929 251.506 129.329 248.766 129.329 248.766C129.329 248.766 130.289 250.136 128.53 250.478C126.77 250.821 125.65 249.108 125.65 249.108H88.2136L87.0938 254.759L145.328 254.588L146.448 249.279Z" fill="#2D2453"></path><path d="M146.448 249.279L133.649 248.937C133.649 248.937 134.449 251.334 133.169 251.334C130.929 251.506 129.329 248.766 129.329 248.766C129.329 248.766 130.289 250.136 128.53 250.478C126.77 250.821 125.65 249.108 125.65 249.108H88.2136L87.0938 254.759L145.328 254.588L146.448 249.279Z" stroke="#2D2453" stroke-width="0.5" stroke-miterlimit="10" stroke-linecap="round" stroke-linejoin="round"></path><path d="M173.487 199.788L148.369 254.588L143.09 254.246L168.687 199.617L173.487 199.788Z" fill="#2D2453"></path><path d="M173.487 199.788L148.369 254.588L143.09 254.246L168.687 199.617L173.487 199.788Z" stroke="#2D2453" stroke-width="0.5" stroke-miterlimit="10"></path><path d="M209.641 255.102L234.438 200.302L168.845 199.445L140.848 254.759L209.641 255.102Z" stroke="#2D2453" stroke-width="0.5" stroke-miterlimit="10" stroke-linecap="round" stroke-linejoin="round"></path><path d="M194.763 236.947C197.944 236.947 200.523 234.187 200.523 230.782C200.523 227.377 197.944 224.617 194.763 224.617C191.582 224.617 189.004 227.377 189.004 230.782C189.004 234.187 191.582 236.947 194.763 236.947Z" stroke="#2D2453" stroke-width="0.5" stroke-miterlimit="10"></path><path d="M145.327 254.759L172.684 199.445H168.525L140.848 254.759H145.327Z" fill="#2D2453"></path><path d="M133.488 249.112L143.247 248.94L152.526 230.445" stroke="white" stroke-width="0.5" stroke-miterlimit="10" stroke-linecap="round" stroke-linejoin="round"></path><path d="M87.7344 255.274L90.7741 249.452L125.171 249.109" stroke="white" stroke-width="0.5" stroke-miterlimit="10" stroke-linecap="round" stroke-linejoin="round"></path><path d="M113.17 155.096C106.131 155.096 100.531 149.102 100.531 141.567C100.531 136.772 102.931 132.148 106.931 129.751C107.411 129.408 107.571 129.922 108.21 130.778C108.85 131.635 109.01 131.977 108.37 132.32C105.331 134.203 103.411 137.628 103.411 141.396C103.411 147.218 107.731 151.842 113.17 151.842C118.609 151.842 122.929 147.218 122.929 141.396C122.929 135.573 118.609 130.95 113.17 130.95C112.37 130.95 111.73 130.265 111.73 129.408C111.73 128.552 112.37 127.867 113.17 127.867C120.209 127.867 125.809 133.861 125.809 141.396C125.809 149.102 120.209 155.096 113.17 155.096Z" fill="#FFC700"></path><path d="M134.447 211.438L129.008 223.254L134.767 221.884L134.447 211.438Z" fill="#181133"></path><path d="M134.766 210.07L135.085 222.229" stroke="white" stroke-width="0.5" stroke-miterlimit="10" stroke-linecap="round" stroke-linejoin="round"></path><path d="M134.93 222.055C136.21 222.911 140.21 227.877 142.289 230.275C142.769 230.96 142.449 231.987 141.649 231.987C141.009 231.987 140.05 231.987 139.41 231.645C137.49 230.96 133.33 228.391 133.33 228.391L128.051 231.645" stroke="#2D2453" stroke-width="0.5" stroke-miterlimit="10" stroke-linecap="round" stroke-linejoin="round"></path><path d="M121.168 225.652C121.168 225.652 133.487 221.199 134.767 221.884H134.927" stroke="#2D2453" stroke-width="0.5" stroke-miterlimit="10" stroke-linecap="round" stroke-linejoin="round"></path><path d="M92.2128 229.246L119.25 225.65C120.69 225.478 121.97 225.992 123.09 227.02C125.969 229.76 131.569 235.582 132.209 237.123C133.009 239.178 133.649 249.625 133.649 251.166C133.489 254.077 128.849 249.111 128.849 249.111C128.849 249.111 129.009 250.823 128.209 250.995C127.409 250.995 124.53 249.282 124.05 247.398C123.73 245.686 122.29 240.548 122.29 240.548C122.29 240.548 119.57 238.665 118.29 237.295C117.49 236.438 116.05 237.295 115.73 236.781L120.21 245.857C120.37 246.2 120.21 246.542 119.89 246.542C119.09 246.713 117.81 246.885 116.69 246.028C115.09 244.83 112.371 241.233 111.251 241.233C109.971 241.233 104.372 245.515 101.492 245.857C98.6121 246.2 90.293 245.343 90.293 245.343L92.2128 229.246Z" stroke="#2D2453" stroke-width="0.5" stroke-miterlimit="10" stroke-linecap="round" stroke-linejoin="round"></path><path d="M121.969 231.82C123.889 233.704 125.648 235.93 126.928 238.328C127.728 242.438 128.368 246.377 129.008 250.487" stroke="#2D2453" stroke-width="0.5" stroke-miterlimit="10" stroke-linecap="round" stroke-linejoin="round"></path><path d="M109.168 234.383C110.768 234.383 112.368 234.725 113.808 235.239C114.447 235.41 115.247 235.753 115.567 236.437" stroke="#2D2453" stroke-width="0.5" stroke-miterlimit="10" stroke-linecap="round" stroke-linejoin="round"></path></g><defs><clipPath id="clip0_1603_52269"><rect width="603" height="400" fill="white"></rect></clipPath></defs></svg>