<svg xmlns="http://www.w3.org/2000/svg" width="221" height="220" viewBox="0 0 221 220" fill="none"><mask id="mask0_1506_49956" style="mask-type:alpha" maskUnits="userSpaceOnUse" x="0" y="0" width="221" height="220"><rect x="0.5" width="220" height="220" fill="white"></rect></mask><g mask="url(#mask0_1506_49956)"><path d="M72.6507 68.202C72.6507 68.202 74.9054 65.7862 76.516 66.5914C76.516 66.5914 72.9728 65.4641 72.4896 65.6251C72.1675 65.9472 72.6507 68.202 72.6507 68.202Z" fill="#574D82"></path><path d="M84.5703 83.9844C84.5703 83.9844 86.8251 96.2244 90.0461 101.217L95.8441 89.6212C95.683 89.4602 90.6903 89.6212 84.5703 83.9844Z" fill="#574D82"></path><path d="M119.359 57.8984H146.899" stroke="#2D2453" stroke-width="0.5" stroke-miterlimit="10"></path><path d="M27.396 169.831H0.5V57.8984H69.4309" stroke="#2D2453" stroke-width="0.5" stroke-miterlimit="10"></path><path d="M169.126 110.555V169.822H115.012" stroke="#2D2453" stroke-width="0.5" stroke-miterlimit="10"></path><path d="M220.499 20.0469H147.059V110.398H220.499V20.0469Z" stroke="#2D2453" stroke-width="0.5" stroke-miterlimit="10"></path><path d="M168.642 35.1747C168.642 38.5568 165.904 41.2947 162.522 41.2947C159.14 41.2947 156.402 38.5568 156.402 35.1747C156.402 31.7926 159.14 29.0547 162.522 29.0547C165.904 29.0547 168.642 31.7926 168.642 35.1747Z" fill="#574D82"></path><path d="M168.642 56.12C168.642 59.5021 165.904 62.2401 162.522 62.2401C159.14 62.2401 156.402 59.5021 156.402 56.12C156.402 52.7379 159.14 50 162.522 50C165.904 50 168.642 52.7379 168.642 56.12Z" fill="#574D82"></path><path d="M168.642 77.0575C168.642 80.4396 165.904 83.1776 162.522 83.1776C159.14 83.1776 156.402 80.4396 156.402 77.0575C156.402 73.6754 159.14 70.9375 162.522 70.9375C165.904 70.9375 168.642 73.6754 168.642 77.0575Z" fill="#574D82"></path><path d="M168.642 97.9872C168.642 101.369 165.904 104.107 162.522 104.107C159.14 104.107 156.402 101.369 156.402 97.9872C156.402 94.6051 159.14 91.8672 162.522 91.8672C165.904 91.8672 168.642 94.6051 168.642 97.9872Z" fill="#574D82"></path><path d="M206.165 40.3309H182.329C179.431 40.3309 177.176 38.0761 177.176 35.1771C177.176 32.2782 179.431 30.0234 182.329 30.0234H206.165C209.064 30.0234 211.319 32.2782 211.319 35.1771C211.319 38.0761 209.064 40.3309 206.165 40.3309Z" fill="#CECADE"></path><path d="M206.165 61.2684H182.329C179.431 61.2684 177.176 59.0136 177.176 56.1146C177.176 53.2157 179.431 50.9609 182.329 50.9609H206.165C209.064 50.9609 211.319 53.2157 211.319 56.1146C211.319 59.0136 209.064 61.2684 206.165 61.2684Z" fill="#CECADE"></path><path d="M206.165 82.2137H182.329C179.431 82.2137 177.176 79.9589 177.176 77.06C177.176 74.161 179.431 71.9062 182.329 71.9062H206.165C209.064 71.9062 211.319 74.161 211.319 77.06C211.319 79.9589 209.064 82.2137 206.165 82.2137Z" fill="#CECADE"></path><path d="M206.165 103.143H182.329C179.431 103.143 177.176 100.889 177.176 97.9896C177.176 95.0907 179.431 92.8359 182.329 92.8359H206.165C209.064 92.8359 211.319 95.0907 211.319 97.9896C211.319 100.889 209.064 103.143 206.165 103.143Z" fill="#CECADE"></path><path d="M89.0796 101.857L95.8439 89.295C95.8439 89.295 100.514 90.1003 105.507 87.5234C105.507 87.5234 112.755 88.1677 116.137 93.1603C118.23 96.3814 120.163 100.086 121.935 104.112L88.1133 103.951L89.0796 101.857Z" fill="#2D2453"></path><path d="M107.602 55.4765C109.374 55.3154 110.662 54.3491 112.272 53.2218C113.722 52.0944 114.849 50.3228 114.366 48.5512C115.171 50.3228 116.46 54.1881 117.426 55.9597C118.231 57.2481 119.681 58.6976 120.808 57.8923C121.13 57.5702 121.453 57.087 121.614 56.7649C122.097 55.1544 122.097 51.2891 121.614 49.6786C120.164 45.008 116.299 42.2701 112.434 40.0154C116.299 38.7269 118.554 34.2174 118.07 30.1911C117.587 26.1648 114.527 22.7826 110.984 20.6889C107.441 18.7563 103.092 16.5016 98.9051 16.3405C95.3619 16.1794 91.9798 17.6289 88.5977 18.4342C86.1819 18.9174 83.766 19.8837 82.4776 21.8163C81.6723 22.9437 81.3502 24.3932 81.1892 25.8427C81.0281 30.03 83.2829 34.2174 86.8261 36.1501C79.5787 36.3111 73.2976 41.1427 69.5933 47.2628C61.3796 60.3081 67.1775 73.5145 70.7207 75.7692C75.7134 78.8293 79.0955 76.2524 79.0955 76.2524C79.0955 76.2524 76.0355 73.8366 74.9081 73.0313C71.687 70.7766 69.1102 66.4281 72.1702 62.2407C75.3913 58.2144 77.9681 60.7913 80.0618 61.5965C81.3502 62.0797 82.6387 61.4355 83.1219 60.3081C83.7661 58.5365 84.8934 56.2818 86.665 55.7986C92.9461 53.3828 100.838 56.1207 107.602 55.4765Z" fill="#2D2453"></path><path d="M95.8455 89.2948C82.9612 87.6842 81.5117 77.0547 81.5117 77.0547" stroke="#2D2453" stroke-width="0.5" stroke-miterlimit="10" stroke-linecap="round" stroke-linejoin="round"></path><path d="M109.859 63.6875C108.893 64.6538 108.731 66.1033 108.57 67.5528C108.409 69.6465 108.409 71.5791 108.409 73.6728C108.409 74.156 108.409 74.6391 108.248 75.1223C108.087 75.7665 107.443 76.4107 106.799 76.5718C106.155 76.7328 105.349 76.5718 104.705 76.0886C104.383 75.9276 104.222 75.6055 103.9 75.4444C103.256 75.1223 102.611 75.1223 101.806 75.1223C101.162 74.9612 100.357 74.317 100.679 73.6728" stroke="#2D2453" stroke-width="0.5" stroke-miterlimit="10" stroke-linecap="round" stroke-linejoin="round"></path><path d="M94.878 80.1151C95.5222 81.0815 96.6495 81.8867 97.7769 81.7257C97.938 81.7257 97.938 81.7257 97.938 81.7257C97.938 81.7257 97.938 81.7257 97.938 81.5646C98.099 81.2425 97.938 80.7594 97.6159 80.4373C97.2938 80.1151 96.9717 79.9541 96.6496 79.793C96.1664 79.4709 95.8443 79.1488 95.3611 78.8267C95.039 78.5046 94.7169 77.5383 94.3948 77.3772C93.5896 76.8941 94.5559 79.632 94.878 80.1151Z" stroke="#2D2453" stroke-width="0.5" stroke-miterlimit="10" stroke-linecap="round" stroke-linejoin="round"></path><path d="M96.1641 63.2036C96.1641 63.2036 101.801 61.2709 103.573 63.8478" stroke="#2D2453" stroke-width="0.5" stroke-miterlimit="10" stroke-linecap="round" stroke-linejoin="round"></path><path d="M111.469 65.6202C111.469 65.6202 115.817 64.6539 117.911 66.1034" stroke="#2D2453" stroke-width="0.5" stroke-miterlimit="10" stroke-linecap="round" stroke-linejoin="round"></path><path d="M103.578 63.8569C103.578 64.3401 102.934 64.9843 102.128 64.9843C101.323 64.9843 100.84 64.3401 100.84 63.8569C100.84 63.3738 101.484 62.8906 102.289 62.8906C103.095 62.8906 103.578 63.3738 103.578 63.8569Z" fill="#2D2453"></path><path d="M117.586 66.4273C117.586 66.9104 116.941 67.5546 116.136 67.5546C115.331 67.5546 114.848 66.9104 114.848 66.4273C114.848 65.9441 115.492 65.4609 116.297 65.4609C117.102 65.4609 117.586 65.9441 117.586 66.4273Z" fill="#2D2453"></path><path d="M96.1656 58.8534C96.1656 59.0144 96.1656 59.0144 96.1656 59.1755C96.3266 59.3365 96.4877 59.3365 96.6488 59.3365C99.3867 59.3365 102.125 59.3365 104.863 59.3365C105.185 59.3365 105.346 59.3365 105.668 59.1755C106.151 59.0144 106.312 58.3702 106.151 57.887C105.99 57.4039 105.507 56.9207 105.024 56.7597C104.54 56.5986 104.057 56.4376 103.413 56.4376L99.0646 55.9544C98.4204 55.9544 97.9372 55.7933 97.293 55.9544C95.6825 56.1154 96.1656 57.4039 96.1656 58.8534Z" fill="#2D2453"></path><path d="M111.949 59.5028C111.949 59.986 111.949 60.4691 112.11 60.7912C112.432 61.1133 112.754 61.4354 113.238 61.5965C115.009 62.2407 116.781 62.8849 118.713 63.207C118.874 63.207 119.036 63.207 119.197 63.207C119.358 63.207 119.358 63.046 119.358 62.8849C119.841 61.7576 119.68 60.147 118.713 59.1807C117.586 58.0533 115.976 57.7312 114.365 57.5702C112.271 57.4091 112.11 57.4091 111.949 59.5028Z" fill="#2D2453"></path><path d="M100.353 69.332C103.645 69.332 106.312 66.6641 106.312 63.373C106.312 60.082 103.645 57.4141 100.353 57.4141C97.0624 57.4141 94.3945 60.082 94.3945 63.373C94.3945 66.6641 97.0624 69.332 100.353 69.332Z" stroke="#FFC700" stroke-width="0.5" stroke-miterlimit="10"></path><path d="M116.619 72.543C119.91 72.543 122.578 69.875 122.578 66.584C122.578 63.2929 119.91 60.625 116.619 60.625C113.328 60.625 110.66 63.2929 110.66 66.584C110.66 69.875 113.328 72.543 116.619 72.543Z" stroke="#FFC700" stroke-width="0.5" stroke-miterlimit="10"></path><path d="M106.312 63.3592C106.312 63.3592 108.889 61.2655 111.305 64.0034" stroke="#FFC700" stroke-width="0.5" stroke-miterlimit="10"></path><path d="M83.1215 72.5432C83.1215 74.4758 81.511 76.0864 79.5784 76.0864C77.6457 76.0864 76.0352 74.4758 76.0352 72.5432C76.0352 70.6105 77.6457 69 79.5784 69C81.511 69 83.1215 70.6105 83.1215 72.5432Z" fill="#FFC700"></path><path d="M76.3556 63.2054C74.2619 62.7223 72.9734 64.0107 72.4903 65.2991C72.0071 66.4265 72.0071 68.1981 73.1345 69.4865" stroke="#2D2453" stroke-width="0.5" stroke-miterlimit="10" stroke-linecap="round" stroke-linejoin="round"></path><path d="M72.6523 65.2969C73.6187 65.2969 74.585 65.619 75.3902 65.9411C76.1955 66.2632 77.1618 66.9074 77.4839 67.7127" stroke="#2D2453" stroke-width="0.5" stroke-miterlimit="10" stroke-linecap="round" stroke-linejoin="round"></path><path d="M67.1779 89.2969C67.1779 89.2969 37.8662 92.0348 33.1957 97.3495C28.5251 102.825 19.8282 113.616 22.244 148.242C24.4987 182.869 28.0419 187.54 37.383 188.023C50.2673 188.667 56.2263 171.756 56.2263 171.756L68.7884 171.917L86.9875 104.275L88.2759 103.792C67.8221 103.147 67.1779 89.2969 67.1779 89.2969ZM77.1632 113.938L72.1706 116.354L70.238 114.904C70.0769 114.904 70.0769 114.904 69.9158 114.904L69.4327 114.743L75.2306 119.092C75.2306 119.092 73.1369 121.185 72.0095 120.863H71.8485L74.9085 122.635C75.2306 122.796 75.2306 123.118 75.0696 123.279C74.4254 123.923 71.8485 124.729 70.7211 124.084L70.0769 123.762C71.3653 124.729 72.3316 125.373 72.3316 125.534C72.3316 125.856 70.0769 127.467 69.1106 127.144C68.9495 127.144 68.6274 126.983 68.3053 126.822L68.6274 126.983C68.6274 126.983 68.3053 133.748 65.7284 135.358V136.002C65.4063 138.096 63.9569 139.546 63.7958 140.673C63.4737 141.8 63.4737 141.156 63.4737 141.156L52.2 140.512L52.8442 138.096L49.1399 122.474C48.8178 121.024 49.462 119.575 50.5894 118.77L59.9305 112.328C60.7358 111.844 61.541 111.683 62.5074 112.005V111.844L73.298 111.522C73.298 111.522 73.298 112.005 73.1369 112.489L75.8748 111.2L80.8675 110.395L77.1632 113.938Z" fill="#2D2453"></path><path d="M132.568 142.928C131.763 137.291 129.83 127.467 126.77 117.32L122.099 135.197L128.381 148.404C128.381 148.404 129.347 158.228 125.482 159.838C122.905 160.966 119.523 157.906 119.523 157.906C118.556 157.262 117.751 156.295 116.785 155.168L109.859 181.42V181.903C112.114 185.929 114.852 189.311 120.811 189.633C133.856 190.278 134.178 153.235 132.568 142.928Z" fill="#2D2453"></path><path d="M51.3934 144.549L53.004 137.946L49.2998 122.324C48.9777 120.874 49.4608 119.425 50.7492 118.619L60.0903 112.177C60.8956 111.694 61.7009 111.533 62.6672 111.855L70.0756 114.915L75.8736 119.264C75.8736 119.264 73.7799 121.357 72.6525 121.035" stroke="#2D2453" stroke-width="0.5" stroke-miterlimit="10" stroke-linecap="round" stroke-linejoin="round"></path><path d="M71.0399 124.093C72.1672 124.737 74.7441 123.932 75.3883 123.288C75.5493 123.127 75.5493 122.805 75.2272 122.643L63.9535 116.04C63.4703 115.718 62.9871 115.718 62.3429 115.879L54.7734 118.134" stroke="#2D2453" stroke-width="0.5" stroke-miterlimit="10" stroke-linecap="round" stroke-linejoin="round"></path><path d="M55.7422 121.507L63.4727 119.575C63.9559 119.413 64.278 119.575 64.7611 119.736C64.7611 119.736 72.6528 125.05 72.6528 125.211C72.6528 125.534 70.3981 127.144 69.4317 126.822C68.6265 126.5 65.4054 125.211 64.4391 124.728C64.278 124.567 63.9559 124.567 63.6338 124.728L61.0569 125.695L60.8959 127.466C60.8959 127.466 66.2106 133.747 65.8885 135.68C65.5664 137.774 64.1169 139.223 63.9559 140.35C63.6338 141.478 62.8285 145.343 62.8285 145.343" stroke="#2D2453" stroke-width="0.5" stroke-miterlimit="10" stroke-linecap="round" stroke-linejoin="round"></path><path d="M62.5039 111.674L73.2945 111.352C73.2945 111.352 73.2945 111.674 73.1334 112.157" stroke="#2D2453" stroke-width="0.5" stroke-miterlimit="10" stroke-linecap="round" stroke-linejoin="round"></path><path d="M69.2734 114.095L75.5545 111.196L80.5472 110.391L77.165 113.934L72.1724 116.35" stroke="#2D2453" stroke-width="0.5" stroke-miterlimit="10" stroke-linecap="round" stroke-linejoin="round"></path><path d="M75.5546 111.195C75.5546 111.195 74.7493 112.806 76.843 114.255" stroke="#2D2453" stroke-width="0.5" stroke-miterlimit="10" stroke-linecap="round" stroke-linejoin="round"></path><path d="M89.7227 100.572C89.7227 100.572 112.914 97.6728 112.109 89.7812C110.176 88.6538 109.21 88.0096 105.506 87.6875C105.506 87.6875 101.157 89.4591 98.7417 89.4591C96.3259 89.4591 95.3595 89.6201 95.3595 89.6201L89.7227 100.572Z" fill="#181133"></path><path d="M88.2774 103.958L95.8469 89.3018C95.8469 89.3018 109.053 91.7176 114.851 75.9343C120.649 59.99 122.904 42.7573 103.577 37.9257C84.251 33.2551 72.172 46.9447 70.4004 51.7763C65.7299 64.3385 65.0857 67.0764 78.2921 76.2564L67.3404 89.3018C67.1794 89.3018 67.8236 103.152 88.2774 103.958Z" stroke="#2D2453" stroke-width="0.5" stroke-miterlimit="10" stroke-linecap="round" stroke-linejoin="round"></path><path d="M116.295 155.164C116.295 155.164 119.678 159.19 122.738 159.996C125.959 160.962 121.771 186.247 125.153 188.18C125.153 188.18 123.543 190.757 117.906 189.468C111.303 188.019 109.531 181.577 109.531 181.577L116.295 155.164Z" fill="#181133"></path><path d="M121.934 134.873L128.376 148.401C128.376 148.401 129.503 158.548 125.638 159.836C121.773 161.124 119.679 157.903 119.679 157.903C115.653 154.521 111.143 145.18 111.143 145.18C109.533 145.18 105.828 143.731 105.828 143.731C105.828 143.731 103.896 143.57 102.607 143.086C101.641 142.764 100.675 140.993 100.191 139.865C100.03 139.543 100.353 139.06 100.675 139.06C102.607 139.221 107.117 139.704 107.922 139.704C108.888 139.704 115.331 141.476 115.331 141.476L108.888 139.704L105.506 137.611C105.506 137.611 99.7083 136.483 98.4199 135.839C97.4536 135.356 96.9704 133.906 96.6483 132.94C96.4873 132.618 96.8093 132.296 97.1314 132.296C99.2251 132.618 105.989 133.423 106.956 133.584C108.083 133.745 115.008 136.805 115.008 136.805C115.008 136.805 110.982 132.94 110.338 132.296C109.533 131.652 102.124 129.88 100.675 128.753C99.8694 128.108 99.7083 126.981 99.5473 126.176C99.5473 125.693 100.03 125.371 100.514 125.371C103.251 126.176 111.143 128.27 112.109 128.592C113.398 129.075 117.585 133.584 117.585 133.584L112.593 128.753L105.023 126.659C103.735 125.693 103.413 124.082 103.252 123.116C103.252 122.633 103.574 122.311 104.057 122.472L116.619 126.176C117.585 126.498 118.552 127.142 119.035 128.108L121.934 134.873Z" stroke="#2D2453" stroke-width="0.5" stroke-miterlimit="10" stroke-linecap="round" stroke-linejoin="round"></path><path d="M116.62 155.008L109.695 181.099H66.3711L86.986 104.438H130.148L121.935 135.038" stroke="#2D2453" stroke-width="0.5" stroke-miterlimit="10"></path><path d="M46.5607 116.672L34.9648 160.478L44.1449 140.669L46.5607 140.186V116.672Z" fill="#181133"></path><path d="M46.7227 114.422L46.8834 140.351" stroke="white" stroke-width="0.5" stroke-miterlimit="10" stroke-linecap="round" stroke-linejoin="round"></path><path d="M56.7104 171.909L64.763 140.987C64.763 140.826 64.763 140.665 64.763 140.665C64.763 140.504 64.602 140.504 64.441 140.504L44.1482 139.859C43.9872 139.859 43.8261 140.02 43.8261 140.02L35.1292 160.152C34.9682 160.313 35.1292 160.635 35.2903 160.635C35.4513 160.796 35.7734 160.635 35.7734 160.474L44.3093 140.665L63.7968 141.309L55.2609 174.003L56.7104 171.909Z" fill="white"></path></g></svg>