<svg xmlns="http://www.w3.org/2000/svg" width="221" height="220" viewBox="0 0 221 220" fill="none"><path d="M132.316 82.5H139.741" stroke="#2D2453" stroke-width="0.5" stroke-miterlimit="10"></path><path d="M207.119 121.367V201.117H48.5352V82.5H91.2518" stroke="#2D2453" stroke-width="0.5" stroke-miterlimit="10"></path><path d="M190.434 82.5H207.117V106.975" stroke="#2D2453" stroke-width="0.5" stroke-miterlimit="10"></path><path d="M102.798 153.539C102.982 153.172 103.073 152.714 103.257 152.347C102.89 152.072 102.615 151.797 102.615 151.797C102.615 151.797 100.965 151.98 100.69 152.164C100.598 152.255 101.515 152.805 102.798 153.539Z" fill="#2D2453"></path><path d="M105.734 146.665L105.092 145.656L102.434 147.306L105 148.223C105.184 147.673 105.459 147.123 105.734 146.665Z" fill="#2D2453"></path><path d="M100.51 159.228C100.601 159.044 100.693 158.861 100.693 158.678C100.51 158.678 100.418 158.586 100.418 158.586C100.418 158.586 100.51 158.861 100.51 159.228Z" fill="#2D2453"></path><path d="M196.575 139.516L182 140.066L170.358 121.641L169.625 139.883C169.625 139.883 143.133 113.574 132.958 111.649C124.158 109.999 107.292 108.716 107.292 108.716C107.292 108.716 107.658 115.224 100.508 114.858C88.7751 114.308 84.0084 108.533 84.0084 108.533C84.0084 108.533 57.8834 108.258 50.4584 115.774C43.0334 123.291 17.6418 171.966 14.8918 184.616C12.0501 197.266 15.3501 204.324 25.1584 206.616C30.7501 207.899 48.4418 201.208 48.4418 201.208L125.808 201.024L129.2 154.733C129.2 154.733 157.25 170.133 173.658 172.058C190.067 173.891 197.125 164.999 197.125 157.574C197.033 154.733 196.758 147.399 196.575 139.516ZM111.508 150.608C110.958 150.516 110.317 150.333 109.767 150.058C109.583 150.333 109.492 150.424 109.492 150.424C109.492 150.424 109.492 150.608 109.583 150.883C111.142 152.533 113.342 155.008 113.158 155.466C113.067 155.741 111.508 156.474 109.4 155.833C109.4 156.108 109.308 156.291 109.217 156.566C108.667 159.133 107.017 161.424 106.283 162.524C105.367 163.899 97.4834 168.666 98.3084 165.366C98.7668 163.441 99.2251 162.708 99.7751 161.058H99.6834C96.3834 161.058 93.9084 161.333 93.9084 161.333C93.9084 161.333 93.2668 163.166 92.6251 163.533C91.4334 164.083 89.8751 162.799 90.7918 159.499C91.3418 157.391 92.1668 155.466 92.8084 153.358C93.1751 152.166 93.8168 150.608 94.3668 149.416C94.8251 148.408 96.6584 146.574 96.6584 146.574C96.6584 146.574 100.142 140.799 101.608 139.516C103.35 138.049 104.267 138.874 105.55 139.974C106.1 140.433 106.558 141.074 107.475 141.258C108.667 141.533 108.85 139.058 110.5 139.791C112.7 140.799 110.867 144.924 110.867 144.924C110.867 144.924 113.158 147.124 113.983 148.958C113.983 149.324 113.342 150.791 111.508 150.608Z" fill="#2D2453"></path><path d="M109.035 102.211C106.193 101.203 103.443 98.9115 101.335 95.7031C100.327 100.745 104.085 106.886 107.202 109.178C108.577 104.136 108.485 104.595 109.035 102.211Z" fill="#574D82"></path><path d="M97.0253 76.9115C96.8419 76.6365 95.1919 75.4448 92.8086 75.4448C92.8086 74.8948 93.5419 73.7031 94.0919 73.7031C94.5503 73.7031 95.2836 74.2531 95.6503 74.5281C96.2919 75.2615 96.7503 75.9948 97.0253 76.9115Z" fill="#574D82"></path><path d="M90.2419 116.322C94.1836 119.164 99.2253 120.447 104.084 119.897C106.559 113.206 107.017 109.356 109.034 102.297C119.3 105.047 124.984 100.922 127.917 95.4222C129.659 92.0306 135.617 74.2472 134.15 65.2639C133.234 59.6722 131.309 55.3639 126.45 52.4306C122.417 50.0472 116.367 48.3972 111.692 48.3972C103.625 48.3056 99.0419 48.2139 93.9086 54.3556C90.3336 58.4806 84.8336 65.9056 85.4753 71.4056C86.1169 76.8139 88.5003 81.9472 91.8003 86.5306C88.3169 92.4889 86.1169 104.497 83.1836 110.731C83.1836 110.639 86.3003 113.481 90.2419 116.322Z" stroke="#2D2453" stroke-width="0.5" stroke-miterlimit="10" stroke-linecap="round" stroke-linejoin="round"></path><path d="M115.726 54.9077C117.651 59.4911 113.342 60.8661 110.134 63.1577C106.926 65.4494 108.759 68.4744 105.092 69.7577C103.351 70.3077 101.609 70.9494 99.7757 70.7661C98.6757 70.6744 97.6673 70.2161 96.5673 70.0327C93.2673 69.5744 89.8757 72.0494 89.4173 75.3494C88.959 78.6494 91.5257 82.0411 94.5507 82.8661C96.4757 86.8994 98.4923 90.9327 99.3173 95.2411C100.142 99.6411 101.701 105.233 99.0423 108.808C96.2923 112.291 93.1757 107.983 89.234 105.874C85.384 103.858 87.4007 110.824 74.384 103.858C70.6257 101.841 57.1507 104.866 56.6923 91.2994C56.6007 89.8327 57.2423 88.3661 58.0673 87.1744C61.3673 82.4077 67.784 81.0327 73.1007 78.7411C77.959 76.6327 82.4507 73.1494 84.284 68.1994C85.2007 65.9077 85.384 63.4327 86.0257 61.0494C87.1257 56.8327 89.6007 52.9827 93.084 50.4161C96.5673 47.8494 101.242 46.8411 105.459 48.0327C103.992 46.1994 102.067 44.8244 100.417 43.0827C98.7673 41.3411 97.484 39.1411 97.8507 36.7577C98.1257 34.8327 99.5923 33.1827 101.242 32.2661C102.984 31.2577 104.909 30.8911 106.834 30.6161C110.684 30.0661 114.717 29.9744 118.292 31.6244C121.776 33.2744 124.434 37.3077 123.517 41.0661C122.601 44.9161 118.567 47.1161 114.901 48.7661C119.759 47.3911 134.609 48.3994 137.084 61.1411C137.451 62.9744 138.184 65.0827 135.159 69.2077C134.242 70.4911 131.676 66.7327 130.301 65.9994C126.267 63.6161 115.359 54.9994 115.726 54.9077Z" fill="#2D2453"></path><path d="M96.0161 71.9609C95.3744 72.3276 94.6411 72.6943 94.0911 73.2443C92.7161 74.6193 92.2577 76.8193 93.0827 78.6526" stroke="#2D2453" stroke-width="0.5" stroke-miterlimit="10" stroke-linecap="round" stroke-linejoin="round"></path><path d="M93.7266 73.7891C95.2849 73.9724 96.7516 75.2557 96.9349 76.9057" stroke="#2D2453" stroke-width="0.5" stroke-miterlimit="10" stroke-linecap="round" stroke-linejoin="round"></path><path d="M113.707 64.1652C114.99 63.7986 116.274 64.6236 116.365 65.9986C116.365 66.1819 116.365 66.3652 116.365 66.5486C116.365 67.3736 115.999 68.1986 115.265 68.6569C114.899 68.8402 114.532 68.9319 114.165 69.0236C113.157 69.2986 112.057 69.5736 111.049 69.7569C110.132 69.9402 109.215 70.2152 108.299 70.1236C108.024 70.1236 107.749 70.0319 107.565 69.8486C107.199 69.5736 107.199 69.0236 107.382 68.6569C108.574 66.1819 111.599 64.8069 113.707 64.1652Z" fill="#2D2453"></path><path d="M113.707 64.1652C114.99 63.7986 116.274 64.6236 116.365 65.9986C116.365 66.1819 116.365 66.3652 116.365 66.5486C116.365 67.3736 115.999 68.1986 115.265 68.6569C114.899 68.8402 114.532 68.9319 114.165 69.0236C113.157 69.2986 112.057 69.5736 111.049 69.7569C110.132 69.9402 109.215 70.2152 108.299 70.1236C108.024 70.1236 107.749 70.0319 107.565 69.8486C107.199 69.5736 107.199 69.0236 107.382 68.6569C108.574 66.1819 111.599 64.8069 113.707 64.1652Z" fill="#2D2453"></path><path d="M130.85 67.0107C129.75 66.2774 128.284 66.644 127.825 67.6524C127.734 67.8357 127.734 67.9274 127.642 68.019C127.459 68.6607 127.55 69.4857 128.192 70.0357C128.467 70.3107 128.834 70.494 129.109 70.6774C130.025 71.2274 131.034 71.6857 131.95 72.2357C132.775 72.694 133.6 73.1524 134.517 73.3357C134.792 73.4274 135.067 73.4274 135.342 73.3357C135.709 73.244 135.892 72.7857 135.8 72.419C135.25 70.1274 132.684 68.2024 130.85 67.0107Z" fill="#2D2453"></path><path d="M110.223 72.1406C110.681 73.5156 111.781 74.799 113.248 75.1656C114.714 75.5323 116.364 74.6156 116.731 73.2406" stroke="#2D2453" stroke-width="0.5" stroke-miterlimit="10" stroke-linecap="round" stroke-linejoin="round"></path><path d="M110.957 87.3594C112.057 89.926 114.532 91.9427 117.282 92.401" stroke="#2D2453" stroke-width="0.5" stroke-miterlimit="10" stroke-linecap="round" stroke-linejoin="round"></path><path d="M127.641 76.4526C127.641 75.5359 128.282 74.7109 129.016 74.7109C129.749 74.7109 130.391 75.4443 130.391 76.4526C130.391 77.3693 129.749 78.1943 129.016 78.1943C128.282 78.1943 127.641 77.4609 127.641 76.4526Z" fill="#2D2453"></path><path d="M109.03 102.301C106.005 100.926 103.255 98.451 101.422 95.6094" stroke="#2D2453" stroke-width="0.5" stroke-miterlimit="10" stroke-linecap="round" stroke-linejoin="round"></path><path d="M159.906 130.805L169.806 139.421C169.806 139.421 174.481 148.496 174.848 156.38C175.123 161.88 164.031 135.938 159.906 130.805Z" fill="#181133"></path><path d="M123.422 131.906L127.914 169.49L129.289 154.273L123.422 131.906Z" fill="#181133"></path><path d="M64.8469 134.477L50.5469 169.218L60.2635 164.543C60.2635 164.543 61.6385 163.352 64.8469 134.477Z" fill="#181133"></path><path d="M37.4401 174.625C37.4401 174.625 26.8067 182.875 21.4901 187.275C20.4817 188.1 20.9401 189.842 22.3151 189.933L23.4151 190.025L37.4401 174.625Z" fill="#181133"></path><path d="M72.3643 185.535C81.3477 193.969 96.656 200.844 107.656 201.394L48.3477 201.302L49.7227 200.202C49.7227 200.202 71.631 184.894 72.3643 185.535Z" fill="#181133"></path><path d="M169.622 139.149C172.464 144.191 174.389 150.149 175.122 156.291C175.122 156.383 175.03 156.566 174.939 156.566C174.847 156.566 174.755 156.474 174.755 156.383C173.93 149.874 171.914 143.641 168.797 138.508L169.622 139.149Z" fill="white"></path><path d="M23.3242 190.026C23.3242 190.026 33.1326 176.734 40.2826 173.526C50.2742 168.943 93.3576 150.609 93.3576 150.609" stroke="white" stroke-width="0.5" stroke-miterlimit="10" stroke-linecap="round" stroke-linejoin="round"></path><path d="M65.1237 133.281L50.457 169.031" stroke="white" stroke-width="0.5" stroke-miterlimit="10" stroke-linecap="round" stroke-linejoin="round"></path><path d="M129.106 155.737C126.722 147.12 123.789 131.904 123.789 131.72C123.789 131.629 123.881 131.445 123.972 131.445C124.064 131.445 124.247 131.537 124.247 131.629C124.247 131.812 127.089 146.204 129.381 154.912L129.106 155.737Z" fill="white"></path><path d="M107.383 109.635C107.383 109.635 112.516 117.885 119.941 118.619C127.366 119.352 135.249 113.119 135.249 113.119C135.249 113.119 131.583 110.735 126.449 110.185C121.591 109.635 107.749 108.719 107.749 108.719L107.383 109.635Z" fill="#181133"></path><path d="M192.999 136.123L147.258 74.0646L150.649 72.7812L192.999 136.123Z" fill="#574D82"></path><path d="M198.957 135.846L205.924 136.121L201.34 130.438L198.957 135.846Z" fill="#574D82"></path><path d="M206.933 106.886L192.816 89.8359" stroke="#2D2453" stroke-width="0.5" stroke-miterlimit="10" stroke-linecap="round" stroke-linejoin="round"></path><path d="M181.08 75.624L165.589 57.0156L145.605 57.474L190.247 116.691L214.08 115.407L206.93 106.882" stroke="#2D2453" stroke-width="0.5" stroke-miterlimit="10" stroke-linecap="round" stroke-linejoin="round"></path><path d="M182.915 138.325L193.64 136.033L197.765 122.558L188.782 119.808L189.882 116.783L214.082 115.5V118.708L205.007 121.917L199.048 135.85L206.29 136.308L206.748 139.15L182.09 140.433L182.915 138.325Z" stroke="#2D2453" stroke-width="0.5" stroke-miterlimit="10" stroke-linecap="round" stroke-linejoin="round"></path><path d="M201.34 130.531L206.29 136.306" stroke="#2D2453" stroke-width="0.5" stroke-miterlimit="10" stroke-linecap="round" stroke-linejoin="round"></path><path d="M193.273 136.127L150.648 72.6016" stroke="#2D2453" stroke-width="0.5" stroke-miterlimit="10" stroke-linecap="round" stroke-linejoin="round"></path><path d="M183.005 138.047L143.313 75.1641L142.488 77.9141L182.088 140.431L183.005 138.047Z" stroke="#2D2453" stroke-width="0.5" stroke-miterlimit="10" stroke-linecap="round" stroke-linejoin="round"></path><path d="M188.598 119.81L144.781 60.2266L145.423 57.4766L189.973 116.418L188.598 119.81Z" stroke="#2D2453" stroke-width="0.5" stroke-miterlimit="10" stroke-linecap="round" stroke-linejoin="round"></path><path d="M150.831 68.8438L150.556 72.6938L143.406 75.1687" stroke="#2D2453" stroke-width="0.5" stroke-miterlimit="10" stroke-linecap="round" stroke-linejoin="round"></path><path d="M175.582 68.8422L179.982 63.6172C179.982 63.6172 184.474 66.1838 178.607 72.6005C178.607 72.6005 183.465 71.3172 184.199 72.4172C184.932 73.4255 186.215 75.9922 183.924 81.2172C182.274 85.1589 180.99 87.5422 180.44 88.4589C180.257 88.7339 179.89 88.8255 179.615 88.6422C178.882 88.0922 177.965 85.7089 178.24 84.3339C178.699 82.4089 180.807 75.5339 180.807 75.5339" stroke="#2D2453" stroke-width="0.5" stroke-miterlimit="10" stroke-linecap="round" stroke-linejoin="round"></path><path d="M185.484 76.9062C185.484 76.9062 189.517 77.7312 188.967 79.7479C188.509 81.3979 185.575 87.3562 184.475 89.5562C184.292 89.9229 183.742 90.0146 183.467 89.6479C182.734 88.7313 181.634 86.9896 182.367 84.7896" stroke="#2D2453" stroke-width="0.5" stroke-miterlimit="10" stroke-linecap="round" stroke-linejoin="round"></path><path d="M188.048 82.1328C188.048 82.1328 192.815 82.3161 191.532 85.1578C191.165 85.9828 188.782 89.4662 187.498 91.4828C187.132 92.0328 186.398 91.9411 186.123 91.3911C185.665 90.3828 185.115 88.9161 185.39 87.7245" stroke="#2D2453" stroke-width="0.5" stroke-miterlimit="10" stroke-linecap="round" stroke-linejoin="round"></path><path d="M191.534 85.7053C191.534 85.7053 193.367 84.7887 193.55 86.347C193.734 88.272 192.175 91.297 190.984 93.4053C190.525 94.2303 187.959 93.5887 189.7 88.3637" stroke="#2D2453" stroke-width="0.5" stroke-miterlimit="10" stroke-linecap="round" stroke-linejoin="round"></path><path d="M122.048 73.9766C121.132 76.7266 121.957 79.8432 123.057 82.5016C123.332 83.2349 123.698 84.1516 123.515 84.8849C123.332 85.7099 122.415 86.3516 121.682 85.9849C121.498 85.8932 121.315 85.6182 121.04 85.5266C120.307 85.3432 119.665 86.6266 118.932 86.3516C118.473 86.0766 118.565 85.3432 118.107 85.1599C117.74 84.9766 117.373 85.2516 117.007 85.1599C116.64 85.1599 116.365 84.7932 116.182 84.4266C116.09 84.0599 116.09 83.6932 116.09 83.2349" stroke="#2D2453" stroke-width="0.5" stroke-miterlimit="10" stroke-linecap="round" stroke-linejoin="round"></path><path d="M205.739 69.2109C212.339 69.2109 217.747 74.6193 217.747 81.2193C217.747 87.8193 212.339 93.2276 205.739 93.2276C199.139 93.2276 193.73 87.8193 193.73 81.2193C193.73 74.6193 199.139 69.2109 205.739 69.2109Z" fill="#2D2453"></path><path d="M210.141 86.0734C208.949 87.0818 207.482 87.7234 205.741 87.7234C202.074 87.7234 199.141 84.7901 199.141 81.1234C199.141 77.4568 202.074 74.5234 205.741 74.5234" stroke="white" stroke-width="0.5" stroke-miterlimit="10" stroke-linecap="round" stroke-linejoin="round"></path><path d="M212.433 81.0312C212.433 82.8646 211.699 84.5146 210.508 85.7063" stroke="white" stroke-width="0.5" stroke-miterlimit="10" stroke-linecap="round" stroke-linejoin="round" stroke-dasharray="1 1"></path><path d="M204.914 75.8068L206.106 74.5234" stroke="white" stroke-width="0.5" stroke-miterlimit="10" stroke-linecap="round" stroke-linejoin="round"></path><path d="M204.914 73.2422L206.106 74.5255" stroke="white" stroke-width="0.5" stroke-miterlimit="10" stroke-linecap="round" stroke-linejoin="round"></path><path d="M105 145.562C105.825 146.754 106.467 148.221 107.567 149.137" stroke="#2D2453" stroke-width="0.5" stroke-miterlimit="10" stroke-linecap="round" stroke-linejoin="round"></path><path d="M101.332 147.493C101.607 147.585 103.99 147.035 104.999 145.477" stroke="#2D2453" stroke-width="0.5" stroke-miterlimit="10" stroke-linecap="round" stroke-linejoin="round"></path><path d="M98.2148 166.468C100.965 166.651 103.623 165.368 105.548 163.351C107.473 161.334 108.665 158.768 109.307 156.109" stroke="#2D2453" stroke-width="0.5" stroke-miterlimit="10" stroke-linecap="round" stroke-linejoin="round"></path><path d="M46.5156 202.032L94.6406 170.132C94.7323 170.04 94.9156 170.132 94.9156 170.223C95.0073 170.315 94.9156 170.498 94.824 170.498L48.349 201.298" fill="white"></path><path d="M100.6 152.531C100.508 152.622 101.516 153.172 102.8 153.906L103.258 152.714C102.8 152.347 102.525 152.164 102.525 152.164C102.525 152.164 100.783 152.347 100.6 152.531Z" fill="#574D82"></path><path d="M100.691 158.951C100.508 158.859 100.324 158.859 100.324 158.859C100.324 158.859 100.324 159.318 100.324 159.776L100.691 158.951Z" fill="#574D82"></path><path d="M102.25 147.58L104.908 148.496L105.55 146.846L104.908 145.93L102.25 147.58Z" fill="#574D82"></path><path d="M99.5907 161.516C96.2907 161.516 93.8157 161.791 93.8157 161.791C93.8157 161.791 93.4491 162.799 93.0824 163.441L92.0741 165.916C91.5241 167.291 92.1657 168.941 93.6324 169.491C95.0074 170.041 96.6574 169.399 97.2074 167.932L99.7741 161.516C99.6824 161.516 99.5907 161.516 99.5907 161.516Z" fill="#574D82"></path><path d="M144.416 77.0913C142.583 69.2079 138.274 63.7079 132.224 61.5996C120.124 57.3829 105.733 68.2913 99.4995 86.4413C96.5661 94.7829 95.9245 103.491 97.6661 110.733C99.3161 117.883 103.074 123.016 108.208 125.491L102.799 139.058C103.808 138.783 104.541 139.425 105.549 140.25C106.099 140.708 106.558 141.35 107.474 141.533C107.566 141.533 107.658 141.533 107.749 141.533L113.524 126.958C124.708 128.058 136.991 117.608 142.583 101.291C145.424 93.0413 146.066 84.3329 144.416 77.0913ZM136.166 99.1829C131.308 113.208 120.216 122.741 111.966 119.9C108.208 118.616 105.366 114.858 104.083 109.266C102.708 103.216 103.258 95.8829 105.733 88.6413C110.591 74.6163 121.683 65.0829 129.933 67.9246C133.691 69.2079 136.533 72.9663 137.816 78.5579C139.283 84.6996 138.641 92.0329 136.166 99.1829Z" fill="#574D82"></path><path d="M96.4727 147.398C96.4727 147.398 100.598 138.598 103.439 138.964C105.823 139.239 111.781 146.206 113.798 148.589C114.256 149.048 114.164 149.873 113.706 150.331C112.881 151.156 110.406 151.156 108.206 149.781" stroke="#2D2453" stroke-width="0.5" stroke-miterlimit="10" stroke-linecap="round" stroke-linejoin="round"></path><path d="M92.9883 153.909C92.9883 153.909 94.7299 146.393 98.2133 146.943C100.872 147.401 106.372 148.501 107.93 149.418C109.213 150.151 112.33 153.818 113.247 155.01C113.43 155.193 113.43 155.559 113.247 155.743C112.697 156.293 110.405 156.568 108.48 155.926C105.913 155.01 102.888 152.168 102.888 152.168L99.7716 152.718" stroke="#2D2453" stroke-width="0.5" stroke-miterlimit="10" stroke-linecap="round" stroke-linejoin="round"></path><path d="M90.8828 159.042C90.8828 159.042 92.0745 152.992 94.8245 152.901C98.6745 152.717 99.7745 152.259 102.249 153.359C104.724 154.551 108.116 156.567 108.116 156.567C108.116 156.567 108.024 160.417 104.816 159.592C101.516 158.859 100.416 158.492 100.416 158.492" stroke="#2D2453" stroke-width="0.5" stroke-miterlimit="10" stroke-linecap="round" stroke-linejoin="round"></path><path d="M90.4217 160.782C90.4217 160.782 90.9717 157.207 93.5384 157.573C96.1051 157.94 100.413 158.582 100.413 158.582C100.413 158.582 100.872 161.423 99.2217 161.515C97.5717 161.607 93.9967 161.698 93.9967 161.698C93.9967 161.698 93.2634 163.99 92.7134 163.99C89.8717 163.807 90.4217 160.782 90.4217 160.782Z" stroke="#2D2453" stroke-width="0.5" stroke-miterlimit="10" stroke-linecap="round" stroke-linejoin="round"></path><path d="M109.033 140.25C109.492 139.975 110.133 139.883 110.592 140.158C111.142 140.525 111.692 141.167 111.783 141.808C111.875 142.908 111.6 144.192 111.142 145.2C110.317 144.283 107.75 141.9 107.75 141.9C107.75 141.9 108.3 140.8 109.033 140.25Z" stroke="#2D2453" stroke-width="0.5" stroke-miterlimit="10" stroke-linecap="round" stroke-linejoin="round"></path></svg>