<svg xmlns="http://www.w3.org/2000/svg" width="143" height="136" viewBox="0 0 143 136" fill="none"><g clip-path="url(#clip0_2045_4142)"><path d="M134.52 94.357C134.52 93.2716 134.522 92.1834 134.531 91.098C134.533 90.5024 134.531 89.9069 134.528 89.3114C134.528 89.0678 134.522 88.8269 134.52 88.5833C134.52 88.3749 134.517 88.1691 134.487 87.9634C134.457 87.8552 134.402 87.7604 134.321 87.6819C134.217 87.5791 134.081 87.5195 133.939 87.5033C133.893 87.2245 133.844 86.9484 133.795 86.6723C133.688 86.093 133.563 85.5219 133.391 84.9588C133.288 84.6151 133.138 84.2821 132.999 83.9519C132.887 83.6866 132.767 83.4213 132.636 83.1642C132.358 82.6147 132.048 82.0815 131.723 81.559C131.413 81.0556 131.075 80.5683 130.75 80.0757C130.415 79.5695 130.077 79.0687 129.739 78.5653C129.415 78.0834 129.126 77.5773 128.834 77.0765C128.695 76.8356 128.431 76.7002 128.164 76.7002C128.033 76.7002 127.9 76.7327 127.78 76.8031C127.63 76.8897 127.524 77.0251 127.461 77.1739H127.434C127.365 77.1739 127.297 77.1739 127.229 77.1739C127.12 77.1496 127 77.1523 126.886 77.1523C126.85 77.1523 126.815 77.1523 126.782 77.1523C126.597 77.1523 126.412 77.1442 126.226 77.1415C125.741 77.1333 125.259 77.1333 124.774 77.1279C123.765 77.1171 122.757 77.1144 121.748 77.1171C121.187 77.1171 120.628 77.1036 120.07 77.1009C119.432 77.0954 118.791 77.0954 118.154 77.0927C117.66 77.0927 117.17 77.0711 116.676 77.0657C116.047 77.0603 115.417 77.0603 114.788 77.0575C113.896 77.0575 113.005 77.0548 112.114 77.0548C110.233 77.0548 108.35 77.0603 106.47 77.063C103.706 77.0684 100.943 77.0711 98.1817 77.0792C92.6191 77.0982 87.0565 77.0954 81.4967 77.1171C78.7031 77.1279 75.9068 77.1333 73.1133 77.1415C70.3579 77.1469 67.6025 77.1685 64.8471 77.1821C61.4594 77.201 58.0717 77.2037 54.684 77.2118C54.9075 77.1117 55.1337 77.0142 55.3599 76.9168C55.8859 76.7138 56.4174 76.5405 56.9706 76.4187C57.5729 76.2888 58.1807 76.1941 58.7858 76.0939C59.0774 76.0452 59.369 75.9911 59.6606 75.9396C59.9495 75.8882 60.233 75.8124 60.5191 75.7474C60.7699 75.6906 61.0124 75.6202 61.2577 75.5471C61.672 75.4253 62.0862 75.3008 62.4978 75.1682C62.9229 75.0328 63.19 74.6106 63.0701 74.1694C63.0211 73.9907 62.9039 73.8337 62.7512 73.7254C62.8085 73.5305 62.8684 73.3356 62.9284 73.1435C63.051 72.7428 63.1791 72.3422 63.3372 71.9551C63.3944 71.8279 63.4544 71.7007 63.5253 71.5789C63.5961 71.4544 63.6833 71.3353 63.7678 71.2216C63.836 71.1269 63.8441 70.978 63.8142 70.8697C63.7814 70.756 63.7051 70.6559 63.6016 70.5963C63.5307 70.5557 63.4517 70.5341 63.3699 70.5341C63.329 70.5341 63.2882 70.5395 63.2473 70.5503C63.1246 70.5828 63.0456 70.6586 62.972 70.7587C62.9611 70.775 62.9502 70.7912 62.9393 70.8074C62.9311 70.7317 62.9093 70.6586 62.8684 70.5909C62.7894 70.4583 62.6804 70.396 62.5414 70.3419C62.367 70.2742 62.1953 70.2065 62.0154 70.1497C61.8655 70.101 61.7101 70.0604 61.5575 70.0198C61.2713 69.9385 60.9852 69.8573 60.6963 69.7897C60.0831 69.6462 59.4644 69.5298 58.8457 69.4134C58.227 69.297 57.6193 69.1482 57.0197 68.9641C56.4065 68.7746 55.7905 68.5797 55.1964 68.3361L55.1173 68.3036C55.0574 68.1764 54.932 68.0844 54.7767 68.0844C54.7358 68.0844 54.6949 68.0925 54.6567 68.106C54.1471 67.8786 53.6402 67.6486 53.1305 67.4158C52.55 67.1478 51.9668 66.8879 51.3862 66.62C51.2909 66.5766 51.2009 66.5469 51.1028 66.5469C51.0592 66.5469 51.0156 66.5523 50.9693 66.5658C50.9202 66.5794 50.8766 66.601 50.8357 66.6254C50.7812 66.6118 50.724 66.6037 50.6722 66.6037C50.3942 66.6037 50.1489 66.7932 50.0617 67.0639C49.969 67.3535 49.9172 67.6567 49.8546 67.9544C49.7891 68.2495 49.7237 68.5445 49.6638 68.8423C49.5466 69.4242 49.4485 70.0089 49.3585 70.5963C49.2577 71.2432 49.1759 71.8929 49.0969 72.5398C49.0233 73.1326 48.9524 73.7254 48.887 74.3182C48.8135 75.0003 48.7344 75.6771 48.6445 76.3592C48.6009 76.6488 48.5545 76.9385 48.5082 77.2308C45.423 77.2443 42.3406 77.2606 39.2554 77.2606C39.1491 77.2606 39.051 77.2958 38.9692 77.3553C38.852 77.3282 38.7321 77.3039 38.6122 77.2795C38.5659 77.2118 38.5032 77.1496 38.4378 77.1117C38.3587 77.0657 38.2661 77.0413 38.1734 77.0413C38.1271 77.0413 38.0808 77.0467 38.0371 77.0603C37.9063 77.0954 37.7946 77.1821 37.7264 77.2985C37.7101 77.3282 37.6965 77.3553 37.6883 77.3851C37.6828 77.3905 37.6774 77.3932 37.6719 77.3986C37.5547 77.3797 37.4348 77.358 37.3176 77.3391C37.2822 77.3337 37.2495 77.3309 37.2195 77.3309C37.1623 77.3309 37.1051 77.3418 37.0505 77.3743C36.9715 77.4203 36.9143 77.4961 36.8897 77.5827C36.8652 77.672 36.8788 77.7694 36.9252 77.8507C36.9661 77.921 37.0478 77.9968 37.135 78.0104C37.1677 78.0158 37.2032 78.0212 37.2359 78.0266C37.1514 78.2675 37.0723 78.5111 36.9988 78.7574C36.9115 79.0471 36.8216 79.3367 36.7453 79.6318C36.5954 80.2164 36.4591 80.8038 36.3365 81.3939C36.2111 81.9894 36.1075 82.5876 36.0176 83.1886C35.9358 83.738 35.8732 84.293 35.8105 84.8451C35.7859 84.9047 35.7723 84.9697 35.7723 85.0373C35.7723 85.0644 35.7778 85.0915 35.7805 85.1158C35.7233 85.6572 35.6715 86.2013 35.6388 86.7453C35.6251 86.9646 35.6142 87.1839 35.6006 87.4031C35.3199 87.4112 35.0365 87.4194 34.7557 87.4302H34.7476C34.475 87.441 34.1998 87.4464 33.9272 87.4573C33.9027 87.4573 33.8782 87.4572 33.8564 87.46C33.8618 87.3463 33.7964 87.2218 33.7201 87.146C33.6329 87.0593 33.5102 87.0079 33.3849 87.0079C33.2595 87.0079 33.1396 87.0566 33.0496 87.146C32.9542 87.2407 32.9243 87.349 32.9106 87.4789C32.8479 88.05 32.788 88.6239 32.7362 89.195C32.7144 89.4549 32.6899 89.7148 32.6708 89.9719C32.6572 90.1316 32.6463 90.294 32.6354 90.4537C32.6272 90.5728 32.6272 90.6892 32.6299 90.8083C32.5263 90.8977 32.4609 91.0303 32.4609 91.1629C32.4609 91.2847 32.51 91.4038 32.5972 91.4877C32.6354 91.5256 32.6762 91.55 32.7199 91.5716C32.7853 91.799 33.0605 91.9235 33.2786 91.864C33.3849 91.8342 33.4775 91.7665 33.5402 91.6745C33.8236 91.6962 34.1071 91.7178 34.3905 91.7449C34.7612 91.7801 35.1318 91.8234 35.4998 91.8694C35.6933 91.8965 35.8868 91.929 36.0803 91.9587C36.0748 92.3106 36.0721 92.6652 36.0639 93.0171C36.0449 93.7913 36.0312 94.5654 36.0122 95.3369C35.9931 96.176 35.9849 97.0178 35.9795 97.8569C35.974 98.6879 35.9631 99.5162 35.9604 100.347C35.9495 103.609 36.0149 106.868 36.0285 110.13C36.0394 112.485 36.0558 114.84 36.0585 117.195C35.9249 117.157 35.7859 117.135 35.647 117.122C35.617 117.119 35.5897 117.116 35.5597 117.116C35.3144 117.116 35.0746 117.222 34.9465 117.438C34.862 117.582 34.8321 117.768 34.8702 117.931C34.9002 118.069 34.971 118.188 35.0419 118.307C35.1836 118.543 35.4943 118.629 35.7369 118.489C35.835 118.432 35.9086 118.342 35.9495 118.242C35.9713 118.25 35.9904 118.258 36.0122 118.267C36.6853 118.567 37.3231 118.951 37.939 119.355C38.2525 119.56 38.5659 119.763 38.8793 119.969C39.0128 120.056 39.1464 120.142 39.2799 120.229C39.3644 120.283 39.4516 120.335 39.5361 120.386C39.716 120.494 39.9041 120.575 40.0976 120.654C40.1575 120.67 40.2175 120.67 40.2774 120.665C40.2665 120.678 40.2556 120.689 40.2447 120.705C40.133 120.895 40.103 121.128 40.1602 121.339C40.212 121.528 40.3537 121.742 40.5418 121.831C40.7053 121.907 40.7925 121.948 40.9779 121.951C41.0269 121.951 41.0733 121.951 41.1223 121.951C41.2804 121.951 41.4412 121.945 41.602 121.94C42.0599 121.926 42.5177 121.907 42.9729 121.899C44.1911 121.875 45.4121 121.859 46.6304 121.837C49.1105 121.796 51.5907 121.704 54.0708 121.653C56.8889 121.596 59.7097 121.545 62.5278 121.477C65.4521 121.409 68.3738 121.344 71.2982 121.287C74.0208 121.233 76.7435 121.179 79.4662 121.125C79.4662 122.443 79.4662 123.761 79.4662 125.077C79.4662 126.628 79.4826 128.179 79.5017 129.73C79.5098 130.507 79.5126 131.286 79.5071 132.063C79.5017 132.821 79.4935 133.582 79.4962 134.34C79.4962 134.54 79.4962 134.738 79.4989 134.938C79.4989 135.044 79.4989 135.149 79.4989 135.252C79.4989 135.325 79.4989 135.398 79.5071 135.471C79.518 135.615 79.5589 135.737 79.6352 135.858C79.7034 135.967 79.8342 136.023 79.9595 135.991C80.1013 135.953 80.2157 135.785 80.1612 135.639C80.1476 135.604 80.1367 135.571 80.1285 135.536C80.1231 135.404 80.134 135.271 80.1367 135.138C80.1367 135.044 80.1394 134.949 80.1421 134.854C80.1476 134.665 80.153 134.478 80.1585 134.288C80.1667 134.056 80.1776 133.823 80.1857 133.59C80.1939 133.587 80.2021 133.585 80.2103 133.582C80.2157 133.641 80.2321 133.698 80.2621 133.752C80.3138 133.839 80.3983 133.904 80.4964 133.931C80.5673 133.95 80.6354 133.95 80.7063 133.931C80.7281 133.926 80.7526 133.918 80.7744 133.904C80.7799 134.026 80.7935 134.148 80.8044 134.267C80.8126 134.38 80.8426 134.478 80.9271 134.559C81.0306 134.665 81.1887 134.705 81.3304 134.665C81.3904 134.648 81.4476 134.624 81.5048 134.594C81.5812 134.554 81.6275 134.483 81.6766 134.416C81.7501 134.313 81.7692 134.164 81.7828 134.042C81.7937 133.942 81.7937 133.842 81.7965 133.742C81.8019 133.595 81.8265 133.447 81.8401 133.298C81.8728 132.93 81.8919 132.561 81.9137 132.193C81.9191 132.193 81.9246 132.196 81.9273 132.199C82.009 132.22 82.1044 132.218 82.1889 132.188C82.268 132.264 82.3715 132.307 82.4833 132.307C82.5105 132.307 82.5323 132.299 82.5569 132.293C82.565 132.534 82.5787 132.775 82.5841 133.016C82.5896 133.249 82.5923 133.479 82.5923 133.712C82.5923 133.969 82.5787 134.242 82.6441 134.494C82.6768 134.624 82.8021 134.716 82.9357 134.716C83.0611 134.716 83.2055 134.624 83.2273 134.494C83.2682 134.275 83.2791 134.053 83.2955 133.828C83.3091 133.631 83.32 133.43 83.3254 133.23C83.3363 132.854 83.3363 132.477 83.3336 132.101C83.3282 131.308 83.3118 130.512 83.26 129.722C83.2082 128.918 83.1619 128.114 83.1074 127.31C83.0801 126.907 83.042 126.503 83.0038 126.1C82.9684 125.705 82.9357 125.31 82.9003 124.917C82.8294 124.075 82.7068 123.242 82.5868 122.405C82.5378 122.059 82.4778 121.71 82.4124 121.366C82.4179 121.355 82.4233 121.342 82.4315 121.331C82.486 121.366 82.5405 121.401 82.595 121.436C82.7422 121.531 82.9493 121.466 83.0338 121.323C83.0856 121.233 83.0856 121.136 83.0502 121.052C84.5682 121.022 86.089 120.992 87.6071 120.965C87.5635 122.93 87.5607 124.898 87.5498 126.866C87.5444 127.795 87.5335 128.72 87.5253 129.649C87.5144 130.612 87.5062 131.573 87.479 132.534C87.4681 132.954 87.4435 133.371 87.4136 133.79C87.3999 133.993 87.3836 134.199 87.3645 134.402C87.3563 134.494 87.3481 134.586 87.34 134.678C87.3345 134.727 87.3318 134.773 87.3345 134.822C87.3345 134.884 87.3481 134.943 87.3591 135.003C87.3754 135.087 87.4299 135.144 87.4817 135.209C87.5471 135.293 87.6834 135.333 87.7869 135.333C87.8632 135.333 87.9368 135.314 88.005 135.274C88.0704 135.236 88.1222 135.184 88.1603 135.119C88.2094 135.057 88.2285 134.968 88.2448 134.892C88.2612 134.822 88.2666 134.738 88.2721 134.662C88.2802 134.546 88.2884 134.432 88.2939 134.315C88.3075 134.091 88.3157 133.866 88.3238 133.641C88.3429 133.179 88.3484 132.718 88.3593 132.256C88.3811 131.308 88.4002 130.361 88.4247 129.413C88.4737 127.464 88.4846 125.513 88.5037 123.564C88.5119 122.692 88.5173 121.821 88.5364 120.949C88.67 120.949 88.8035 120.944 88.9371 120.941C92.1149 120.884 95.2955 120.827 98.4733 120.773C102.158 120.732 105.843 120.684 109.528 120.638C113.201 120.592 116.878 120.543 120.552 120.483C122.465 120.454 124.378 120.429 126.292 120.402C127.221 120.389 128.15 120.372 129.08 120.356C129.453 120.348 129.824 120.337 130.197 120.332C130.519 120.326 130.846 120.337 131.165 120.305H131.162C131.203 120.305 131.241 120.299 131.279 120.294H131.271C131.59 120.267 131.914 120.27 132.233 120.24C132.241 120.24 132.247 120.24 132.255 120.24C132.32 120.232 132.388 120.224 132.457 120.213C132.585 120.178 132.696 120.113 132.789 120.021C132.797 120.012 132.805 120.002 132.814 119.991C132.841 119.991 132.865 119.991 132.893 119.988C133.083 119.972 133.271 119.948 133.46 119.915C133.547 119.891 133.623 119.847 133.686 119.782C133.702 119.766 133.716 119.747 133.729 119.731C133.893 119.698 134.029 119.552 134.024 119.379V119.338C134.201 119.309 134.364 119.152 134.351 118.962C134.345 118.876 134.337 118.789 134.329 118.702C134.454 118.583 134.533 118.415 134.533 118.231C134.533 114.241 134.55 110.254 134.533 106.264C134.517 102.296 134.52 98.3252 134.528 94.357H134.52ZM33.5566 90.7515C33.5593 90.4618 33.5838 90.1749 33.6083 89.8853C33.6138 89.8284 33.6192 89.7716 33.6247 89.7148C33.8782 89.7445 34.1343 89.777 34.3878 89.8095C34.3851 89.8772 34.3796 89.9448 34.3824 90.0125C34.3824 90.1533 34.3824 90.2913 34.3878 90.4294C34.3878 90.5593 34.3933 90.6892 34.396 90.8219C34.118 90.7948 33.8373 90.7704 33.5593 90.7515H33.5566ZM34.4232 89.0732C34.4205 89.122 34.4178 89.1707 34.4151 89.2194C34.1698 89.1896 33.9245 89.1571 33.6765 89.1274C33.7065 88.789 33.7446 88.4507 33.78 88.1096C34.0199 88.0988 34.2597 88.0879 34.5023 88.0798C34.4723 88.4101 34.4423 88.743 34.4205 89.0732H34.4232ZM48.7344 82.7934C48.9634 81.5807 49.2059 80.3707 49.4376 79.1581C49.4812 78.9361 49.5248 78.7114 49.5684 78.4895C49.5302 78.4245 49.503 78.3541 49.4839 78.281C49.4648 78.2107 49.4566 78.1376 49.4566 78.0645C49.4566 77.9454 49.4921 77.8046 49.5139 77.6828C49.5302 77.5881 49.5493 77.4934 49.5711 77.3986V77.3824C49.6038 77.2633 49.6338 77.1442 49.6665 77.0251C49.6965 76.9195 49.7292 76.8112 49.7673 76.7084C49.7973 76.619 49.8355 76.5297 49.8764 76.4458C49.8982 76.416 49.92 76.3863 49.9418 76.3565C49.9908 76.0371 50.0399 75.715 50.0862 75.3928C50.2579 74.1856 50.4051 72.9729 50.5441 71.7603C50.6068 71.2135 50.6749 70.6694 50.7458 70.1253C50.8112 69.6868 50.8848 69.2456 50.9802 68.8125C51.0592 68.4525 51.1464 68.0925 51.2118 67.7271C51.6343 67.9192 52.0567 68.1114 52.4791 68.309C52.4246 68.4119 52.4056 68.5337 52.4437 68.6501C52.6372 69.251 52.8307 69.8546 53.0351 70.4529C53.2232 70.9996 53.4412 71.5383 53.6838 72.0607C53.7247 72.1284 53.7792 72.1825 53.8473 72.2231C53.9509 72.2827 54.079 72.2989 54.1962 72.2691C54.3079 72.2394 54.406 72.1636 54.466 72.0634C54.5205 71.9714 54.5559 71.8225 54.5123 71.717C54.1089 70.7668 53.8091 69.7788 53.4984 68.7963C53.7901 68.9343 54.0817 69.0724 54.376 69.205C54.3951 69.2131 54.4142 69.2212 54.436 69.2294C54.4387 69.2862 54.4414 69.343 54.4469 69.3972C54.4605 69.5975 54.4769 69.7978 54.5014 69.9981C54.5396 70.3148 54.575 70.6315 54.6268 70.9482C54.6704 71.2053 54.7249 71.4652 54.8094 71.7115C54.8339 71.7819 54.8584 71.8523 54.883 71.9227C54.9211 72.0336 54.9729 72.1419 55.022 72.2502C55.0519 72.3016 55.0928 72.3422 55.1446 72.372C55.2236 72.418 55.3217 72.4316 55.409 72.4072C55.4962 72.3828 55.5698 72.326 55.6134 72.2502C55.657 72.1771 55.6788 72.0688 55.6488 71.9876C55.5044 71.6006 55.4117 71.2026 55.3545 70.7966C55.3027 70.3906 55.2591 69.9819 55.2264 69.5731C55.349 69.6246 55.4716 69.6733 55.5943 69.722C55.7496 70.4447 55.905 71.1702 56.1721 71.8577C56.2048 71.9416 56.2457 72.0093 56.3274 72.058C56.4065 72.104 56.4991 72.1148 56.5863 72.0905C56.7526 72.0445 56.8834 71.8496 56.8207 71.6791C56.6817 71.2974 56.5809 70.9103 56.4882 70.5151C56.4501 70.3527 56.4146 70.1903 56.3792 70.0279C56.5536 70.0901 56.7308 70.1524 56.9052 70.2146C56.9815 70.5341 57.0551 70.8535 57.1342 71.1729C57.1641 71.2974 57.3059 71.3705 57.4285 71.338C57.5593 71.3028 57.622 71.1729 57.5947 71.0456C57.5457 70.8291 57.4966 70.6126 57.4476 70.3933C57.6411 70.4556 57.8346 70.5124 58.0281 70.5638C58.1044 70.7831 58.1807 70.9996 58.2543 71.2189C58.2925 71.3245 58.396 71.3948 58.5105 71.3651C58.6168 71.3353 58.6876 71.2189 58.6549 71.1106C58.6113 70.9671 58.565 70.8264 58.5214 70.6856C58.6413 70.7127 58.7612 70.7398 58.8811 70.7641C58.8893 70.821 58.8948 70.8751 58.903 70.932C58.9411 71.1891 59.0011 71.4381 59.0719 71.6872C59.1401 71.9308 59.4017 72.0824 59.6497 72.012C59.7669 71.9795 59.8677 71.901 59.9304 71.7982C59.9986 71.6818 60.0013 71.5654 59.9768 71.4381C59.955 71.319 59.9359 71.1999 59.9168 71.0808C59.9114 71.0457 59.9114 71.0078 59.9059 70.9699C59.9877 70.9861 60.0722 71.0023 60.1539 71.0213C60.1893 71.0294 60.2275 71.0375 60.2629 71.0456C60.3093 71.246 60.3556 71.449 60.4074 71.6466C60.4292 71.7305 60.5218 71.7792 60.6036 71.7576C60.6881 71.7359 60.7372 71.6466 60.7154 71.5627C60.6772 71.4192 60.6472 71.273 60.6118 71.1269C60.6418 71.135 60.6717 71.1404 60.7017 71.1485C60.7998 71.3055 60.9715 71.4111 61.1678 71.4111C61.2795 71.4111 61.3831 71.3759 61.4703 71.319C61.5303 71.3299 61.5929 71.3461 61.6529 71.3569C61.8927 71.403 62.138 71.4138 62.3833 71.4111C62.4542 71.4111 62.5223 71.3948 62.585 71.3705C62.4787 71.5897 62.3888 71.8198 62.3043 72.0472C62.2171 72.2854 62.1435 72.529 62.0672 72.7726C61.9772 73.0623 61.9173 73.3573 61.8709 73.6578C61.4757 73.7823 61.0806 73.8987 60.6826 74.0151C60.3747 74.1071 60.064 74.1802 59.7506 74.256C59.0828 74.413 58.4097 74.5348 57.7365 74.662C57.0878 74.7865 56.4501 74.9381 55.8178 75.1167C55.5098 75.2034 55.2073 75.3116 54.9048 75.4199C54.5123 75.558 54.1444 75.7393 53.8064 75.9802C53.7683 76.0073 53.7301 76.0371 53.6974 76.0668C53.6838 76.075 53.6674 76.0777 53.6538 76.0858C53.5475 76.1481 53.4249 76.2753 53.4085 76.4052C53.3703 76.6759 53.3295 76.9466 53.2913 77.2173C53.2504 77.2173 53.2095 77.2173 53.1687 77.2173C53.2368 77.4961 53.1714 77.7911 53.1196 78.0753C53.106 78.1484 53.0924 78.2188 53.076 78.2919H53.1305C53.0542 78.7845 52.9779 79.2772 52.8934 79.7698C52.7135 80.7849 52.5255 81.7999 52.3265 82.8123C52.1276 83.8138 51.9313 84.8154 51.7351 85.8196C51.6343 86.3285 51.528 86.8401 51.4571 87.3517C51.3835 87.8903 51.3127 88.429 51.2418 88.965C51.2118 89.1896 51.1818 89.4116 51.1519 89.6363C51.1573 89.5929 51.1628 89.5523 51.1682 89.509C51.0755 90.1749 50.9584 90.8327 50.833 91.4932C50.7976 91.6826 50.7594 91.8694 50.7185 92.0562C50.3615 92.1157 50.0072 92.1753 49.6502 92.2267C49.0478 92.2998 48.4428 92.3702 47.835 92.3783C47.5707 92.381 47.3063 92.3864 47.0419 92.3837C47.1564 91.6014 47.2736 90.8219 47.4099 90.0423C47.6333 88.7728 47.8677 87.5033 48.0939 86.2338C48.2983 85.0833 48.5137 83.9356 48.729 82.7906L48.7344 82.7934ZM37.3394 86.97C37.3803 86.4449 37.4294 85.9225 37.473 85.4C37.5193 84.8587 37.552 84.3146 37.6011 83.7705C37.6529 83.2237 37.7074 82.6797 37.7728 82.1329C37.7891 82.003 37.8055 81.8757 37.8218 81.7485C37.9036 81.2044 37.9935 80.6631 38.0889 80.1217C38.1026 80.2002 38.1162 80.2787 38.1298 80.3572C38.2007 80.7686 38.2688 81.1828 38.3451 81.5942C38.4214 82.0084 38.5168 82.4198 38.6122 82.834C38.6994 83.2237 38.7921 83.6135 38.8738 84.0033C38.9611 84.4093 39.0401 84.8181 39.13 85.2268C39.3099 86.0551 39.4871 86.8834 39.6179 87.7198C39.6315 87.7983 39.6397 87.8768 39.6533 87.9526C39.6724 88.1042 39.686 88.2558 39.7024 88.4046C39.6424 88.4155 39.5825 88.4371 39.5389 88.4831C39.5334 88.4886 39.5279 88.4967 39.5225 88.5021C39.4571 88.1773 39.3917 87.8552 39.3208 87.533C39.2718 87.3165 39.0537 87.1757 38.8384 87.1757C38.7975 87.1757 38.7539 87.1812 38.7158 87.192C38.5931 87.2245 38.4868 87.3084 38.4214 87.4167C38.4133 87.4275 38.4105 87.441 38.4051 87.4518C38.3996 87.4437 38.3914 87.4356 38.3833 87.4302C38.3833 87.376 38.3778 87.3219 38.3778 87.2651C38.3696 87.0431 38.1979 86.8563 37.9663 86.8563C37.7482 86.8563 37.5466 87.0431 37.5547 87.2651C37.5547 87.2976 37.5547 87.3327 37.5575 87.3652C37.473 87.3652 37.3912 87.3706 37.3067 87.3733C37.3176 87.2407 37.3258 87.1054 37.334 86.9727L37.3394 86.97ZM36.4401 84.2009C36.4319 84.3011 36.4237 84.4039 36.4155 84.5041C36.4101 84.5041 36.4073 84.5041 36.4019 84.5041C36.4155 84.4039 36.4264 84.3038 36.4401 84.2036V84.2009ZM36.1539 86.6641C36.1839 86.3041 36.2247 85.9441 36.2683 85.5841C36.282 85.5841 36.2983 85.5895 36.312 85.5895C36.3201 85.5895 36.3256 85.5895 36.3338 85.5895C36.3065 85.9144 36.2792 86.2392 36.2547 86.564C36.2329 86.8401 36.2193 87.1162 36.2057 87.395C36.1784 87.395 36.1512 87.395 36.1212 87.395H36.1048C36.1184 87.1514 36.1321 86.9105 36.1512 86.6668L36.1539 86.6641ZM37.056 90.8029C37.0015 90.6026 36.8107 90.4591 36.6036 90.4591C36.3964 90.4591 36.2029 90.6026 36.1512 90.8029C36.1321 90.8733 36.1212 90.9464 36.1103 91.0222C36.0667 91.0167 36.0203 91.0086 35.9767 91.0032C35.587 90.9518 35.1945 90.9085 34.8021 90.8679C34.7939 90.5891 34.7912 90.313 34.7884 90.0342C34.7884 89.9773 34.7884 89.9205 34.7939 89.8609C35.061 89.8934 35.3254 89.9259 35.5924 89.9584C35.666 89.9692 35.7532 89.9205 35.8023 89.8718C35.8595 89.8176 35.8895 89.7391 35.8895 89.6633C35.8895 89.5875 35.8568 89.509 35.8023 89.4522C35.7832 89.436 35.7614 89.4224 35.7423 89.4062C35.696 89.3791 35.6442 89.3656 35.5924 89.3656C35.3363 89.3331 35.0773 89.3006 34.8184 89.2681C34.8266 89.1057 34.8375 88.946 34.8484 88.7836C34.8675 88.5454 34.8866 88.3099 34.9056 88.0717V88.0582C35.1264 88.0501 35.3472 88.0392 35.5679 88.0311C35.5652 88.1773 35.5652 88.3234 35.5679 88.4696C35.5679 88.6022 35.6769 88.7132 35.8132 88.7132C35.9495 88.7132 36.0503 88.6022 36.0585 88.4696C36.0694 88.318 36.0748 88.1664 36.0803 88.0149C36.1184 88.0149 36.1566 88.0149 36.192 88.0122C36.192 88.0365 36.192 88.0582 36.192 88.0825C36.1948 88.3072 36.2356 88.5319 36.282 88.7511C36.3256 88.9514 36.5354 89.0922 36.7344 89.0922C36.8189 89.0922 36.8979 89.0705 36.9715 89.0299C37.0669 88.9758 37.1677 88.8648 37.1868 88.7511C37.2168 88.5589 37.2468 88.3667 37.2631 88.1719C37.2686 88.1069 37.2713 88.0392 37.2768 87.9743C37.3803 87.9716 37.4866 87.9661 37.5902 87.9634C37.6093 88.4804 37.6283 88.9974 37.6501 89.5145C37.661 89.8122 37.6801 90.1072 37.6937 90.405C37.7074 90.6757 37.7237 90.9491 37.7619 91.2171L37.7564 91.1819C37.7591 91.2089 37.7646 91.2333 37.7673 91.2604C37.552 91.2279 37.334 91.1981 37.116 91.1656C37.1078 91.0438 37.0914 90.922 37.0614 90.8056L37.056 90.8029ZM40.3238 106.416C40.3074 106.879 40.2938 107.342 40.272 107.805C40.2502 108.23 40.2202 108.652 40.2011 109.077C40.1602 109.978 40.1139 110.88 40.0785 111.781C40.073 111.924 40.0703 112.065 40.0676 112.209C40.0294 112.195 39.9885 112.187 39.9449 112.187C39.9095 112.187 39.8741 112.192 39.8386 112.201C39.6179 112.26 39.498 112.487 39.5525 112.701C39.6588 113.129 39.7269 113.562 39.7923 113.998C39.9504 115.82 39.9885 117.649 40.0649 119.474C39.9558 119.398 39.8495 119.322 39.7405 119.249C39.5443 119.119 39.3453 118.989 39.1464 118.859C38.7839 118.624 38.4187 118.391 38.0508 118.166C37.8682 118.055 37.6828 117.95 37.4948 117.844C37.3776 117.777 37.2549 117.714 37.135 117.655C37.1487 117.606 37.1596 117.557 37.1596 117.506C37.1596 115.725 37.1732 113.944 37.1814 112.163C37.1895 110.468 37.2004 108.774 37.2141 107.079C37.2277 105.458 37.2386 103.839 37.2522 102.22C37.2659 100.607 37.244 98.9911 37.2331 97.3778C37.225 96.2193 37.195 95.0608 37.1732 93.8995C37.1623 93.3988 37.1514 92.898 37.1432 92.3972C37.1432 92.3052 37.1405 92.2105 37.1378 92.1184C37.3476 92.1536 37.5602 92.1861 37.7701 92.2159C37.9309 92.2375 38.0889 92.2565 38.2497 92.2673C38.4214 92.2781 38.5904 92.2781 38.7621 92.2727C38.9556 92.2673 39.13 92.1428 39.1818 91.956C39.2118 91.845 39.1982 91.7232 39.1382 91.6231C39.0864 91.5365 38.9829 91.439 38.8766 91.4255C38.7648 91.4092 38.6558 91.393 38.5441 91.3741C38.5277 91.1007 38.5168 90.83 38.5059 90.5566C38.4923 90.2318 38.4814 89.9069 38.4678 89.5821C38.446 89.038 38.4269 88.4913 38.4051 87.9472C38.5332 88.5373 38.6531 89.1247 38.7703 89.7175C38.8793 90.267 39.0019 90.8137 39.1627 91.3497C39.2309 91.5744 39.4653 91.7124 39.6969 91.6502C39.7133 91.6447 39.7296 91.6393 39.746 91.6312C39.7869 92.1563 39.8277 92.6815 39.8441 93.2093C39.8659 93.9483 39.8795 94.6845 39.8795 95.4235C39.8795 96.157 39.8768 96.8906 39.8741 97.6215C39.8741 97.9842 39.8741 98.3496 39.8741 98.7123C39.8741 99.0534 39.8741 99.3944 39.8877 99.7328C39.915 100.477 39.9504 101.222 39.9967 101.963C40.0185 102.321 40.0431 102.675 40.073 103.03C40.1003 103.368 40.1357 103.706 40.1684 104.048C40.2366 104.735 40.2965 105.423 40.3374 106.113C40.3347 106.213 40.3292 106.313 40.3265 106.413L40.3238 106.416ZM44.848 120.234C44.0058 120.251 43.1609 120.267 42.3188 120.275C42.0217 120.275 41.7246 120.275 41.4276 120.28C41.3867 120.28 41.3485 120.28 41.3076 120.28C41.3213 120.004 41.3376 119.728 41.3513 119.449C41.3867 118.74 41.4085 118.031 41.403 117.322C41.3949 115.903 41.3513 114.488 41.3158 113.069C41.2967 112.339 41.2804 111.608 41.2668 110.874C41.2531 110.149 41.2286 109.423 41.1905 108.698C41.155 108.021 41.106 107.344 41.0705 106.668C41.0542 106.389 41.0378 106.11 41.0215 105.831C41.046 105.447 41.0733 105.063 41.0978 104.678C41.125 104.229 41.1414 103.777 41.1496 103.325C41.1687 102.429 41.185 101.533 41.1741 100.634C41.1632 99.749 41.1414 98.8639 41.1223 97.9788C41.1087 97.3616 41.0896 96.7444 41.0705 96.13C41.076 95.7104 41.0787 95.2936 41.0814 94.874C41.0814 93.748 41.0923 92.6192 41.0951 91.4932C41.0951 90.8164 41.1005 90.1397 41.0951 89.463C41.0923 89.1436 41.0869 88.8215 41.0814 88.4994C41.0814 88.3343 41.076 88.1691 41.0733 88.004C41.0705 87.8362 41.0787 87.6548 40.986 87.506C40.8879 87.349 40.7217 87.2488 40.5336 87.2488C40.52 87.2488 40.5091 87.2542 40.4955 87.2542C40.4846 87.1757 40.4791 87.0972 40.4682 87.0214C40.3429 86.1011 40.2039 85.1808 40.054 84.2632C39.9776 83.803 39.8877 83.3428 39.7978 82.8827C39.716 82.455 39.6261 82.03 39.5252 81.6078C39.3699 80.9527 39.2173 80.2976 39.0674 79.6399C39.0483 79.5235 39.0292 79.4044 39.0074 79.288C38.9502 78.9551 38.8902 78.6221 38.8302 78.2892C39.1791 78.3433 39.5279 78.3947 39.8795 78.4435C39.8577 78.4922 39.8468 78.5436 39.8523 78.5923C39.8904 78.8955 39.9231 79.2014 39.9776 79.5018C40.0267 79.7671 40.0812 80.0324 40.133 80.2976C40.2257 80.7876 40.3156 81.2775 40.4137 81.7648C40.4655 82.0219 40.5173 82.2791 40.5663 82.5362C40.6099 82.7717 40.6426 83.0099 40.6808 83.2454C40.7598 83.7543 40.8416 84.2605 40.9343 84.7666C41.0106 85.1862 41.0787 85.6085 41.155 86.028C41.2395 86.4828 41.3267 86.9375 41.4139 87.3896C41.5747 88.2314 41.7355 89.0759 41.8527 89.9259C41.9181 90.4158 41.9835 90.9085 42.049 91.3984C42.1198 91.9344 42.1771 92.473 42.2479 93.0117C42.3215 93.5504 42.4142 94.0863 42.5041 94.6223C42.5859 95.123 42.6595 95.6238 42.7303 96.1273C42.7439 96.2247 42.7576 96.3222 42.7712 96.4196C42.8366 96.9123 42.902 97.4076 42.9265 97.9057C42.932 98.0491 42.9347 98.1899 42.9402 98.3334C42.9402 98.4146 42.9402 98.4958 42.9402 98.577C42.9184 99.5081 42.8966 100.437 42.8829 101.368C42.872 102.266 42.872 103.165 42.8639 104.061C42.8557 104.943 42.8148 105.826 42.7794 106.706V106.733C42.7249 107.436 42.6649 108.14 42.6049 108.847C42.515 109.916 42.4251 110.985 42.3351 112.054C42.2506 113.061 42.1144 114.063 42.1089 115.072C42.1089 115.251 42.1089 115.427 42.1225 115.606C42.1362 115.811 42.1743 116.014 42.2288 116.209C42.2288 116.226 42.2288 116.242 42.2288 116.261C42.2343 116.404 42.2452 116.548 42.2724 116.691C42.3106 116.883 42.4251 117.048 42.5586 117.192C42.6704 117.311 42.8203 117.403 42.9674 117.473C43.0928 117.533 43.2291 117.574 43.3626 117.611C43.4907 117.649 43.6243 117.682 43.7551 117.714C43.9459 117.801 44.1366 117.89 44.3111 118.004C44.371 118.055 44.4255 118.11 44.4773 118.169C44.5809 118.318 44.6599 118.472 44.7362 118.635C44.8698 119 44.9679 119.371 45.0578 119.75C45.096 119.91 45.1287 120.069 45.1641 120.229C45.0633 120.229 44.9624 120.232 44.8616 120.234H44.848ZM41.3785 82.1004C41.5339 82.6986 41.6756 83.2995 41.8146 83.9005C41.9617 84.5339 42.0844 85.1727 42.1852 85.8169C42.2861 86.4584 42.3842 87.1027 42.4769 87.7469C42.4987 87.9093 42.5123 88.069 42.5314 88.2314C42.4196 87.69 42.3024 87.1487 42.188 86.6073C41.9754 85.5868 41.7846 84.5609 41.6156 83.5323C41.5366 83.0532 41.4684 82.5741 41.3758 82.0977L41.3785 82.1004ZM80.6872 125.413C80.6872 125.413 80.6709 125.415 80.6627 125.418C80.6245 125.434 80.5864 125.445 80.551 125.467C80.5537 125.405 80.5591 125.34 80.5619 125.277C80.6 125.299 80.6436 125.315 80.6872 125.321C80.6872 125.35 80.6872 125.383 80.6872 125.413ZM81.5921 121.517C81.5539 121.436 81.464 121.377 81.3795 121.347C81.4476 121.328 81.5103 121.296 81.5566 121.241C81.5566 121.25 81.5594 121.258 81.5621 121.266C81.5784 121.363 81.5948 121.458 81.6111 121.555C81.6057 121.542 81.5975 121.528 81.5921 121.517ZM132.612 118.84C132.5 118.775 132.369 118.735 132.247 118.743C132.151 118.732 132.056 118.735 131.961 118.735C131.881 118.735 131.8 118.738 131.721 118.735C131.642 118.729 131.565 118.729 131.486 118.729C131.462 118.729 131.437 118.729 131.413 118.729C131.326 118.729 131.241 118.721 131.154 118.719C131.165 118.719 131.173 118.719 131.184 118.724C131.127 118.716 131.069 118.713 131.009 118.713C130.979 118.713 130.947 118.713 130.917 118.713C130.707 118.746 130.492 118.748 130.279 118.727C130.178 118.716 130.077 118.7 129.979 118.681C129.824 118.648 129.666 118.613 129.516 118.562C129.486 118.551 129.459 118.543 129.429 118.532C129.423 118.599 129.42 118.67 129.415 118.738C128.818 118.746 128.224 118.756 127.627 118.77C126.21 118.797 124.79 118.83 123.373 118.862C120.538 118.924 117.701 118.976 114.867 119.038C109.405 119.157 103.946 119.29 98.4842 119.422C98.1762 119.428 97.8655 119.433 97.5576 119.439C91.7742 119.541 85.9909 119.65 80.2075 119.739C80.1285 119.658 80.0168 119.606 79.8969 119.606C79.7769 119.606 79.657 119.663 79.5753 119.75C73.8301 119.839 68.0822 119.931 62.337 120.002C60.2439 120.026 58.1535 120.058 56.0603 120.091C54.0354 120.123 52.0131 120.145 49.9908 120.167C48.748 120.18 47.508 120.197 46.2652 120.215C46.2652 120.178 46.2597 120.14 46.257 120.102C46.2488 120.01 46.2434 119.92 46.2379 119.828C46.2298 119.669 46.2216 119.509 46.2107 119.349C46.197 119.163 46.1807 118.973 46.1507 118.789C46.1371 118.7 46.1207 118.61 46.1017 118.521C46.069 118.353 46.0008 118.193 45.9354 118.036C45.8509 117.844 45.7119 117.676 45.5593 117.533C45.3631 117.349 45.1205 117.235 44.867 117.154C44.7689 117.122 44.6654 117.103 44.5618 117.081C44.4364 117.011 44.3083 116.951 44.1802 116.891C44.0167 116.816 43.845 116.751 43.6788 116.686C43.6052 116.651 43.5343 116.613 43.4662 116.567C43.4253 116.529 43.3871 116.491 43.349 116.45C43.3027 116.383 43.2645 116.312 43.2291 116.236C43.1718 116.082 43.1282 115.928 43.0982 115.765C43.0683 115.476 43.0792 115.175 43.0982 114.886C43.1119 114.618 43.131 114.35 43.1582 114.082C43.2073 113.562 43.2754 113.045 43.3381 112.525C43.3953 112.041 43.4335 111.554 43.4798 111.069C43.5316 110.517 43.5861 109.965 43.6406 109.415C43.7442 108.37 43.8668 107.328 43.9595 106.281C44.0521 105.249 44.0739 104.218 44.0794 103.184C44.0821 102.155 44.0712 101.127 44.063 100.098C44.0603 99.5839 44.063 99.0669 44.0467 98.5526C44.0385 98.2792 44.0276 98.0058 44.0058 97.7324C43.984 97.4455 43.9486 97.1613 43.9104 96.8744C43.8368 96.3195 43.7496 95.77 43.6597 95.2178C43.6597 95.0608 43.6542 94.9065 43.6542 94.7495C43.6433 93.8698 43.6406 92.9927 43.6025 92.113C43.5616 91.171 43.5016 90.2291 43.4226 89.2871C43.3871 88.854 43.3408 88.4209 43.2863 87.9905C43.2263 87.5168 43.1528 87.0458 43.0764 86.5748C43.0056 86.1282 42.9374 85.6816 42.8584 85.2376C42.7794 84.7856 42.6894 84.339 42.5913 83.8896C42.4959 83.4565 42.4005 83.0261 42.297 82.5958C42.1961 82.16 42.0953 81.7269 41.9699 81.2965C41.8418 80.8607 41.7001 80.4276 41.5638 79.9972C41.4167 79.5343 41.264 79.0714 41.1114 78.6086C41.1005 78.5761 41.0896 78.5436 41.0787 78.5111C41.1359 78.4705 41.1823 78.4137 41.2014 78.3433C41.2095 78.3108 41.2095 78.281 41.2068 78.2486C43.379 78.254 45.5538 78.2675 47.726 78.2729H48.3501C48.2629 78.8089 48.173 79.3421 48.0858 79.8781C47.8759 81.1341 47.6742 82.3927 47.478 83.6514C47.2954 84.837 47.1128 86.0226 46.9275 87.2082C46.734 88.4398 46.5268 89.6742 46.3497 90.9085C46.2788 91.3957 46.2079 91.8857 46.1371 92.3729C45.8863 92.3702 45.6383 92.3648 45.3903 92.3621C45.1423 92.3593 44.9352 92.5705 44.9352 92.8141C44.9352 92.9955 45.0442 93.147 45.1995 93.2201C45.1968 93.2472 45.1914 93.277 45.1914 93.304C45.1886 93.3609 45.1886 93.415 45.1886 93.4719C45.1886 93.5855 45.1886 93.6992 45.1886 93.8156C45.1886 93.9807 45.1968 94.1432 45.2023 94.3083C45.2132 94.6791 45.2377 95.05 45.2568 95.4181C45.2922 96.1029 45.3222 96.785 45.3549 97.4699C45.3876 98.1574 45.4176 98.8477 45.4694 99.5352C45.5239 100.244 45.5539 100.954 45.5866 101.663C45.5947 101.814 45.6002 101.969 45.622 102.12C45.6274 102.161 45.6356 102.204 45.6411 102.245C45.5538 102.266 45.4721 102.304 45.4012 102.375C45.3031 102.472 45.2486 102.605 45.2486 102.743C45.2486 102.881 45.3031 103.013 45.4012 103.111C45.4939 103.2 45.6411 103.276 45.7719 103.263C46.8702 103.17 47.9686 103.084 49.0696 103.013C49.5793 102.981 50.0917 102.949 50.6013 102.93C51.0837 102.911 51.5634 102.903 52.0458 102.862C52.272 102.843 52.4982 102.808 52.7244 102.775C52.7926 102.756 52.8525 102.721 52.9043 102.672C52.9806 102.597 53.0242 102.494 53.0242 102.388C53.0242 102.283 52.9806 102.177 52.9043 102.104C52.8225 102.023 52.7272 101.996 52.6181 101.985C52.3483 101.961 52.084 101.928 51.8141 101.92C51.5743 101.912 51.3345 101.909 51.0974 101.909C50.6122 101.909 50.1244 101.92 49.6393 101.944C48.5954 101.993 47.5516 102.077 46.5105 102.164C46.4396 102.169 46.3715 102.174 46.3006 102.18C46.2952 101.971 46.3006 101.763 46.3006 101.554C46.3006 101.219 46.3006 100.886 46.2952 100.55C46.2815 99.8384 46.2488 99.1292 46.2025 98.42C46.1562 97.7378 46.1017 97.0557 46.0444 96.3736C45.9981 95.8376 45.9463 95.299 45.9027 94.763C45.9136 94.7549 45.9272 94.7441 45.9381 94.7333C45.979 94.6926 46.0199 94.6196 46.0117 94.5573C45.9817 94.3299 45.949 94.1026 45.9191 93.8752C45.9054 93.7669 45.8918 93.6559 45.8754 93.5477C45.8645 93.4556 45.8536 93.3636 45.84 93.2743C45.8973 93.2743 45.9518 93.2743 46.009 93.277C45.9899 93.4042 45.9736 93.5287 45.9545 93.6559C45.9354 93.7831 45.9327 93.8914 46.0008 94.0078C46.0608 94.1107 46.1616 94.1865 46.2761 94.2189C46.396 94.2514 46.5241 94.2352 46.6304 94.1729C46.7231 94.1188 46.8239 94.0105 46.8402 93.8995C46.8702 93.6965 46.9002 93.4935 46.9302 93.2878C47.5679 93.2905 48.2057 93.2797 48.8407 93.2228C49.394 93.1741 49.9445 93.1064 50.495 93.0361C50.4623 93.1822 50.4405 93.3311 50.4432 93.4854C50.446 93.6586 50.5604 93.8102 50.7294 93.8589C50.9447 93.9185 51.1382 93.7886 51.2091 93.5883C51.2854 93.3717 51.3317 93.1443 51.3944 92.9251C51.5361 92.9061 51.6806 92.8899 51.8223 92.8709C52.1684 92.8303 52.5118 92.7762 52.8552 92.7221C52.9261 92.7031 52.9861 92.6652 53.0406 92.6165C53.0215 92.6679 53.0079 92.7248 53.0051 92.7816C52.9806 93.8183 52.9779 94.8605 53.0024 95.8972C53.0242 96.9258 53.0597 97.9544 53.0869 98.9803C53.1196 100.236 53.1496 101.492 53.185 102.746C53.1932 102.992 53.3867 103.195 53.6374 103.195C53.8882 103.195 54.098 102.989 54.0899 102.746C54.0272 100.52 53.9808 98.2982 53.9699 96.0731C53.9699 95.5318 53.9699 94.9904 53.9754 94.449C53.9808 93.8941 53.9945 93.3365 53.9618 92.7789C53.9536 92.649 53.9154 92.5353 53.82 92.4433C53.7301 92.3539 53.6075 92.3052 53.4821 92.3052C53.3567 92.3052 53.2395 92.3566 53.155 92.4378C53.1714 92.3891 53.1823 92.3404 53.1823 92.289C53.1823 92.0535 52.9833 91.8423 52.7435 91.8423H52.7326C52.441 91.8505 52.1521 91.8586 51.8632 91.8856C51.7951 91.8911 51.7269 91.9019 51.6615 91.91C51.7569 91.5202 51.8441 91.1277 51.9286 90.7379C52.0349 90.248 52.1139 89.7527 52.1984 89.2573C52.2856 88.7511 52.3728 88.2422 52.4601 87.7361C52.6263 86.7589 52.8716 85.7952 53.0678 84.8235C53.2695 83.8328 53.4685 82.8421 53.6456 81.8487C53.8582 80.6658 54.0463 79.4802 54.2261 78.2946C54.8557 78.2946 55.4853 78.2973 56.1148 78.3C58.9111 78.3081 61.7101 78.3081 64.5064 78.3216C67.2673 78.3352 70.0281 78.3568 72.789 78.365C78.3706 78.3785 83.9523 78.4056 89.5339 78.4083C95.0638 78.411 100.591 78.4353 106.121 78.4435C108.279 78.4462 110.438 78.4516 112.596 78.4516C113.569 78.4516 114.542 78.4489 115.515 78.4435C115.949 78.4435 116.382 78.4407 116.813 78.438C117.211 78.438 117.608 78.4191 118.006 78.4164C118.906 78.4029 119.808 78.4137 120.71 78.3974C121.558 78.3839 122.405 78.3839 123.253 78.3812C123.604 78.3812 123.953 78.3812 124.305 78.3812C124.52 78.3812 124.735 78.3812 124.951 78.3758C125.106 78.3758 125.264 78.3677 125.42 78.3704C125.787 78.3785 126.158 78.3704 126.529 78.3568C126.651 78.3541 126.774 78.3514 126.897 78.3514C127.006 78.3514 127.126 78.3568 127.232 78.3325H127.284C127.281 78.6194 127.276 78.9063 127.273 79.1905H127.276C127.344 79.1743 127.415 79.1635 127.488 79.1635C127.643 79.1635 127.788 79.2041 127.924 79.2799C128.175 79.3909 128.295 79.6805 128.428 79.9024C128.521 80.0594 128.614 80.2164 128.704 80.3734L128.709 80.3816C128.785 80.5169 128.862 80.6522 128.935 80.793C128.93 80.6577 128.927 80.5196 128.919 80.3843C128.914 80.2652 128.908 80.1461 128.903 80.0297C129.121 80.3464 129.339 80.6604 129.554 80.9771C130.23 81.9678 130.947 82.9341 131.503 84.0006C131.704 84.385 131.895 84.7721 132.072 85.1673C132.282 85.6843 132.454 86.2175 132.601 86.7562C132.669 87.0377 132.735 87.3219 132.786 87.6061C132.854 87.9824 132.92 88.3559 132.983 88.7349C133.018 88.9568 133.051 89.1761 133.083 89.3981C133.122 89.7012 133.162 90.0071 133.187 90.313C133.195 90.4023 133.201 90.4889 133.206 90.5755C133.206 91.4932 133.214 92.4081 133.214 93.3257C133.217 95.2854 133.222 97.2479 133.225 99.2077C133.225 103.168 133.201 107.125 133.203 111.085C133.203 113.465 133.211 115.844 133.211 118.223C133.211 118.323 133.236 118.418 133.28 118.505C133.282 118.635 133.288 118.765 133.291 118.897C133.07 118.859 132.846 118.838 132.623 118.83L132.612 118.84Z" fill="#181133"></path><path d="M50.8664 96.5049C50.7574 96.3885 50.6239 96.2856 50.493 96.1936C50.4849 96.1882 50.4794 96.1828 50.4712 96.1801C50.5012 96.0122 50.4004 95.8282 50.2587 95.747C50.1987 95.7118 50.1306 95.6955 50.0624 95.6901C50.0869 95.5818 50.0788 95.4682 50.0188 95.3653C49.937 95.2245 49.779 95.1406 49.6209 95.1406C49.5446 95.1406 49.4683 95.1596 49.3974 95.2029C49.1549 95.3518 48.9068 95.5033 48.6752 95.6712C48.6343 95.6874 48.5934 95.7037 48.5553 95.7226C48.4844 95.7524 48.4244 95.7903 48.3618 95.8336C48.2555 95.9067 48.171 95.9906 48.1192 96.1016C48.002 96.2071 47.9066 96.3316 47.8085 96.4589C47.6995 96.6023 47.6313 96.7701 47.5632 96.9353C47.4378 97.2438 47.4378 97.593 47.4896 97.9151C47.5169 98.0857 47.555 98.2454 47.6232 98.4078C47.7049 98.5973 47.7976 98.7651 47.9257 98.9302C48.1383 99.2009 48.4163 99.4229 48.7161 99.5907C49.0513 99.7802 49.4356 99.8911 49.8199 99.8776C49.9888 99.8722 50.1605 99.8343 50.3186 99.7775C50.523 99.7017 50.6865 99.5853 50.8555 99.4499C51.0027 99.3308 51.1172 99.1657 51.2207 99.0114C51.327 98.8571 51.4006 98.6758 51.4551 98.4971C51.5069 98.3401 51.5178 98.1615 51.5205 97.9964C51.526 97.8096 51.4851 97.612 51.4333 97.4306C51.3325 97.076 51.1172 96.7674 50.8664 96.4995V96.5049ZM50.4522 98.175C50.4385 98.2346 50.4222 98.2941 50.4031 98.3536C50.3622 98.4349 50.3186 98.5106 50.2668 98.5864C50.2178 98.6433 50.166 98.6974 50.1088 98.7461C50.0679 98.7732 50.027 98.7976 49.9834 98.8192C49.9343 98.8355 49.8853 98.849 49.8335 98.8598C49.7599 98.8652 49.689 98.8652 49.6182 98.8598C49.5173 98.8382 49.4192 98.8084 49.3238 98.7732C49.1767 98.7028 49.0404 98.6243 48.9068 98.5296C48.8196 98.4565 48.7379 98.378 48.6616 98.2914C48.6016 98.2048 48.5498 98.1155 48.5035 98.0207C48.4626 97.9016 48.4326 97.7825 48.4108 97.658C48.4054 97.5741 48.4026 97.4902 48.4081 97.4063C48.4244 97.3196 48.449 97.233 48.4762 97.1491C48.5117 97.076 48.5498 97.0084 48.5961 96.9407C48.7242 96.9542 48.8496 96.9244 48.9668 96.8649C48.9777 96.8595 48.9859 96.8541 48.9968 96.8486H49.0104C49.0513 96.8432 49.0922 96.8432 49.1303 96.8486C49.1712 96.8568 49.2094 96.873 49.2502 96.8838C49.1003 97.2547 48.9586 97.6255 48.8169 97.9991C48.7733 98.11 48.806 98.2562 48.8632 98.3564C48.9232 98.4592 49.024 98.5377 49.1412 98.5702C49.2611 98.6027 49.392 98.5864 49.501 98.5242C49.6127 98.4592 49.67 98.3645 49.7163 98.2481C49.8335 97.9368 49.948 97.6228 50.0651 97.3088C50.1333 97.3711 50.2014 97.4333 50.2641 97.5037C50.3104 97.5714 50.354 97.6418 50.3895 97.7175C50.4167 97.796 50.4385 97.8772 50.4549 97.9585C50.4576 98.0342 50.4576 98.11 50.4522 98.1858V98.175Z" fill="#181133"></path><path d="M125.347 90.5469H125.339C124.982 90.5658 124.622 90.5712 124.262 90.5821C123.81 90.5929 123.36 90.5983 122.908 90.6118C121.951 90.6362 120.997 90.6633 120.041 90.6903C117.969 90.7499 115.898 90.8094 113.824 90.8717C111.777 90.9339 109.728 90.9881 107.678 91.0449C105.514 91.1072 103.347 91.1722 101.183 91.2263C99.0631 91.2804 96.9427 91.3454 94.8224 91.4076C92.6911 91.4699 90.5571 91.5295 88.4258 91.5917C86.2564 91.6567 84.0869 91.7271 81.9202 91.7947C79.7263 91.8624 77.535 91.9328 75.3411 92.0004C69.3261 92.1899 63.3138 92.3686 57.2988 92.5472C57.1625 92.5526 57.0508 92.6555 57.0508 92.7936C57.0508 92.9316 57.1625 93.0453 57.2988 93.0399C61.6567 92.9099 66.0147 92.7692 70.3754 92.6447C74.736 92.5202 79.0967 92.3956 83.4574 92.2684C85.6213 92.2035 87.7853 92.1466 89.9466 92.0762C92.0697 92.0086 94.1955 91.9409 96.3186 91.8759C97.3979 91.8435 98.4799 91.8083 99.5619 91.7758C100.6 91.7433 101.641 91.7054 102.68 91.6702C104.852 91.5971 107.021 91.5349 109.193 91.4645C112.031 91.3725 114.868 91.2831 117.705 91.1965C119.057 91.1559 120.409 91.1153 121.758 91.0693C122.376 91.0476 122.995 91.0314 123.614 91.0043C123.954 90.9908 124.295 90.9773 124.636 90.9664C124.87 90.9583 125.102 90.9502 125.336 90.9475C125.445 90.9475 125.538 90.8582 125.538 90.7472C125.538 90.647 125.451 90.5469 125.347 90.5469Z" fill="#181133"></path><path d="M109.964 61.769C111.21 59.9771 112.477 58.2014 113.706 56.3987C114.229 55.6326 114.766 54.8774 115.27 54.0978C115.756 53.348 116.216 52.582 116.666 51.8106C116.739 51.6806 116.827 51.5588 116.908 51.4343C117.17 51.0364 117.426 50.6385 117.682 50.2379C117.988 49.7588 118.279 49.2742 118.606 48.8114C118.876 48.4297 119.141 48.048 119.405 47.6664C119.552 47.4498 119.691 47.2252 119.852 47.0167C120.269 46.4699 120.68 45.9205 121.089 45.3656C121.405 44.9676 121.719 44.567 122.027 44.1637C122.438 43.6521 122.847 43.1378 123.248 42.6181C123.362 42.4746 123.474 42.3285 123.586 42.1823C123.665 42.0849 123.741 41.9874 123.817 41.8873L123.809 41.8981C123.872 41.8196 123.932 41.7438 124.005 41.6734C124.019 41.6653 124.033 41.6572 124.046 41.6518L124.093 41.6653C124.093 41.6653 124.095 41.6653 124.093 41.6653C124.065 41.6409 124.033 41.6328 124 41.6328C123.885 41.6328 123.752 41.7438 123.665 41.7925C123.501 41.8873 123.34 41.9874 123.182 42.0876C122.88 42.2825 122.58 42.4828 122.283 42.6885C121.648 43.127 121.021 43.5763 120.4 44.0338C119.726 44.5318 119.072 45.0543 118.421 45.5767C117.83 46.0504 117.268 46.5674 116.704 47.0736C116.203 47.5202 115.736 47.9912 115.268 48.473C114.815 48.9386 114.338 49.3933 113.927 49.8968C113.229 50.7549 112.542 51.6211 111.894 52.517C111.654 52.85 111.419 53.1883 111.188 53.5267C110.836 54.041 110.539 54.5959 110.237 55.14C109.19 57.0293 108.293 59.0216 107.615 61.0707C106.952 63.0737 106.495 65.1363 106.148 67.2152C106.148 67.2152 106.148 67.2179 106.151 67.2152C107.448 65.4179 108.699 63.5907 109.964 61.7717V61.769Z" fill="#181133"></path><path d="M83.5304 52.6428C83.3696 52.1447 83.187 51.6548 82.9962 51.1649C82.8082 50.6858 82.6201 50.1958 82.4021 49.7275C81.797 48.4337 81.1729 47.1398 80.4697 45.8919C79.6985 44.5223 78.8999 43.1688 78.0768 41.829C77.6925 41.201 77.3164 40.5649 76.8913 39.9612C76.5997 39.5444 76.3026 39.1302 76.0055 38.7161C75.8093 38.4427 75.5885 38.1883 75.3732 37.9311C75.068 37.5684 74.7518 37.2165 74.4248 36.8727C74.0868 36.5181 73.7134 36.2014 73.3673 35.8577C73.3537 35.8414 73.3428 35.8252 73.3291 35.8089C73.3237 35.7954 73.321 35.7792 73.3155 35.7656H73.3128C73.3073 35.8739 73.3782 35.9632 73.4273 36.0525C73.4818 36.15 73.5445 36.242 73.6044 36.3368C73.7053 36.4938 73.8034 36.6508 73.9015 36.8078C74.1059 37.1299 74.3076 37.452 74.5147 37.7741C74.7218 38.0962 74.9017 38.44 75.1007 38.7702C75.256 39.0301 75.3841 39.3008 75.5177 39.5714C75.7166 39.9694 75.9156 40.3646 76.12 40.7598C76.2508 41.0115 76.3516 41.2849 76.4661 41.5447C76.7632 42.2133 77.0712 42.8765 77.3709 43.5424C77.9596 44.8471 78.5865 46.1328 79.1915 47.4294C79.6085 48.3227 80.0446 49.2051 80.4997 50.0821C81.1102 51.2596 81.6826 52.4587 82.2058 53.6768C82.7727 55.0302 83.2633 56.4161 83.6885 57.8183C84.1191 59.2394 84.438 60.6848 84.6832 62.1465H84.686C84.765 61.0936 84.7895 60.0352 84.7296 58.9795C84.6669 57.8968 84.5197 56.8168 84.3235 55.7503C84.13 54.6973 83.8602 53.6606 83.5304 52.6428Z" fill="#181133"></path><path d="M35.0111 46.6907C35.439 46.8585 35.8696 47.0264 36.3002 47.1888C36.6109 47.3079 36.927 47.4134 37.235 47.5407C39.1919 48.369 41.1024 49.2893 42.9475 50.3395C43.8987 50.8809 44.8444 51.4331 45.7765 52.0043C46.6977 52.5673 47.5971 53.1682 48.5046 53.7529C49.8619 54.6299 51.2137 55.515 52.6009 56.3433C53.1842 56.6925 53.7565 57.0552 54.3397 57.4044C55.1301 57.8781 55.9287 58.3383 56.7272 58.7957C56.7272 58.7957 56.7299 58.7957 56.7272 58.7957C56.1058 58.0757 55.4708 57.3719 54.8221 56.6736C54.3643 56.1809 53.9091 55.6801 53.4322 55.2065C52.2057 53.9911 50.9602 52.7784 49.6329 51.6686C47.9132 50.2286 46.0844 48.9157 44.0595 47.9305C42.0127 46.9316 39.8569 46.1845 37.6438 45.6594C36.213 45.3183 34.7549 45.1207 33.3077 44.8609C32.6291 44.7391 31.9477 44.6281 31.2663 44.5171C30.664 44.4197 30.0644 44.3087 29.4648 44.2031C29.7483 44.3926 30.0263 44.5848 30.3288 44.7445C30.6449 44.9123 30.9693 45.0693 31.2963 45.2209C31.9041 45.4997 32.5255 45.7514 33.1496 45.9923C33.7683 46.2333 34.3951 46.4471 35.0111 46.6907Z" fill="#181133"></path><path d="M142.833 16.0148C142.782 15.985 142.724 15.9688 142.667 15.9688C142.553 15.9688 142.441 16.0283 142.375 16.1339C142.231 16.3612 142.114 16.6049 142.018 16.8539C141.964 16.8025 141.899 16.7673 141.822 16.7375C141.667 16.6807 141.509 16.6346 141.351 16.5886C141.291 16.5724 141.225 16.5615 141.163 16.548C141.1 16.5345 141.035 16.5155 140.972 16.5074C140.688 16.4668 140.402 16.4235 140.116 16.3937C139.857 16.3667 139.598 16.3396 139.337 16.3179C139.086 16.299 138.832 16.2719 138.579 16.2611C138.067 16.2421 137.557 16.2097 137.045 16.207C136.666 16.207 136.287 16.2015 135.908 16.2015C135.755 16.2015 135.603 16.2015 135.45 16.2015C134.259 16.2151 133.071 16.2313 131.88 16.2557C130.806 16.2746 129.735 16.3206 128.664 16.3558C128.201 16.3721 127.737 16.4127 127.274 16.4397C126.802 16.4695 126.328 16.4885 125.857 16.5291C124.829 16.6184 123.802 16.705 122.772 16.7943C122.196 16.8458 121.621 16.8945 121.046 16.9432C120.725 16.9703 120.403 17.0055 120.084 17.0271C119.079 17.0921 118.073 17.1706 117.067 17.2139C116.819 17.2247 116.609 17.4115 116.609 17.6686C116.609 17.9096 116.817 18.1342 117.067 18.1234C117.283 18.1153 117.498 18.1017 117.713 18.0882C117.713 18.1694 117.713 18.2506 117.708 18.3291C117.691 18.3291 117.678 18.321 117.664 18.321C117.571 18.321 117.476 18.3481 117.402 18.3914C117.291 18.4563 117.209 18.5646 117.174 18.6864C117.138 18.8136 117.157 18.9544 117.225 19.0681C117.293 19.1872 117.397 19.2494 117.522 19.2955C117.58 19.3171 117.637 19.3361 117.694 19.3577C117.694 19.6176 117.694 19.8774 117.691 20.1373C117.689 20.8654 117.689 21.5936 117.691 22.3244C117.691 22.6195 117.691 22.9172 117.7 23.2123C117.71 23.621 117.721 24.0297 117.735 24.4385C117.754 25.1422 117.781 25.8433 117.809 26.5444C117.836 27.2482 117.866 27.9547 117.896 28.6584C117.907 28.9291 117.926 29.2025 117.942 29.4732C117.961 29.798 117.975 30.1255 118.002 30.4531C118.062 31.1758 118.122 31.8958 118.19 32.6158C118.242 33.1735 118.291 33.7338 118.34 34.2941C118.201 34.3103 118.062 34.3239 117.92 34.3401C117.874 34.3455 117.825 34.3536 117.776 34.3591C117.686 34.3834 117.604 34.4294 117.539 34.4971C117.438 34.5973 117.381 34.7353 117.381 34.8761C117.381 35.0168 117.438 35.1549 117.539 35.255C117.631 35.3471 117.787 35.4283 117.92 35.412C118.1 35.3931 118.283 35.3741 118.463 35.3525C118.479 35.3822 118.498 35.412 118.525 35.4364C118.599 35.5095 118.703 35.5528 118.806 35.5528C118.972 35.5528 119.139 35.4337 119.188 35.274C120.379 35.144 121.57 35.0141 122.761 34.8896C123.235 34.8382 123.712 34.8057 124.189 34.7678C124.679 34.7272 125.173 34.6812 125.663 34.6514C126.29 34.6135 126.92 34.5621 127.546 34.5377C128.201 34.5106 128.852 34.4836 129.506 34.4565C130.716 34.4051 131.929 34.4078 133.136 34.5025C133.605 34.5377 134.071 34.5837 134.537 34.646C134.924 34.6974 135.311 34.7461 135.695 34.7976C135.75 34.8057 135.802 34.8111 135.856 34.8192C136.262 34.8734 136.668 34.9275 137.075 34.9816C137.478 35.0358 137.887 35.071 138.29 35.1116C138.475 35.1305 138.661 35.1359 138.846 35.1495C139.018 35.1603 139.189 35.1684 139.361 35.1765C139.786 35.1928 140.212 35.1982 140.637 35.1765C140.767 35.1684 140.885 35.1305 140.98 35.0358C141.007 35.0087 141.032 34.9735 141.051 34.941C141.119 34.9356 141.187 34.9167 141.242 34.8842C141.334 34.83 141.405 34.738 141.435 34.6352C141.465 34.5242 141.443 34.3997 141.383 34.3022C141.394 34.2237 141.4 34.1398 141.403 34.0613C141.408 33.9639 141.408 33.8637 141.411 33.7663C141.422 33.4035 141.43 33.0381 141.449 32.6754C141.49 31.8606 141.542 31.0432 141.601 30.2284C141.626 29.8603 141.653 29.4921 141.678 29.124C141.705 28.7207 141.719 28.3147 141.738 27.9114C141.746 27.7544 141.746 27.5946 141.749 27.4349C141.754 27.1697 141.762 26.9044 141.768 26.6391C141.776 26.2548 141.776 25.8731 141.781 25.4887C141.787 24.7579 141.795 24.0243 141.822 23.2935C141.836 22.9199 141.839 22.5464 141.866 22.1755C141.901 21.6883 141.934 21.1984 141.969 20.7084C141.997 20.3349 142.046 19.9613 142.097 19.5878C142.16 19.1466 142.236 18.7054 142.324 18.2669C142.405 17.85 142.504 17.4277 142.664 17.0298C142.752 16.8349 142.844 16.6455 142.959 16.4641C143.057 16.3098 142.991 16.0987 142.839 16.0094L142.833 16.0148ZM118.22 18.5051V18.4861C118.22 18.3454 118.217 18.2073 118.215 18.0666C118.509 18.0476 118.806 18.0287 119.1 18.0097C119.515 17.9826 119.926 17.961 120.34 17.9258C121.412 17.8365 122.485 17.7444 123.556 17.6578C124.262 17.601 124.968 17.5441 125.674 17.4873C126.08 17.4548 126.486 17.4359 126.892 17.4142C127.274 17.3925 127.655 17.3709 128.04 17.3492C128.22 17.3384 128.4 17.3249 128.579 17.3195C129.165 17.3005 129.751 17.287 130.337 17.2707C132.463 17.2139 134.592 17.2031 136.718 17.222C137.996 17.2356 139.271 17.3195 140.541 17.4602C140.481 17.4954 140.421 17.5279 140.364 17.5658C140.277 17.6226 140.192 17.6822 140.108 17.7444C139.942 17.8635 139.781 17.9962 139.623 18.1261C139.307 18.3833 138.993 18.6458 138.68 18.9057C138.067 19.4173 137.472 19.9478 136.876 20.4784C135.736 21.488 134.608 22.5139 133.474 23.5263C132.85 24.0839 132.226 24.6415 131.602 25.1991C130.743 24.6225 129.855 24.0893 128.958 23.5723C128.032 23.0363 127.094 22.5193 126.148 22.024C125.71 21.7939 125.279 21.553 124.832 21.3391C124.186 21.0305 123.543 20.722 122.9 20.4134C122.728 20.3322 122.554 20.2483 122.382 20.1671C122.202 20.0804 122.011 20.0155 121.829 19.9397C121.125 19.6528 120.422 19.3685 119.719 19.0816C119.531 19.0058 119.34 18.9273 119.152 18.8515C118.844 18.727 118.534 18.616 118.22 18.5024V18.5051ZM118.98 33.0381C118.893 32.3479 118.809 31.6549 118.738 30.962C118.602 29.6573 118.523 28.3472 118.454 27.037C118.419 26.3549 118.378 25.6755 118.351 24.9934C118.324 24.3004 118.286 23.6102 118.272 22.9172C118.264 22.4408 118.253 21.9671 118.245 21.4907C118.302 21.4501 118.34 21.3824 118.337 21.3094C118.313 20.7301 118.286 20.1508 118.261 19.5743C118.509 19.6663 118.757 19.7583 119.005 19.8585C119.362 20.0047 119.722 20.1508 120.079 20.297C120.684 20.5433 121.286 20.7896 121.889 21.036C122.409 21.2877 122.932 21.5367 123.453 21.7885C123.854 21.9807 124.26 22.1674 124.655 22.3759C125.178 22.6519 125.699 22.928 126.222 23.2014C126.015 23.4478 125.808 23.6941 125.603 23.9404C125.388 24.2003 125.17 24.4574 124.96 24.7173C124.407 25.4048 123.854 26.0923 123.3 26.7826C122.829 27.37 122.363 27.9601 121.899 28.5529C121.66 28.8587 121.425 29.17 121.199 29.484C121.093 29.6329 120.981 29.7791 120.877 29.9307C120.76 30.1039 120.635 30.2744 120.52 30.4504C120.346 30.7211 120.172 30.9917 120.005 31.2651C119.844 31.5331 119.686 31.8011 119.528 32.0718C119.373 32.3397 119.22 32.6077 119.07 32.8784C119.04 32.9325 119.013 32.9867 118.986 33.0381H118.98ZM138.969 34.1398C138.713 34.1181 138.454 34.1019 138.197 34.0721C137.898 34.0369 137.601 34.0018 137.301 33.9693C136.824 33.9016 136.347 33.8312 135.87 33.7663C135.486 33.7148 135.104 33.6607 134.72 33.6093C134.256 33.547 133.796 33.4956 133.33 33.455C132.545 33.3846 131.755 33.3521 130.964 33.3521C130.501 33.3521 130.038 33.3629 129.577 33.3819C128.904 33.4117 128.231 33.4387 127.555 33.4685C126.95 33.4929 126.345 33.5443 125.74 33.5822C125.254 33.612 124.772 33.6553 124.287 33.6959C123.794 33.7365 123.298 33.7717 122.804 33.8231C122.074 33.9016 121.343 33.9774 120.613 34.0559C120.114 34.1073 119.616 34.1642 119.114 34.221C119.111 34.1939 119.109 34.1669 119.106 34.1398C119.122 34.1236 119.139 34.11 119.149 34.0911C119.357 33.7338 119.577 33.3819 119.798 33.03C120.011 32.6889 120.223 32.3479 120.436 32.0068C120.831 31.3761 121.243 30.7535 121.687 30.1553C121.957 29.7899 122.232 29.4245 122.51 29.0645C123.494 27.8112 124.499 26.5715 125.5 25.329C125.712 25.0637 125.933 24.8039 126.151 24.5413C126.413 24.2273 126.677 23.9133 126.939 23.6021L126.961 23.6129C127.222 23.759 127.481 23.9025 127.74 24.0487C128.051 24.2219 128.353 24.406 128.658 24.5846C128.939 24.7498 129.22 24.9176 129.501 25.0854C130.089 25.4373 130.681 25.7838 131.272 26.1302C131.305 26.1519 131.338 26.1681 131.376 26.1817C131.387 26.1844 131.395 26.1871 131.406 26.1898C131.414 26.1898 131.422 26.1925 131.43 26.1952C131.629 26.2412 131.847 26.1573 131.953 25.976C131.97 25.9489 131.981 25.9218 131.992 25.892C132.591 25.3588 133.188 24.8228 133.785 24.2896L133.79 24.3058C133.829 24.4087 133.872 24.5061 133.913 24.6063C133.957 24.7092 134.003 24.812 134.052 24.9149C134.327 25.5023 134.613 26.0842 134.913 26.6608C135.077 26.9775 135.246 27.2915 135.415 27.6055C135.565 27.8816 135.723 28.1523 135.878 28.4256C136.189 28.9724 136.497 29.5219 136.786 30.0795C137.091 30.6669 137.393 31.2543 137.723 31.8309C138.05 32.4047 138.426 32.9542 138.843 33.4712C138.969 33.6255 139.097 33.7771 139.236 33.9178C139.331 34.0153 139.432 34.1019 139.536 34.1858C139.345 34.175 139.154 34.1615 138.963 34.1452L138.969 34.1398ZM141.773 17.6308C141.708 17.8933 141.656 18.1613 141.607 18.4266C141.55 18.7216 141.498 19.0167 141.454 19.3144C141.411 19.5986 141.375 19.8828 141.343 20.1671C141.321 20.3403 141.299 20.5135 141.285 20.6895C141.269 20.906 141.25 21.1253 141.234 21.3418C141.204 21.7073 141.168 22.07 141.152 22.4354C141.133 22.8766 141.111 23.3205 141.092 23.7645C141.073 24.1949 141.07 24.6252 141.059 25.0529C141.048 25.4589 141.045 25.865 141.037 26.2683C141.024 27.0073 140.999 27.7462 140.958 28.4852C140.871 30.0389 140.729 31.59 140.658 33.1437C140.645 33.4252 140.639 33.7067 140.639 33.9882C140.552 33.9503 140.468 33.9124 140.386 33.8637C140.269 33.796 140.16 33.7229 140.051 33.6444C139.868 33.4956 139.694 33.3413 139.536 33.1653C139.372 32.9867 139.217 32.7999 139.067 32.6077C138.298 31.571 137.715 30.4179 137.094 29.2918C136.786 28.7342 136.456 28.1874 136.132 27.6407C135.796 27.0776 135.475 26.5038 135.164 25.9272C135.014 25.6484 134.867 25.3696 134.717 25.0908C134.559 24.7904 134.401 24.4872 134.262 24.1759C134.333 24.2544 134.404 24.3356 134.472 24.4168C134.464 24.4033 134.453 24.3925 134.445 24.3789C134.513 24.4682 134.584 24.5576 134.652 24.6469C134.641 24.6361 134.633 24.6225 134.624 24.6117C134.649 24.6442 134.676 24.6794 134.701 24.7119C134.731 24.7498 134.761 24.7795 134.81 24.7931C134.856 24.8066 134.908 24.7985 134.949 24.7741C135.025 24.7281 135.074 24.6063 135.014 24.5278C134.812 24.2625 134.608 24.0027 134.382 23.7563C134.951 23.2475 135.521 22.7413 136.091 22.2297C137.227 21.2119 138.361 20.1887 139.536 19.2116C139.784 19.0058 140.032 18.8028 140.282 18.5998C140.419 18.4888 140.552 18.3778 140.686 18.2669C140.847 18.1288 141.005 17.9935 141.138 17.8284C141.195 17.758 141.234 17.693 141.234 17.5983C141.234 17.5766 141.225 17.5577 141.22 17.536C141.343 17.555 141.465 17.5739 141.588 17.601C141.656 17.6145 141.721 17.6172 141.787 17.6091C141.787 17.6145 141.784 17.6199 141.781 17.6253L141.773 17.6308Z" fill="#181133"></path><path d="M51.8913 20.6373C52.0167 20.8159 52.1448 20.9892 52.2729 21.1651C52.3628 21.3194 52.45 21.4764 52.54 21.6307C52.8507 22.1694 53.1559 22.7134 53.4721 23.2521C54.0935 24.3078 54.7149 25.3634 55.3363 26.4191C55.895 27.3692 56.4401 28.3274 56.9879 29.283C57.2958 29.8189 57.6065 30.3522 57.9172 30.8881C58.1816 31.3402 58.4514 31.7922 58.7076 32.2497C59.0755 32.8993 59.4407 33.5516 59.8196 34.1959C59.5498 34.407 59.2799 34.6181 59.0128 34.832C58.942 34.8888 58.9066 35.0025 58.9066 35.0918C58.9066 35.1893 58.9447 35.2813 59.0128 35.3517C59.081 35.4194 59.1764 35.4573 59.2745 35.4573C59.3808 35.4573 59.4544 35.414 59.5361 35.349C59.8496 35.1027 60.1575 34.8509 60.4737 34.6073C60.6944 34.4395 60.9206 34.2744 61.1469 34.112C61.1169 34.2581 61.2068 34.4124 61.354 34.4503C61.5148 34.4936 61.6647 34.3962 61.7165 34.2473C61.7928 34.0253 61.8446 33.798 61.8882 33.5679C62.1226 33.3946 62.3569 33.2241 62.5913 33.0509C62.9047 32.8208 63.2182 32.5907 63.5343 32.3606C63.706 32.2361 63.8859 32.1224 64.063 32.006C64.9134 31.4403 65.761 30.8719 66.6113 30.3061C67.2027 29.9109 67.8023 29.5239 68.3965 29.1341C69.8082 28.2083 71.2227 27.2907 72.6372 26.3704C73.1877 26.0131 73.7383 25.6531 74.2861 25.2931C74.8884 24.8979 75.4962 24.5108 76.0958 24.1075C76.8861 23.5742 77.6765 23.041 78.4669 22.505C78.6958 22.3507 78.9193 22.191 79.1455 22.0313C79.3417 21.8933 79.5407 21.7552 79.7369 21.6172C79.8432 21.7065 79.9986 21.7309 80.1212 21.6551C81.4485 20.8268 82.7267 19.9254 83.9995 19.0159C84.5991 18.5855 85.2041 18.1632 85.8146 17.7491C85.91 17.6841 86.0054 17.6192 86.1035 17.5569C86.2098 17.4865 86.3134 17.4134 86.4169 17.3404C86.4769 17.297 86.5369 17.2564 86.5914 17.2077C86.5995 17.1996 86.6077 17.1888 86.6159 17.1807H86.6377C86.8367 17.1752 87.0002 17.0209 87.0002 16.8179C87.0002 16.6691 86.9048 16.5391 86.774 16.485C86.7331 16.42 86.6813 16.3605 86.6295 16.3036C86.5668 16.2333 86.5041 16.1629 86.4442 16.0898C86.218 15.8218 85.9972 15.5484 85.7683 15.2777C85.2995 14.7201 84.8144 14.1761 84.3211 13.6401C83.8196 13.096 83.3127 12.5601 82.8167 12.0106C82.3288 11.4719 81.8437 10.9305 81.364 10.3838C81.0996 10.0806 80.8353 9.77743 80.5736 9.47156C80.3229 9.17922 80.0803 8.88417 79.8378 8.58913C79.3663 8.01798 78.8975 7.44413 78.4233 6.87299C77.9654 6.3235 77.5075 5.77672 77.0606 5.21911C76.9379 5.06482 76.8126 4.91052 76.6872 4.75353C76.5318 4.54239 76.3765 4.32855 76.2211 4.11742C76.1012 3.95501 75.9813 3.7953 75.8723 3.62748C75.6951 3.35409 75.5153 3.0834 75.3381 2.81001C75.2127 2.61783 75.101 2.41752 74.9865 2.21721C74.8721 2.01691 74.7685 1.81119 74.6677 1.60276C74.6813 1.59193 74.6976 1.58111 74.7113 1.57028C75.1392 1.2211 75.5616 0.866498 75.9759 0.503781C76.0985 0.395507 76.0876 0.189787 75.9759 0.0788065C75.9186 0.0219628 75.8423 -0.0078125 75.7633 -0.0078125C75.6761 -0.0078125 75.6161 0.0273765 75.5507 0.0788065C75.4471 0.162719 75.3408 0.246631 75.2345 0.327836L75.1882 0.363025L75.2155 0.34137C75.1446 0.395507 75.0737 0.452351 75.0029 0.506488C74.8012 0.658071 74.6022 0.809655 74.4006 0.961238C74.3133 0.712208 74.237 0.460472 74.1635 0.208735C74.1307 0.0923407 74.0217 0.0138423 73.9045 0.0138423C73.8827 0.0138423 73.8582 0.0165491 73.8337 0.0246696C73.6947 0.0625655 73.6075 0.211442 73.6483 0.352198C73.7165 0.587693 73.7846 0.825896 73.8609 1.05868C73.8882 1.13718 73.9209 1.21568 73.9509 1.29147C73.8718 1.34832 73.7955 1.40245 73.7165 1.4593C73.5584 1.57298 73.3894 1.67585 73.2259 1.78141C72.9261 1.97901 72.6154 2.16308 72.3102 2.34985C71.9722 2.55828 71.6261 2.75046 71.2827 2.95348C70.6449 3.32702 69.9963 3.68162 69.3531 4.04433C69.1296 4.16885 68.9034 4.28795 68.6799 4.41247C68.2248 4.65879 67.7696 4.90782 67.3145 5.15414C66.783 5.44377 66.2516 5.72799 65.7201 6.01492C65.2568 6.26395 64.7962 6.51298 64.3356 6.76201C64.1394 6.86757 63.9431 6.97043 63.7496 7.07871C63.0328 7.47932 62.3188 7.88535 61.602 8.28596C61.0842 8.5783 60.5609 8.86252 60.0485 9.16027C58.7594 9.91277 57.4675 10.6572 56.1811 11.4151C55.4153 11.8671 54.6467 12.3219 53.8809 12.7739C53.5157 12.9905 53.1505 13.207 52.7853 13.4208C52.6435 13.5048 52.5045 13.5914 52.3656 13.6834C51.9186 13.9757 51.4716 14.2654 51.0246 14.5577C50.8557 14.6687 50.6867 14.777 50.5204 14.888C50.2315 15.0747 49.9536 15.275 49.6701 15.4699C49.5911 15.5241 49.5338 15.5863 49.5066 15.6811C49.5011 15.7 49.5066 15.719 49.5039 15.7406C49.4166 15.7108 49.3294 15.6811 49.2449 15.6513C49.215 15.6405 49.1823 15.635 49.1523 15.635C49.1141 15.635 49.076 15.6432 49.0378 15.6567C48.9942 15.6648 48.9533 15.6784 48.9124 15.7C48.8252 15.7514 48.7598 15.8354 48.7326 15.9301C48.708 16.0221 48.7135 16.1466 48.7707 16.2278C49.8118 17.6977 50.8557 19.1621 51.8995 20.6292L51.8913 20.6373ZM84.8498 17.4216C84.8035 17.3999 84.7572 17.3891 84.7054 17.3891C84.6481 17.3891 84.5909 17.4026 84.5419 17.4351C83.8632 17.8547 83.2064 18.3013 82.5468 18.7506C81.8219 19.246 81.1024 19.7467 80.3856 20.2475C79.7151 20.7131 79.0474 21.1814 78.3769 21.6469C77.7555 22.08 77.1205 22.4996 76.4937 22.9246C75.9541 23.2873 75.4171 23.65 74.8748 24.0046C74.0926 24.5189 73.3077 25.0305 72.5255 25.5448C71.3236 26.3325 70.1135 27.1094 68.9143 27.8998C68.0912 28.4411 67.2709 28.9825 66.4478 29.5239C65.8291 29.9326 65.2132 30.3495 64.5945 30.7609C64.1911 31.0316 63.7878 31.2996 63.3844 31.5702C63.2454 31.665 63.1092 31.7597 62.9756 31.8599C62.6676 32.0845 62.3624 32.3119 62.0544 32.5366C62.0626 32.4824 62.0708 32.431 62.0789 32.3769C62.1743 31.7354 62.2452 31.0884 62.3024 30.4415C62.3597 29.7891 62.4142 29.1368 62.4714 28.4844C62.5259 27.8592 62.6131 27.2339 62.6949 26.6113C62.7003 26.5653 62.7085 26.5193 62.714 26.4705C62.7985 25.9075 62.8775 25.3445 62.962 24.7815C63.0574 24.1643 63.1528 23.5471 63.2482 22.93C63.3381 22.367 63.4199 21.8039 63.518 21.2436C63.6461 20.4992 63.7742 19.7522 63.9077 19.0078C64.4146 19.1242 64.927 19.2189 65.4476 19.2893H65.4312C65.4585 19.2893 65.483 19.2947 65.5102 19.2974C65.5947 19.3082 65.6792 19.3272 65.7664 19.3299C65.791 19.3326 65.8155 19.3353 65.84 19.3407C65.8918 19.3461 65.9436 19.3542 65.9926 19.3624L65.9463 19.357L66.0063 19.3651L66.0499 19.3705H66.0717L66.088 19.3759H66.0799L66.1507 19.384H66.1752C66.9138 19.4842 67.6551 19.5437 68.3937 19.6358C68.4619 19.6439 68.53 19.6547 68.5981 19.6655C68.6363 19.6709 68.6717 19.6764 68.7099 19.6791C68.7399 19.8063 68.838 19.9119 68.9688 19.9498C69.165 20.0039 69.3667 19.8848 69.4212 19.6953C69.7346 18.6315 70.0726 17.5759 70.3996 16.5175C72.1603 16.4254 73.9263 16.4552 75.687 16.5229C76.5346 16.5554 77.3849 16.5851 78.2325 16.6014C79.1046 16.6203 79.9768 16.6393 80.8462 16.7394C80.9416 16.7503 81.037 16.7611 81.1351 16.7719C81.5303 16.8315 81.9254 16.8991 82.3206 16.9695C82.8058 17.0561 83.2963 17.14 83.7896 17.1861C84.0158 17.2077 84.2421 17.224 84.4683 17.2321C84.6754 17.2402 84.8853 17.2321 85.0924 17.2321C85.106 17.2321 85.1196 17.2321 85.1333 17.2321C85.0406 17.2943 84.9479 17.3566 84.858 17.4216H84.8498ZM73.85 3.87922C73.9045 3.63289 73.9645 3.38928 74.0299 3.14566C74.0899 2.9237 74.1662 2.70715 74.2507 2.49331C74.2915 2.39857 74.3324 2.30383 74.3733 2.2118C74.4224 2.30654 74.4687 2.40128 74.5205 2.49602C74.624 2.68279 74.7303 2.87227 74.8448 3.05092C75.0601 3.38657 75.2754 3.72222 75.4935 4.05516C75.5834 4.19321 75.6842 4.32043 75.7823 4.45307C75.9186 4.64255 76.0549 4.83203 76.1939 5.02151C76.2729 5.13249 76.3601 5.23805 76.4446 5.34362C76.6054 5.54934 76.7662 5.75506 76.927 5.96078C77.374 6.53192 77.84 7.08683 78.2952 7.65256C78.7558 8.221 79.2055 8.79485 79.6606 9.36599C80.5873 10.5299 81.5602 11.656 82.5278 12.7874C83.0074 13.3505 83.5007 13.9027 83.9886 14.4576C84.4574 14.9935 84.918 15.5376 85.3704 16.0844C85.4739 16.2089 85.583 16.3253 85.6893 16.4444C85.5121 16.4417 85.3322 16.439 85.1551 16.4363C84.7108 16.4254 84.272 16.393 83.8332 16.3388C83.0047 16.217 82.1844 16.0438 81.3558 15.9193C80.4564 15.7866 79.5462 15.7677 78.6386 15.7677C78.1971 15.7677 77.7528 15.7704 77.3113 15.7731C76.8752 15.7731 76.4419 15.765 76.0058 15.7596C75.2809 15.7487 74.5586 15.7379 73.8364 15.7379C73.6811 15.7379 73.523 15.7379 73.3676 15.7379C72.4519 15.7433 71.5334 15.7569 70.6204 15.8002C70.7212 15.4672 70.8221 15.137 70.9175 14.804C71.1464 14.0082 71.3672 13.2124 71.5988 12.4166C71.8169 11.6641 72.0485 10.9143 72.2638 10.1591C72.7108 8.59183 73.1332 7.01916 73.5039 5.43295C73.6238 4.91594 73.7437 4.39893 73.8609 3.87922H73.85ZM50.8475 15.5132C50.9892 15.4212 51.1337 15.3292 51.2754 15.2344C51.7087 14.9529 52.1421 14.6687 52.5781 14.3872C52.7335 14.2843 52.8888 14.1815 53.0496 14.0867C53.3794 13.8918 53.7119 13.6969 54.0417 13.4993C55.3172 12.7441 56.5954 11.9916 57.8763 11.2445C58.6912 10.7708 59.5089 10.2944 60.3238 9.82074C60.798 9.54464 61.2777 9.28208 61.7573 9.01139C62.5259 8.5783 63.2945 8.14791 64.063 7.71752C64.2184 7.6309 64.3765 7.54699 64.5345 7.46308C64.9815 7.22217 65.4285 6.98397 65.8727 6.74306C66.4233 6.44801 66.9738 6.15297 67.5243 5.85521C67.9658 5.61701 68.4074 5.3761 68.8489 5.13519C69.1241 4.98632 69.4021 4.84015 69.6747 4.68856C70.0208 4.49638 70.3642 4.30148 70.7076 4.1093C70.9774 3.95772 71.25 3.80884 71.5198 3.65184C71.8959 3.43259 72.2693 3.21063 72.6454 2.99137C72.7762 2.91558 72.9016 2.83167 73.0297 2.75317C73.1523 2.67738 73.2777 2.60159 73.4003 2.52309C73.3595 2.62865 73.3158 2.73151 73.2804 2.83979C73.1578 3.20521 73.0787 3.57876 72.9888 3.9523C72.8007 4.75353 72.6127 5.55205 72.4192 6.35057C72.0322 7.93407 71.6043 9.50945 71.1546 11.0767C70.9447 11.8076 70.7321 12.5384 70.5332 13.272C70.3043 14.1165 70.0726 14.961 69.83 15.8029C69.6638 16.3794 69.4812 16.9506 69.3013 17.5244C69.1814 17.9115 69.0669 18.3013 68.9497 18.6884C68.9252 18.6775 68.8979 18.6667 68.8707 18.6613C68.2929 18.5611 67.7097 18.5043 67.1291 18.442C66.7203 18.3987 66.3115 18.35 65.9027 18.2986C65.8673 18.2905 65.8346 18.285 65.7964 18.285C65.7283 18.2769 65.6601 18.2688 65.592 18.258C65.1587 18.193 64.7253 18.1253 64.3002 18.0306C64.1966 18.0062 64.093 17.9792 63.9895 17.9548C63.8423 17.9088 63.6951 17.8655 63.5452 17.833C63.5261 17.8276 63.5071 17.8249 63.488 17.8222C63.3435 17.7816 63.1964 17.741 63.0546 17.695C63.0083 17.6814 62.962 17.6733 62.9157 17.6733C62.872 17.6733 62.8312 17.6814 62.7876 17.6922C62.4033 17.63 62.0163 17.584 61.632 17.5352C61.2831 17.4919 60.9315 17.4486 60.5827 17.4161C60.193 17.381 59.8032 17.3377 59.4135 17.3079C58.6286 17.2483 57.8436 17.1888 57.0587 17.1265C56.4046 17.0778 55.7505 17.0074 55.0964 16.9424C54.674 16.8829 54.2488 16.8179 53.8264 16.7557C53.7092 16.7394 53.592 16.7259 53.4748 16.7015C53.2895 16.6636 53.1069 16.6257 52.9215 16.5906C52.45 16.4958 51.9785 16.3984 51.507 16.3036C51.4008 16.282 51.2945 16.2441 51.1882 16.217C50.9184 16.1412 50.6458 16.0654 50.3733 15.9896C50.3188 15.9734 50.2643 15.9599 50.2097 15.9436C50.4223 15.7947 50.6376 15.6459 50.8557 15.5051L50.8475 15.5132ZM50.5613 16.7611C50.8666 16.8477 51.1691 16.9424 51.4825 17.0047C52.0031 17.113 52.5264 17.2213 53.0469 17.3268C53.3603 17.3918 53.6792 17.4378 53.9954 17.4865C54.3824 17.5461 54.7694 17.6192 55.1591 17.6598C55.6579 17.7112 56.1539 17.7653 56.6526 17.8168C57.0369 17.8574 57.4212 17.8844 57.8055 17.9169C58.1816 17.9494 58.555 17.9819 58.9311 18.0144C59.4898 18.0631 60.0458 18.1199 60.6018 18.1768C61.1387 18.2309 61.6756 18.3067 62.2098 18.3771C62.1771 18.3717 62.1416 18.369 62.1062 18.3635C62.2152 18.3798 62.3242 18.396 62.4305 18.415C62.4932 18.5476 62.6131 18.6559 62.763 18.7019C62.9647 18.7669 63.1664 18.8237 63.3708 18.8778C63.2291 19.6547 63.0955 20.4343 62.962 21.2111C62.8502 21.8554 62.7576 22.5023 62.654 23.1465C62.4714 24.2969 62.2888 25.4501 62.128 26.6059C62.0408 27.242 61.9508 27.8808 61.8909 28.5196C61.8282 29.1774 61.771 29.8379 61.7083 30.4956C61.6647 30.9558 61.6129 31.4132 61.5557 31.8707C61.5039 32.2388 61.4494 32.6043 61.384 32.9697C61.3812 32.9913 61.3758 33.013 61.3731 33.0346C61.0733 33.2539 60.7735 33.4759 60.4737 33.6951C60.4246 33.7303 60.381 33.7682 60.332 33.8034C59.8005 32.8587 59.2472 31.9275 58.6858 31.0018C58.4269 30.5714 58.1598 30.1464 57.9036 29.716C57.6174 29.2369 57.3313 28.7551 57.0451 28.276C56.7317 27.7482 56.4237 27.2176 56.1048 26.6925C55.7614 26.1241 55.418 25.5529 55.0746 24.9845C54.783 24.5 54.4887 24.0154 54.197 23.5309C54.058 23.3035 53.9245 23.0735 53.7882 22.8434C53.7964 22.8407 53.8018 22.8407 53.81 22.8353C53.9735 22.7405 54.0117 22.5429 53.9299 22.3832C53.7419 22.0097 53.532 21.6469 53.2976 21.3005C53.0605 20.9513 52.8207 20.6048 52.5781 20.2583C52.1175 19.6006 51.646 18.9482 51.18 18.2959C51.0573 18.1253 50.9374 17.9521 50.8148 17.7816C50.7848 17.7356 50.7576 17.6868 50.7276 17.6381C50.6567 17.5217 50.5859 17.4053 50.515 17.2889C50.4441 17.1725 50.3651 17.0616 50.2861 16.9533C50.2561 16.91 50.2152 16.8856 50.1689 16.8694C50.1035 16.7773 50.038 16.6826 49.9699 16.5906C50.1661 16.6447 50.3651 16.7015 50.5613 16.7557V16.7611Z" fill="#181133"></path><path d="M66.1389 19.3882C66.1662 19.3909 66.1907 19.3963 66.2179 19.3991L66.1689 19.3936H66.1444C66.1253 19.3882 66.1089 19.3855 66.0898 19.3828C66.1062 19.3828 66.1225 19.3882 66.1362 19.3882H66.1389Z" fill="#181133"></path><path d="M66.0273 19.375C66.0491 19.3777 66.0682 19.3804 66.09 19.3831L66.0573 19.3777H66.0273V19.375Z" fill="#181133"></path><path d="M1.4613 39.8104L1.45312 39.8023V39.7969L1.4613 39.8104Z" fill="#181133"></path><path d="M1.45739 39.8077L1.44922 39.7969H1.45194L1.45739 39.8077Z" fill="#181133"></path><path d="M30.0465 34.4412C30.2509 34.5603 30.4962 34.4818 30.6216 34.2923C30.766 34.0731 30.9241 33.862 31.0822 33.6508L31.0767 33.6589C31.1612 33.5507 31.2429 33.4451 31.3274 33.3368C31.6545 32.9308 31.9843 32.5275 32.3195 32.1269C32.453 31.9672 32.5948 31.8129 32.7338 31.6559C32.9273 31.4393 33.1235 31.2228 33.3197 31.0089C33.3415 31.0333 33.3688 31.055 33.3906 31.0793C33.4996 31.2038 33.704 31.2174 33.843 31.1362C33.9002 31.1037 33.9438 31.0604 33.9765 31.0035C34.0229 30.925 34.0474 30.8059 34.0147 30.7166C34.0038 30.6868 33.9929 30.657 33.9793 30.63C34.1782 30.6002 34.3799 30.5677 34.5761 30.5298C34.6879 30.5082 34.7914 30.4188 34.8487 30.3241C34.9086 30.2212 34.925 30.094 34.895 29.9776C34.865 29.8667 34.7887 29.7665 34.6879 29.7097C34.617 29.669 34.5407 29.6501 34.4644 29.6501C34.4235 29.6501 34.3826 29.6555 34.339 29.6636C34.0774 29.7205 33.8185 29.7692 33.5568 29.8125C33.4533 29.826 33.3497 29.8342 33.2461 29.845C33.1616 29.7746 33.0772 29.7069 32.9927 29.6366C32.6874 29.3794 32.3904 29.1141 32.0987 28.8435C31.5155 28.2994 30.9513 27.7337 30.3708 27.1842C29.7903 26.6374 29.1907 26.1123 28.5911 25.5871C28.2668 25.3029 27.9452 25.0106 27.6318 24.7155C27.3456 24.4448 27.0703 24.1606 26.8005 23.871C26.2227 23.2538 25.6395 22.6394 25.0453 22.0385C24.4812 21.4673 23.9034 20.907 23.3256 20.3494C23.0912 20.122 22.8623 19.8946 22.6361 19.6591C22.3608 19.3695 22.0937 19.0745 21.8457 18.7632C21.8512 18.6982 21.8566 18.6332 21.8621 18.5683C21.8702 18.4411 21.843 18.3057 21.813 18.1839C21.7857 18.0675 21.6822 17.9728 21.5704 17.943C21.5405 17.9349 21.5105 17.9322 21.4805 17.9322C21.426 17.9322 21.3715 17.9457 21.3224 17.9701C21.2679 17.878 21.2134 17.7887 21.1616 17.694C21.1017 17.5857 20.9817 17.5234 20.8618 17.5234C20.8019 17.5234 20.7419 17.537 20.6874 17.5695C20.5212 17.6669 20.4721 17.878 20.562 18.0404C20.592 18.0919 20.6193 18.1433 20.6492 18.1947C20.6029 18.2001 20.5593 18.211 20.5266 18.238C20.175 18.5033 19.8153 18.7605 19.4637 19.0257C19.2784 19.1665 19.0958 19.3072 18.9186 19.4588C18.7687 19.5861 18.6243 19.716 18.4798 19.8459C17.8829 20.3846 17.2915 20.9341 16.7001 21.4781C16.1005 22.0303 15.4955 22.5798 14.915 23.151C14.299 23.7546 13.6913 24.3663 13.0889 24.9835C12.4839 25.6034 11.8707 26.2151 11.252 26.8242C10.6824 27.3818 10.1046 27.934 9.53499 28.4943C8.9463 29.0708 8.36033 29.6528 7.77709 30.2321C7.13935 30.8655 6.49887 31.4962 5.85295 32.1215C5.26971 32.6872 4.68374 33.2502 4.09778 33.8132C3.80343 34.0974 3.51181 34.3844 3.21747 34.6713C2.9095 34.9745 2.61242 35.2803 2.31263 35.5916C2.04009 35.8704 1.78662 36.1655 1.52498 36.4524C1.22519 36.7826 0.939018 37.1237 0.677377 37.4837C0.513852 37.7084 0.358503 37.9358 0.238585 38.1848C0.124117 38.4203 0.0559819 38.6774 0.00964982 38.9319C-0.00670269 39.0293 -0.00670269 39.1159 0.0450803 39.2053C0.0914124 39.2838 0.17045 39.3433 0.257663 39.3677C0.350327 39.392 0.451168 39.3812 0.53293 39.3325C0.606517 39.2892 0.680103 39.208 0.696455 39.1214C0.707357 39.0618 0.720984 39.0023 0.734611 38.9454C0.783669 39.0077 0.832726 39.0699 0.881784 39.1322C1.03986 39.3352 1.20066 39.5382 1.36146 39.7412C1.38054 39.7656 1.41597 39.7818 1.44867 39.7899C1.77845 40.2149 2.11367 40.6372 2.44617 41.0622C2.54974 41.1948 2.66148 41.322 2.7705 41.4492C2.99671 41.7199 3.22292 41.9906 3.44913 42.2586C3.54452 42.3723 3.63446 42.4887 3.7353 42.5969C3.92063 42.8027 4.10868 43.0084 4.29401 43.2141C4.59108 43.5416 4.88542 43.8773 5.19067 44.1967C5.42506 44.4403 5.65944 44.6866 5.89655 44.9302C6.04373 45.0845 6.18817 45.2415 6.33807 45.3931C6.72508 45.7856 7.11754 46.17 7.50728 46.5598C7.85068 46.9008 8.20498 47.2338 8.55384 47.5667C8.90542 47.9024 9.26517 48.2245 9.6222 48.5547C9.96015 48.866 10.3063 49.1665 10.6497 49.4723C11.0094 49.7944 11.3719 50.1138 11.729 50.4387C11.9933 50.6769 12.255 50.9178 12.522 51.1533C12.6311 51.248 12.7401 51.3428 12.8518 51.4375C12.7401 51.5458 12.6256 51.6567 12.5139 51.7677C12.3776 51.9031 12.3776 52.1277 12.5139 52.2631C12.6501 52.3984 12.8764 52.3984 13.0126 52.2631C13.1407 52.1359 13.2715 52.0086 13.3996 51.8787C13.4351 51.9058 13.4705 51.9356 13.5059 51.9626C13.5441 51.9843 13.5877 51.9951 13.6313 51.9951C13.6967 51.9951 13.7594 51.968 13.8057 51.922C13.8521 51.876 13.8793 51.8137 13.8793 51.7488C13.8793 51.6892 13.8548 51.6134 13.8057 51.5728C13.7866 51.5566 13.7676 51.5404 13.7485 51.5241C13.7975 51.4727 13.8466 51.4213 13.8984 51.3725C13.9202 51.497 13.9502 51.6216 13.9856 51.7461C14.021 51.8652 14.13 51.9491 14.2554 51.9491C14.3971 51.9491 14.547 51.8219 14.5334 51.673C14.5143 51.4456 14.5089 51.2182 14.4871 50.9909C14.4816 50.9205 14.4734 50.8528 14.468 50.7824C14.7678 50.4657 15.0649 50.1463 15.3647 49.8296C15.7162 49.4561 16.0678 49.0798 16.4221 48.7063C16.5475 48.5737 16.6647 48.4383 16.7846 48.3003C17.4632 47.5017 18.1446 46.7032 18.8232 45.9047C19.322 45.32 19.8098 44.7272 20.3031 44.1398C20.4639 43.9477 20.6247 43.7555 20.7855 43.5633C20.8482 43.4875 20.9109 43.409 20.9763 43.3359C21.227 43.0598 21.475 42.7783 21.7231 42.5022C22.0937 42.0881 22.4616 41.6739 22.8323 41.2625C22.9713 41.1082 23.1103 40.9566 23.2547 40.805C23.9388 40.0931 24.6202 39.3812 25.3043 38.6693C25.5141 38.4501 25.7322 38.2335 25.9475 38.017C26.3345 37.6245 26.7188 37.2347 27.1058 36.8449C27.6399 36.3035 28.1823 35.773 28.7247 35.237C29.098 34.8662 29.4742 34.4981 29.8503 34.1299C29.8666 34.2544 29.9347 34.3708 30.0519 34.4412H30.0465ZM21.3388 23.0968C21.4641 22.2036 21.5432 21.3022 21.6495 20.4062C21.6767 20.1707 21.7067 19.9379 21.7367 19.7024C21.7558 19.7241 21.7721 19.7458 21.7912 19.7674C22.0719 20.0841 22.3608 20.3927 22.6579 20.6959C22.944 20.9882 23.2384 21.2724 23.5246 21.562C23.8107 21.8517 24.0942 22.1467 24.3776 22.4391C24.9445 23.0265 25.5032 23.622 26.0565 24.2202C26.3372 24.5233 26.6152 24.8265 26.9095 25.1134C27.2012 25.3976 27.4982 25.6737 27.8035 25.939C28.4221 26.4804 29.0435 27.0163 29.6431 27.5767C30.2209 28.118 30.7824 28.6783 31.352 29.2278C31.5891 29.4579 31.8316 29.6772 32.0769 29.8991C31.7799 29.9018 31.4828 29.9073 31.1857 29.91C30.3299 29.9208 29.4769 29.9451 28.6211 30.0074C27.768 30.067 26.915 30.1725 26.0619 30.2104C25.1952 30.251 24.3258 30.2781 23.4564 30.2943C22.8814 30.3052 22.3036 30.3133 21.7285 30.3322C21.1862 30.3512 20.6438 30.3755 20.1014 30.4026L20.2541 29.6501C20.3413 29.2278 20.4149 28.8029 20.4884 28.3779C20.6383 27.509 20.7801 26.6374 20.9218 25.7658C21.069 24.8752 21.2052 23.9847 21.3306 23.0914L21.3388 23.0968ZM0.963546 38.331C0.996251 38.3228 1.02896 38.3174 1.06439 38.3093C1.19248 38.2822 1.32058 38.2525 1.44867 38.2254C1.4841 38.2173 1.50318 38.1767 1.495 38.1442C1.4841 38.109 1.44867 38.09 1.41324 38.0982C1.29605 38.1225 1.17885 38.1469 1.06166 38.1712C1.1734 37.998 1.29605 37.8302 1.42142 37.6678C1.81388 37.1751 2.24722 36.7177 2.66966 36.2548C2.78685 36.1249 2.91495 36.0031 3.03759 35.8786C3.17114 35.7405 3.30468 35.6025 3.44095 35.4671C4.05145 34.8743 4.66194 34.2815 5.28061 33.6968C5.91563 33.0959 6.54793 32.4923 7.1775 31.886C7.74711 31.3392 8.30582 30.7816 8.86999 30.2267C9.4505 29.6555 10.031 29.0844 10.6197 28.5213C11.2384 27.9285 11.8679 27.3385 12.4757 26.7321C12.7564 26.4533 13.0399 26.1745 13.3179 25.893C13.6068 25.598 13.8957 25.3029 14.1846 25.0106C14.8141 24.3799 15.4464 23.7546 16.0923 23.1401C16.6565 22.6042 17.2316 22.0791 17.7985 21.5458C18.1146 21.2508 18.428 20.953 18.7415 20.658C19.0249 20.3873 19.3056 20.1139 19.6054 19.8594C19.8371 19.6618 20.0769 19.4724 20.3195 19.2856L20.314 19.291L20.3358 19.2748L20.3195 19.2883C20.3385 19.2721 20.3604 19.2585 20.3794 19.2423H20.3849V19.2369C20.5784 19.0907 20.7692 18.9445 20.9599 18.7957C20.9681 18.7875 20.9763 18.7767 20.9817 18.7659C20.9572 18.931 20.93 19.0934 20.9054 19.2558C20.8373 19.6618 20.7719 20.0679 20.7147 20.4739C20.6574 20.8745 20.6165 21.2751 20.5702 21.6784C20.5239 22.0899 20.4748 22.5013 20.423 22.9101C20.3031 23.7762 20.175 24.6397 20.0415 25.5032C19.9161 26.3234 19.7907 27.1463 19.6517 27.9664C19.5782 28.3968 19.5127 28.8272 19.4255 29.2549C19.3628 29.5662 19.3002 29.8775 19.2375 30.1888C19.2075 30.3322 19.183 30.4811 19.1503 30.6246C19.0249 31.1497 18.8995 31.6748 18.7714 32.2027C18.7006 32.5058 18.6297 32.8063 18.5452 33.1067C18.3762 33.7131 18.2045 34.3194 18.0356 34.923C17.8421 35.6079 17.6431 36.29 17.4414 36.9748C17.4087 37.0858 17.4251 37.1995 17.4769 37.2969C17.327 37.3024 17.1743 37.3024 17.0244 37.3105C16.7873 37.324 16.5475 37.3375 16.3104 37.3538C15.8552 37.3808 15.3974 37.4106 14.9422 37.4404C14.547 37.4675 14.1518 37.5 13.7567 37.5378C13.5414 37.5595 13.3233 37.5785 13.108 37.5974C13.078 37.481 12.9854 37.3917 12.8573 37.3917C12.7292 37.3917 12.5929 37.5081 12.5956 37.6461C12.4839 37.6569 12.3722 37.6678 12.2604 37.6786C11.3419 37.7625 10.4235 37.8275 9.50501 37.8979C8.72554 37.9601 7.94334 38.0197 7.16387 38.0873C6.16365 38.174 5.16614 38.2579 4.16591 38.3391C4.01602 38.3526 3.86612 38.3661 3.71622 38.3743C3.48183 38.3851 3.24472 38.3959 3.01034 38.4095C2.74052 38.423 2.46798 38.4365 2.19544 38.4501C2.05371 38.4582 1.91472 38.4582 1.773 38.4582C1.61492 38.4582 1.45685 38.4582 1.3015 38.4473C1.22246 38.4446 1.14615 38.4365 1.06711 38.4311C1.01805 38.4257 0.968997 38.423 0.91994 38.4203C0.936292 38.3905 0.949919 38.3607 0.966272 38.331H0.963546ZM0.958096 39.1592L0.971723 39.1782L0.982624 39.1917C0.982624 39.1917 0.966272 39.1701 0.958096 39.1592ZM1.40506 39.7331V39.7412V39.7331ZM1.40506 39.7385L1.41051 39.7466L1.42142 39.7602C1.42142 39.7602 1.41052 39.7466 1.40779 39.7412L1.40506 39.7385ZM13.5114 50.7716C13.416 50.8745 13.3151 50.9719 13.2143 51.0721C13.0072 50.888 12.8 50.7012 12.5929 50.5172C12.2441 50.2086 11.8952 49.9027 11.5436 49.5995C11.1348 49.245 10.7287 48.8931 10.3199 48.5385C9.93563 48.2055 9.55679 47.8645 9.17523 47.5261C8.80185 47.1932 8.4421 46.8467 8.07689 46.5056C7.72531 46.1781 7.38736 45.837 7.04668 45.5014C6.90769 45.366 6.76596 45.2334 6.62969 45.0954C6.46344 44.9221 6.29447 44.7516 6.12822 44.5784C5.81207 44.2535 5.49047 43.9341 5.18522 43.6012C4.78731 43.1681 4.39212 42.735 3.99421 42.3019C3.88247 42.1801 3.78163 42.0502 3.67534 41.9256C3.44913 41.6577 3.22019 41.387 2.99126 41.119C2.89314 41.0053 2.79503 40.8916 2.69964 40.7725C2.51158 40.5343 2.3208 40.2934 2.13275 40.0552C1.81933 39.66 1.50863 39.2648 1.19521 38.8669L1.17613 38.8425C1.17613 38.8425 1.15978 38.8182 1.14887 38.8074C1.10799 38.7559 1.06711 38.7045 1.02623 38.6504C1.02623 38.6477 1.02078 38.6449 1.02078 38.6422C1.08619 38.6504 1.15433 38.6585 1.21974 38.6666C1.37508 38.6828 1.53316 38.691 1.69123 38.6964C1.77027 38.6991 1.84931 38.7018 1.92834 38.7045C1.99375 38.7045 2.06189 38.7099 2.1273 38.7072C2.34261 38.7018 2.55519 38.6964 2.7705 38.691C3.18204 38.6801 3.59085 38.6747 4.00239 38.6531C5.00807 38.5935 6.01102 38.534 7.01398 38.469C7.80162 38.4176 8.58927 38.3716 9.37964 38.3282C9.87021 38.3039 10.3608 38.2741 10.8514 38.2525C11.2738 38.2335 11.6935 38.2146 12.116 38.1902C12.2877 38.1794 12.4566 38.1685 12.6283 38.1604C12.6665 38.8371 12.7074 39.5138 12.751 40.1933C12.7701 40.4964 12.8 40.7996 12.8218 41.1055C12.8436 41.368 12.8627 41.6333 12.8845 41.8959C12.999 43.2222 13.1135 44.5486 13.2634 45.8722C13.3724 46.8332 13.5114 47.786 13.6449 48.7442C13.7049 49.2341 13.7567 49.7214 13.7975 50.2113C13.803 50.2925 13.8084 50.3737 13.8139 50.4576C13.7158 50.5632 13.6149 50.6688 13.5168 50.7743L13.5114 50.7716ZM28.5039 34.3546C27.9152 34.9393 27.3292 35.5294 26.7433 36.1168C26.1355 36.7258 25.5386 37.3484 24.9363 37.9628C24.3803 38.5313 23.838 39.1132 23.2902 39.6898C23.0285 39.9659 22.7669 40.242 22.5025 40.5181C22.4426 40.5803 22.3881 40.648 22.3308 40.7103C22.17 40.8916 22.0092 41.073 21.8484 41.2543C21.4696 41.6793 21.0935 42.107 20.7147 42.532C20.5702 42.6944 20.4312 42.8541 20.2922 43.0219C19.6844 43.7528 19.0767 44.4863 18.4662 45.2172C17.9075 45.8885 17.3351 46.5489 16.771 47.2175C16.542 47.4882 16.3131 47.7562 16.0842 48.0269C16.0378 48.081 15.9861 48.1324 15.937 48.1839C15.7926 48.3382 15.6481 48.4924 15.5009 48.6467C15.1221 49.0501 14.7433 49.4534 14.3617 49.8594C14.3345 49.6158 14.3072 49.3722 14.2745 49.1286C14.2282 48.7821 14.1764 48.4356 14.1246 48.0891C14.0646 47.7102 14.0019 47.3312 13.9502 46.9495C13.9474 46.9306 13.9447 46.9117 13.942 46.8927V46.9062C13.912 46.6735 13.882 46.4434 13.8493 46.2106V46.197L13.8439 46.1591C13.7594 45.5203 13.694 44.8788 13.6258 44.2373C13.5632 43.6526 13.5114 43.0652 13.4596 42.4805C13.3969 41.7795 13.3397 41.0811 13.2824 40.38C13.2307 39.752 13.2007 39.1214 13.1598 38.4907C13.1516 38.3716 13.1462 38.2525 13.1407 38.1306C13.2824 38.1225 13.4242 38.1144 13.5659 38.1063C13.9801 38.0792 14.3971 38.0521 14.8114 38.0386C15.2638 38.0224 15.7162 38.0088 16.1714 37.998C16.632 37.9872 17.0953 37.9818 17.5559 37.9466C17.6349 37.9412 17.7112 37.933 17.7903 37.9249C17.8175 37.9195 17.8475 37.9168 17.8775 37.9141C17.932 37.8979 17.9783 37.8708 18.0192 37.8329C18.0792 37.7733 18.1146 37.6894 18.1146 37.6055C18.1146 37.5595 18.1037 37.5162 18.0846 37.4756C18.1855 37.4187 18.2618 37.324 18.2972 37.2076C18.488 36.558 18.6815 35.911 18.8641 35.2587C19.0331 34.6605 19.1993 34.0623 19.3683 33.464C19.4473 33.1798 19.5182 32.8956 19.5891 32.6087C19.7117 32.1025 19.8343 31.5963 19.957 31.0901C20.3794 31.0685 20.7991 31.0468 21.2216 31.0306C21.6904 31.0144 22.1591 31.0062 22.6306 30.9954C23.4673 30.9792 24.304 30.9765 25.1407 30.9629C25.5932 30.9548 26.0429 30.944 26.4953 30.925C26.8986 30.9061 27.302 30.8817 27.7081 30.8601C28.5557 30.814 29.4033 30.7843 30.2536 30.7734C30.8941 30.7653 31.5318 30.7626 32.1723 30.7572C32.0797 30.833 31.9979 30.9169 31.9134 31.0008C31.8153 31.0956 31.7199 31.1903 31.6218 31.285C31.4746 31.4312 31.3247 31.5747 31.1775 31.7208C30.9023 31.9915 30.6243 32.2595 30.3517 32.5302C29.7358 33.1365 29.1226 33.7456 28.5094 34.3546H28.5039Z" fill="#181133"></path><path d="M13.9586 46.9496V46.9577C13.9586 46.9414 13.9559 46.9225 13.9531 46.9062L13.9586 46.9496Z" fill="#181133"></path><path d="M13.8648 46.2386C13.8648 46.2224 13.8621 46.2088 13.8594 46.1953L13.8648 46.2386Z" fill="#181133"></path></g><defs><clipPath id="clip0_2045_4142"><rect width="143" height="136" fill="white"></rect></clipPath></defs></svg>