<svg xmlns="http://www.w3.org/2000/svg" width="986" height="477" viewBox="0 0 986 477" fill="none"><path d="M845.741 371.266L843.754 389.352L851.303 387.364L845.741 371.266Z" fill="#574D82"></path><path d="M827.858 374.045L846.136 371.461C846.136 371.461 858.454 373.846 858.652 379.013C858.851 384.181 854.083 385.373 854.083 385.373C849.513 389.15 835.805 390.74 835.805 390.74C835.209 392.528 832.031 396.503 832.031 396.503C832.031 396.503 831.236 398.69 830.242 400.081C829.448 401.075 827.064 401.472 825.474 401.87C824.878 401.87 824.481 401.472 824.68 400.876C825.673 398.69 827.858 393.522 828.057 392.727C828.454 391.535 833.024 384.578 833.024 384.578L828.653 391.535L825.077 394.715C825.077 394.715 821.501 401.075 820.309 402.466C819.514 403.46 817.329 403.46 816.336 403.46C815.938 403.46 815.74 403.062 815.74 402.665C816.932 400.28 820.508 392.528 820.905 391.535C821.501 390.342 827.66 383.386 827.66 383.386C827.66 383.386 821.501 386.566 820.508 387.361C819.514 387.957 814.746 396.305 812.76 397.298C811.766 397.895 810.177 397.895 809.183 397.497C808.587 397.298 808.389 396.702 808.587 396.106C810.375 393.125 815.938 384.777 816.733 383.585C817.726 382.392 824.68 379.013 824.68 379.013L817.13 383.187L811.766 391.137C810.177 392.33 808.19 392.131 806.799 391.932C806.203 391.932 806.005 391.137 806.203 390.74L815.144 377.225C815.938 376.032 817.13 375.436 818.322 375.237L827.858 374.045Z" stroke="#2D2453" stroke-width="0.5" stroke-miterlimit="10" stroke-linecap="round" stroke-linejoin="round"></path><path d="M577.531 188.215C577.531 188.215 580.312 185.234 582.299 186.228C582.299 186.228 577.928 184.836 577.332 185.035C576.935 185.433 577.531 188.215 577.531 188.215Z" fill="#574D82"></path><path d="M592.234 207.695C592.234 207.695 595.016 222.8 598.989 228.962L606.141 214.652C605.943 214.453 599.784 214.652 592.234 207.695Z" fill="#574D82"></path><path d="M844.547 230.152C844.547 230.152 847.13 229.159 849.315 229.556C849.315 229.556 849.514 226.774 848.123 226.774C846.732 226.575 844.547 230.152 844.547 230.152Z" fill="#574D82"></path><path d="M821.301 262.551L821.897 272.488C821.897 272.488 835.605 261.159 835.009 254.203C835.009 254.203 828.652 261.756 821.301 262.551Z" fill="#574D82"></path><path d="M212.178 345.429C208.801 341.852 221.118 298.524 219.926 288.189C218.933 280.239 198.271 271.097 198.271 271.097C198.271 271.097 187.146 280.438 174.629 279.047C162.113 277.656 152.378 248.042 152.378 248.042C120.988 246.849 94.168 257.979 87.6119 262.948C81.0558 267.917 69.1355 316.014 62.3808 336.684C55.626 357.354 60.7914 367.292 66.3542 372.857C71.9169 378.422 138.869 373.851 138.869 373.851L139.663 369.081L180.192 368.882C178.801 368.087 177.411 366.894 177.013 365.503C176.616 363.516 174.828 357.553 174.828 357.553C174.828 357.553 171.451 355.367 169.861 353.777C168.868 352.783 167.08 353.777 166.683 353.181L172.245 363.714C172.444 364.112 172.245 364.509 171.848 364.708C170.855 364.907 169.265 365.106 167.875 364.112C165.888 362.721 162.511 358.547 161.12 358.547C159.729 358.547 152.577 363.516 149.001 363.913C145.425 364.311 135.094 363.317 135.094 363.317L137.478 345.032L171.053 340.858C171.848 340.659 172.643 340.858 173.437 341.057C173.437 341.057 188.735 335.889 190.324 336.684C191.715 337.281 196.88 343.243 199.463 346.423C200.059 347.218 199.662 348.411 198.669 348.411C197.874 348.411 196.682 348.411 195.887 348.013C193.503 347.218 188.338 344.237 188.338 344.237L181.782 348.013L180.788 347.218C183.768 350.001 186.55 352.982 187.146 353.976C188.139 356.162 188.735 365.702 188.934 369.279L210.191 369.081L219.926 349.206C216.35 348.013 213.171 346.622 212.178 345.429Z" fill="#2D2453"></path><path d="M183.172 369.079H184.563C183.768 368.284 183.172 367.688 183.172 367.688C183.172 367.688 183.172 367.886 183.172 368.284C183.172 368.483 183.172 368.88 183.172 369.079Z" fill="#2D2453"></path><path d="M283.898 260.961V310.847" stroke="#2D2453" stroke-width="0.5" stroke-miterlimit="10"></path><path d="M283.898 374.838H74.5V246.445H154.365L140.458 264.134L168.471 295.139L193.503 284.208L203.437 277.848C203.437 277.848 199.662 275.065 196.881 270.295C195.291 267.513 195.689 266.122 195.689 266.122C195.689 266.122 202.245 263.339 206.814 258.569C210.986 253.998 215.357 246.644 215.357 246.644H253.899" stroke="#2D2453" stroke-width="0.5" stroke-miterlimit="10"></path><path d="M368.928 181.461H253.898V260.961H368.928V181.461Z" stroke="#2D2453" stroke-width="0.5" stroke-miterlimit="10"></path><path d="M290.652 181.259V54.2578H508.991V175.098" stroke="#2D2453" stroke-width="0.5" stroke-miterlimit="10"></path><path d="M635.148 175.492H669.121" stroke="#2D2453" stroke-width="0.5" stroke-miterlimit="10"></path><path d="M521.705 313.623H488.527V175.492H573.558" stroke="#2D2453" stroke-width="0.5" stroke-miterlimit="10"></path><path d="M696.534 240.484V313.624H629.781" stroke="#2D2453" stroke-width="0.5" stroke-miterlimit="10"></path><path d="M795.873 381.397H741.238V243.266H804.614" stroke="#2D2453" stroke-width="0.5" stroke-miterlimit="10"></path><path d="M847.328 243.266H925.405V381.397H848.719" stroke="#2D2453" stroke-width="0.5" stroke-miterlimit="10"></path><path d="M171.055 251.812C173.041 261.154 176.617 262.545 181.187 266.321C185.756 270.098 192.312 272.284 198.273 271.886C196.484 270.694 195.491 268.11 196.087 266.122C193.107 267.514 189.531 267.116 186.551 265.924C183.372 264.533 179.399 262.744 177.015 260.359C174.432 257.974 172.843 254.992 171.055 251.812Z" fill="#574D82"></path><path d="M273.367 236.512L273.168 238.699L287.671 231.345V228.562L273.367 236.512Z" fill="#574D82"></path><path d="M290.852 233.129L335.95 203.516L336.546 205.901L290.852 233.129Z" fill="#574D82"></path><path d="M201.648 205.109C202.443 204.91 203.436 205.507 203.834 206.302C204.231 207.097 204.43 208.09 204.827 208.885C205.622 210.277 207.211 210.873 208.602 211.27C213.569 212.86 218.734 213.258 224.694 214.848C224.297 210.277 219.727 205.109 215.357 203.122C212.575 201.929 209.595 201.333 206.814 201.929C204.827 202.327 202.84 203.32 201.648 205.109Z" fill="#574D82"></path><path d="M163.305 219.023C164.298 220.017 165.291 221.011 166.285 222.005C167.079 222.8 167.874 223.396 168.669 223.793C167.278 224.191 166.682 225.185 166.682 225.185C166.483 225.185 166.086 224.588 165.887 224.39C164.695 222.601 163.702 220.812 163.305 219.023Z" fill="#574D82"></path><path d="M137.876 345.625L135.293 362.916L141.253 363.513L137.876 345.625Z" fill="#574D82"></path><path d="M151.781 249.032C156.152 245.653 159.132 240.485 159.927 235.119C160.125 234.324 160.125 233.728 159.927 232.933C159.728 232.138 159.132 231.74 158.536 231.144C156.152 228.56 155.159 224.784 155.953 221.405C156.748 218.027 159.132 215.045 162.509 213.654C161.119 208.288 163.9 202.325 168.668 199.543C171.251 198.152 174.43 197.555 177.41 197.357C190.522 195.965 204.23 197.357 215.554 203.915C219.13 205.903 222.707 208.685 224.097 212.66C225.488 216.238 224.892 220.014 224.296 223.79C221.713 235.715 215.952 247.044 208.402 256.584C205.224 260.758 200.853 263.54 196.085 265.727C187.939 269.702 169.463 259.565 170.854 245.454" stroke="#2D2453" stroke-width="0.5" stroke-miterlimit="10" stroke-linecap="round" stroke-linejoin="round"></path><path d="M217.742 145.881C216.352 145.682 214.961 145.682 213.57 146.079C212.18 146.477 210.988 147.272 210.193 148.464C209.597 149.458 209.398 150.849 210.193 151.446C208.206 150.849 206.021 150.452 204.034 150.651C202.048 150.849 199.862 152.042 198.869 153.831C198.273 155.023 197.875 156.414 197.875 157.607C197.677 158.799 197.875 160.191 198.869 160.986C197.279 160.986 195.69 160.986 194.101 161.184C193.107 161.383 192.313 161.582 191.518 161.979C190.723 162.576 190.326 163.371 189.929 164.166C189.333 165.358 189.134 166.551 189.134 167.743C189.134 168.936 189.73 170.327 190.723 171.122C188.141 171.122 185.558 171.519 183.174 172.116C181.783 172.513 180.591 172.911 179.598 173.706C178.406 174.699 178.008 176.289 177.81 177.879C177.412 181.457 178.406 185.034 180.393 188.016C176.816 188.811 173.439 189.606 169.863 190.798C168.87 191.196 160.128 192.984 161.121 201.332C161.32 202.723 162.512 205.108 163.903 205.506C169.267 206.499 173.638 205.704 184.565 205.704C187.743 205.704 198.67 207.891 201.849 208.089C205.028 208.487 201.253 205.506 203.438 205.108C205.822 204.711 205.822 209.679 208.802 210.077C211.981 210.474 218.14 211.866 221.319 212.064C223.901 212.263 226.683 212.263 229.265 211.269C231.848 210.276 233.835 208.089 234.033 205.307C234.232 203.518 233.239 201.531 232.047 200.139C230.855 198.748 229.265 197.556 227.676 196.562C226.087 195.568 224.696 194.574 223.305 193.581C224.895 193.183 226.484 192.587 227.676 191.394C228.868 190.202 229.861 188.612 229.464 187.022C229.265 186.028 228.669 185.233 228.073 184.438C226.285 182.252 224.497 180.066 222.511 178.078C225.292 177.283 227.875 176.289 230.457 174.898C232.444 173.904 234.431 172.513 234.629 170.327C234.828 168.737 233.835 167.147 232.841 165.756C231.848 164.364 230.656 163.172 230.06 161.383C231.252 160.787 232.643 160.191 233.636 159.396C234.629 158.601 235.424 157.209 235.424 155.818C235.424 154.228 234.431 152.837 233.239 151.843C228.868 147.669 222.908 145.284 216.749 145.881C216.55 146.079 216.55 146.079 217.742 145.881Z" fill="#2D2453"></path><path d="M196.286 265.93C195.889 268.315 196.882 270.501 198.67 272.29" stroke="#2D2453" stroke-width="0.5" stroke-miterlimit="10" stroke-linecap="round" stroke-linejoin="round"></path><path d="M161.715 214.053C164.298 212.86 167.675 213.258 169.86 214.848C172.244 216.438 173.635 219.419 173.436 222.4" stroke="#2D2453" stroke-width="0.5" stroke-miterlimit="10" stroke-linecap="round" stroke-linejoin="round"></path><path d="M168.47 233.928C166.881 234.127 165.093 234.326 163.504 233.928C161.914 233.73 160.126 232.935 159.133 231.742" stroke="#2D2453" stroke-width="0.5" stroke-miterlimit="10" stroke-linecap="round" stroke-linejoin="round"></path><path d="M168.867 219.82C166.88 218.628 164.496 218.031 162.509 219.025C160.324 219.82 158.933 222.205 159.529 224.391" stroke="#2D2453" stroke-width="0.5" stroke-miterlimit="10" stroke-linecap="round" stroke-linejoin="round"></path><path d="M162.906 219.023C163.502 221.21 164.694 223.197 166.482 224.787" stroke="#2D2453" stroke-width="0.5" stroke-miterlimit="10" stroke-linecap="round" stroke-linejoin="round"></path><path d="M199.265 227.372C198.669 225.981 197.477 224.987 196.087 224.589C194.696 224.192 193.107 224.391 191.915 225.186C191.319 225.583 190.723 225.981 190.723 226.776" stroke="#2D2453" stroke-width="0.5" stroke-miterlimit="10" stroke-linecap="round" stroke-linejoin="round"></path><path d="M208.998 226.375C208.004 226.772 207.408 227.965 207.408 228.959C207.21 229.952 207.408 231.145 207.607 232.139C208.203 234.921 208.6 237.704 209.196 240.287C209.395 241.082 209.395 241.679 209.196 242.474C208.998 243.07 208.203 243.666 207.607 243.666C206.812 243.467 206.415 242.672 205.62 242.672C204.826 242.672 204.428 243.865 203.634 244.262C203.038 244.66 202.044 244.66 201.448 243.865C201.051 243.269 201.051 242.275 200.256 241.877C199.859 241.679 199.461 241.679 199.064 241.679C197.872 241.679 196.68 241.281 196.084 240.486C195.289 239.691 195.488 238.101 196.481 237.704" stroke="#2D2453" stroke-width="0.5" stroke-miterlimit="10" stroke-linecap="round" stroke-linejoin="round"></path><path d="M209.199 231.745C209.994 229.957 211.981 228.963 213.769 229.36C215.557 229.758 216.947 231.944 216.55 233.733" stroke="#2D2453" stroke-width="0.5" stroke-miterlimit="10" stroke-linecap="round" stroke-linejoin="round"></path><path d="M187.742 246.25C187.742 247.442 188.338 248.635 189.133 249.629C190.325 251.219 191.517 252.809 193.305 253.604C194.497 254.2 195.888 254.2 197.278 254.399" stroke="#2D2453" stroke-width="0.5" stroke-miterlimit="10" stroke-linecap="round" stroke-linejoin="round"></path><path d="M201.649 213.653C201.45 215.044 201.251 216.833 199.861 217.231C199.463 217.429 199.066 217.231 198.669 217.231C192.907 216.436 188.537 216.038 183.371 217.827C183.768 216.634 183.57 215.243 184.364 214.249C184.563 214.051 184.96 213.852 185.358 213.653C190.325 211.069 196.483 211.268 201.649 213.653Z" fill="#2D2453"></path><path d="M211.979 215.048C211.185 216.042 210.191 217.433 210.787 218.626C211.185 219.421 211.979 219.818 212.774 220.216C214.363 221.011 216.151 221.607 217.741 222.402C219.33 223.197 220.919 224.389 221.714 225.979C223.303 224.986 224.496 223.197 223.9 221.408C223.701 220.812 223.303 220.216 222.906 219.619C220.919 217.234 218.138 215.446 215.158 214.452C213.966 214.452 212.575 214.253 211.979 215.048Z" fill="#2D2453"></path><path d="M218.933 240.688C222.708 243.47 225.092 248.041 225.092 253.209C225.092 261.954 218.138 268.91 209.397 268.91C205.423 268.91 201.649 267.32 198.867 264.935L202.046 262.948C204.033 264.538 206.615 265.332 209.198 265.332C215.953 265.332 221.317 259.966 221.317 253.209C221.317 249.631 219.728 246.253 217.145 244.066L218.933 240.688Z" fill="#FFC700"></path><path d="M290.654 238.102L289.859 242.673L293.833 239.89L290.654 238.102Z" fill="#574D82"></path><path d="M268.602 231.942L319.461 202.328V207.893L314.097 210.874L268.602 231.942Z" fill="#574D82"></path><path d="M304.164 232.337L304.363 249.231L347.275 217.033L347.673 202.922L304.164 232.337Z" stroke="#2D2453" stroke-width="0.5" stroke-miterlimit="10" stroke-linecap="round" stroke-linejoin="round"></path><path d="M289.262 226.378L290.454 234.129L299.791 237.507L302.175 231.148L304.162 232.141V249.234H301.977L299.99 242.476L290.454 237.905L289.858 243.073L287.871 243.271V225.781L289.262 226.378Z" stroke="#2D2453" stroke-width="0.5" stroke-miterlimit="10" stroke-linecap="round" stroke-linejoin="round"></path><path d="M294.031 239.695L289.859 243.074" stroke="#2D2453" stroke-width="0.5" stroke-miterlimit="10" stroke-linecap="round" stroke-linejoin="round"></path><path d="M290.453 233.731L336.743 205.906" stroke="#2D2453" stroke-width="0.5" stroke-miterlimit="10" stroke-linecap="round" stroke-linejoin="round"></path><path d="M289.46 226.578L335.353 200.74L333.367 199.945L287.871 225.783L289.46 226.578Z" stroke="#2D2453" stroke-width="0.5" stroke-miterlimit="10" stroke-linecap="round" stroke-linejoin="round"></path><path d="M302.176 230.944L345.685 202.125L347.671 202.721L304.361 232.136L302.176 230.944Z" stroke="#2D2453" stroke-width="0.5" stroke-miterlimit="10" stroke-linecap="round" stroke-linejoin="round"></path><path d="M335.355 200.734L336.746 205.902L339.528 206.101" stroke="#2D2453" stroke-width="0.5" stroke-miterlimit="10" stroke-linecap="round" stroke-linejoin="round"></path><path d="M260.258 215.843L312.707 195.57L324.23 198.353L272.178 220.812L260.258 215.843Z" stroke="#2D2453" stroke-width="0.5" stroke-miterlimit="10" stroke-linecap="round" stroke-linejoin="round"></path><path d="M272.176 221.009L272.374 222.997L324.426 199.942L324.227 198.352L272.176 221.009Z" stroke="#2D2453" stroke-width="0.5" stroke-miterlimit="10" stroke-linecap="round" stroke-linejoin="round"></path><path d="M260.258 216.039L260.456 217.828L265.423 221.405V231.144L261.251 230.349V232.337L272.774 238.895L273.171 236.51L268.006 231.939L268.205 222.399L272.178 223.194V220.809L260.258 216.039Z" stroke="#2D2453" stroke-width="0.5" stroke-miterlimit="10" stroke-linecap="round" stroke-linejoin="round"></path><path d="M268.402 232.142L313.302 211.273" stroke="#2D2453" stroke-width="0.5" stroke-miterlimit="10" stroke-linecap="round" stroke-linejoin="round"></path><path d="M273.168 236.512L287.671 228.562" stroke="#2D2453" stroke-width="0.5" stroke-miterlimit="10" stroke-linecap="round" stroke-linejoin="round"></path><path d="M272.773 238.896L287.475 231.344" stroke="#2D2453" stroke-width="0.5" stroke-miterlimit="10" stroke-linecap="round" stroke-linejoin="round"></path><path d="M261.25 230.347L265.223 228.359" stroke="#2D2453" stroke-width="0.5" stroke-miterlimit="10" stroke-linecap="round" stroke-linejoin="round"></path><path d="M319.66 202.328V207.694" stroke="#2D2453" stroke-width="0.5" stroke-miterlimit="10" stroke-linecap="round" stroke-linejoin="round"></path><path d="M136.684 345.227C136.684 345.227 89.5993 371.859 67.5469 373.847C67.5469 373.847 79.0697 379.412 111.254 372.654C130.724 368.48 133.505 365.698 133.505 365.698L136.684 345.227Z" fill="#181133"></path><path d="M102.51 320.977C102.51 320.977 100.524 324.753 97.9411 326.74C95.3583 328.728 93.5703 329.324 93.5703 329.324L98.7357 331.113L102.51 320.977Z" fill="#181133"></path><path d="M133.902 365.501L136.683 345.228L92.7773 329.328" stroke="white" stroke-width="0.5" stroke-miterlimit="10" stroke-linecap="round" stroke-linejoin="round"></path><path d="M190.922 345.43L191.12 349.802" stroke="white" stroke-width="0.5" stroke-miterlimit="10" stroke-linecap="round" stroke-linejoin="round"></path><path d="M185.754 351.392C192.111 349.603 207.21 345.628 212.574 346.224" stroke="white" stroke-width="0.5" stroke-miterlimit="10" stroke-linecap="round" stroke-linejoin="round"></path><path d="M85.8242 376.037C87.2149 375.838 88.8043 375.64 90.195 375.441C103.307 373.453 118.009 371.267 133.306 365.305C133.505 365.305 133.902 365.305 133.902 365.503C133.902 365.702 133.902 366.1 133.704 366.1C119.399 371.466 105.691 373.851 93.3737 375.64L85.8242 376.037Z" fill="white"></path><path d="M98.7383 331.312L114.632 289.773" stroke="white" stroke-width="0.5" stroke-miterlimit="10" stroke-linecap="round" stroke-linejoin="round"></path><path d="M205.027 368.088L189.133 367.691C189.133 367.691 190.127 370.473 188.537 370.473C185.756 370.672 183.769 367.492 183.769 367.492C183.769 367.492 184.961 369.082 182.776 369.48C180.591 369.877 179.2 367.89 179.2 367.89H132.711L131.32 374.448L203.636 374.25L205.027 368.088Z" fill="#2D2453"></path><path d="M205.027 368.088L189.133 367.691C189.133 367.691 190.127 370.473 188.537 370.473C185.756 370.672 183.769 367.492 183.769 367.492C183.769 367.492 184.961 369.082 182.776 369.48C180.591 369.877 179.2 367.89 179.2 367.89H132.711L131.32 374.448L203.636 374.25L205.027 368.088Z" stroke="#2D2453" stroke-width="0.5" stroke-miterlimit="10" stroke-linecap="round" stroke-linejoin="round"></path><path d="M238.603 310.644L207.412 374.244L200.855 373.847L232.643 310.445L238.603 310.644Z" fill="#2D2453"></path><path d="M238.603 310.644L207.412 374.244L200.855 373.847L232.643 310.445L238.603 310.644Z" stroke="#2D2453" stroke-width="0.5" stroke-miterlimit="10"></path><path d="M283.502 374.844L314.296 311.244L232.841 310.25L198.074 374.446L283.502 374.844Z" stroke="#2D2453" stroke-width="0.5" stroke-miterlimit="10" stroke-linecap="round" stroke-linejoin="round"></path><path d="M265.027 353.779C268.977 353.779 272.179 350.575 272.179 346.624C272.179 342.672 268.977 339.469 265.027 339.469C261.077 339.469 257.875 342.672 257.875 346.624C257.875 350.575 261.077 353.779 265.027 353.779Z" stroke="#2D2453" stroke-width="0.5" stroke-miterlimit="10"></path><path d="M203.637 374.446L237.61 310.25H232.444L198.074 374.446H203.637Z" fill="#2D2453"></path><path d="M188.938 367.882L201.056 367.684L212.579 346.219" stroke="white" stroke-width="0.5" stroke-miterlimit="10" stroke-linecap="round" stroke-linejoin="round"></path><path d="M132.117 375.038L135.892 368.28L178.606 367.883" stroke="white" stroke-width="0.5" stroke-miterlimit="10" stroke-linecap="round" stroke-linejoin="round"></path><path d="M163.707 258.773C154.965 258.773 148.012 251.817 148.012 243.072C148.012 237.507 150.992 232.141 155.959 229.358C156.555 228.961 156.753 229.557 157.548 230.551C158.343 231.544 158.541 231.942 157.747 232.339C153.972 234.526 151.588 238.501 151.588 242.873C151.588 249.631 156.952 254.997 163.707 254.997C170.461 254.997 175.826 249.631 175.826 242.873C175.826 236.116 170.461 230.749 163.707 230.749C162.713 230.749 161.919 229.954 161.919 228.961C161.919 227.967 162.713 227.172 163.707 227.172C172.448 227.172 179.402 234.128 179.402 242.873C179.402 251.817 172.448 258.773 163.707 258.773Z" fill="#FFC700"></path><path d="M518.73 64.7903C620.052 -1.19467 641.707 15.6991 647.071 18.8791C656.21 24.6428 663.362 37.9591 659.588 48.0953C654.621 61.6103 630.582 87.8453 624.026 83.4728C617.47 79.1003 630.979 64.1941 644.489 68.7653C657.998 73.3366 672.303 97.3853 644.886 157.805" stroke="#FFC700" stroke-miterlimit="10" stroke-linecap="round" stroke-linejoin="round"></path><path d="M146.818 220.011C128.541 195.366 107.084 138.722 125.163 121.033C143.64 103.146 159.136 115.866 168.473 124.213C177.811 132.362 181.586 157.802 173.043 157.802C164.5 157.802 172.645 132.561 177.413 128.983C199.665 112.487 231.054 112.884 256.683 123.617" stroke="#FFC700" stroke-miterlimit="10" stroke-linecap="round" stroke-linejoin="round"></path><path d="M230.258 388.75C253.105 432.475 306.945 452.946 356.215 449.368C369.526 448.375 384.029 444.996 391.379 434.064C395.949 427.307 396.545 411.407 386.214 414.985C375.883 418.562 392.174 441.617 403.896 449.368C448.199 478.783 507.204 474.212 557.269 456.325C574.156 450.163 593.03 439.629 594.619 421.742C595.414 413.196 592.036 404.848 587.665 397.296C583.692 390.141 576.937 382.588 568.99 383.979C560.845 385.569 557.269 395.706 558.461 404.053C561.044 422.14 576.937 435.456 593.228 444.002C640.512 468.846 700.311 468.25 747.198 442.81C766.667 432.276 784.945 415.978 788.72 394.116" stroke="#FFC700" stroke-miterlimit="10" stroke-linecap="round" stroke-linejoin="round"></path><path d="M193.843 111.295C193.149 110.476 180.65 93.3919 176.599 84.3816C171.275 72.446 178.798 61.2125 188.288 58.4041C201.019 54.6596 213.865 65.074 212.476 78.2968C212.245 80.7542 211.319 83.2115 210.277 85.4348C206.226 94.562 194.075 110.944 193.843 111.295ZM193.727 69.7547C190.14 69.7547 187.246 72.7971 187.246 76.3075C187.246 79.935 190.255 82.8604 193.843 82.8604C197.431 82.8604 200.324 79.935 200.324 76.3075C200.208 72.6801 197.315 69.7547 193.727 69.7547Z" fill="#574D82"></path><path d="M701.458 89.4359C700.839 88.8288 690.307 74.8659 686.9 67.4292C682.409 57.7158 688.758 48.6096 696.812 46.333C707.498 43.2976 718.339 51.7967 717.1 62.5725C716.945 64.5455 716.171 66.5185 715.242 68.4915C711.835 75.7766 701.613 89.1324 701.458 89.4359ZM701.303 55.591C698.361 55.591 695.883 58.0194 695.883 60.903C695.883 63.7866 698.361 66.215 701.458 66.215C704.556 66.215 706.879 63.7867 706.879 60.7512C706.879 57.8676 704.401 55.591 701.303 55.591Z" fill="#574D82"></path><path d="M689.636 447.183C688.63 446.189 671.516 423.341 665.979 411.172C658.681 395.277 668.999 380.376 682.086 376.651C699.452 371.684 717.069 385.591 715.055 403.224C714.804 406.453 713.545 409.682 712.035 412.91C706.75 424.831 690.14 446.686 689.636 447.183ZM689.636 391.8C684.855 391.8 680.828 395.774 680.828 400.493C680.828 405.211 684.855 409.185 689.888 409.185C694.922 409.185 698.697 405.211 698.697 400.244C698.445 395.774 694.67 391.8 689.636 391.8Z" fill="#574D82"></path><path d="M759.914 128.789H669.32V240.288H759.914V128.789Z" stroke="#2D2453" stroke-width="0.5" stroke-miterlimit="10"></path><path d="M695.943 147.467C695.943 151.64 692.565 155.019 688.393 155.019C684.221 155.019 680.844 151.64 680.844 147.467C680.844 143.293 684.221 139.914 688.393 139.914C692.565 139.914 695.943 143.293 695.943 147.467Z" fill="#574D82"></path><path d="M695.943 173.31C695.943 177.484 692.565 180.863 688.393 180.863C684.221 180.863 680.844 177.484 680.844 173.31C680.844 169.137 684.221 165.758 688.393 165.758C692.565 165.758 695.943 169.137 695.943 173.31Z" fill="#574D82"></path><path d="M695.943 199.146C695.943 203.32 692.565 206.699 688.393 206.699C684.221 206.699 680.844 203.32 680.844 199.146C680.844 194.972 684.221 191.594 688.393 191.594C692.565 191.594 695.943 194.972 695.943 199.146Z" fill="#574D82"></path><path d="M695.943 224.982C695.943 229.156 692.565 232.535 688.393 232.535C684.221 232.535 680.844 229.156 680.844 224.982C680.844 220.808 684.221 217.43 688.393 217.43C692.565 217.43 695.943 220.808 695.943 224.982Z" fill="#574D82"></path><path d="M742.233 153.829H712.83C709.254 153.829 706.473 151.047 706.473 147.469C706.473 143.892 709.254 141.109 712.83 141.109H742.233C745.809 141.109 748.591 143.892 748.591 147.469C748.591 151.047 745.809 153.829 742.233 153.829Z" fill="#CECADE"></path><path d="M742.233 179.665H712.83C709.254 179.665 706.473 176.883 706.473 173.305C706.473 169.728 709.254 166.945 712.83 166.945H742.233C745.809 166.945 748.591 169.728 748.591 173.305C748.591 176.883 745.809 179.665 742.233 179.665Z" fill="#CECADE"></path><path d="M742.233 205.509H712.83C709.254 205.509 706.473 202.727 706.473 199.149C706.473 195.572 709.254 192.789 712.83 192.789H742.233C745.809 192.789 748.591 195.572 748.591 199.149C748.591 202.727 745.809 205.509 742.233 205.509Z" fill="#CECADE"></path><path d="M742.233 231.345H712.83C709.254 231.345 706.473 228.562 706.473 224.985C706.473 221.407 709.254 218.625 712.83 218.625H742.233C745.809 218.625 748.591 221.407 748.591 224.985C748.591 228.562 745.809 231.345 742.233 231.345Z" fill="#CECADE"></path><path d="M757.334 218.023C771.042 218.023 782.168 229.153 782.168 242.867C782.168 256.581 771.042 267.711 757.334 267.711C743.626 267.711 732.5 256.581 732.5 242.867C732.5 229.153 743.626 218.023 757.334 218.023Z" fill="#2D2453"></path><path d="M743.027 246.252L754.749 257.183L771.636 232.141" stroke="white" stroke-width="2" stroke-miterlimit="10" stroke-linecap="round" stroke-linejoin="round"></path><path d="M377.673 113.289C374.891 124.419 376.282 134.754 377.275 135.152C378.467 135.549 387.01 133.959 388.004 133.562C392.772 131.972 397.54 129.984 401.712 127.4C405.884 124.618 411.049 119.848 413.632 115.475C402.308 117.86 388.798 116.867 377.673 113.289Z" fill="#574D82"></path><path d="M441.049 88.4453C440.651 90.4328 439.658 90.8303 437.075 92.6191C431.314 96.5941 426.744 91.6253 426.148 94.4078C428.731 96.3953 432.307 97.1903 435.486 96.1966C438.665 95.0041 441.049 91.8241 441.049 88.4453Z" fill="#574D82"></path><path d="M406.084 62.8061C406.481 63.4023 407.276 63.2036 407.872 63.2036C411.051 62.8061 414.428 64.3961 416.018 67.1786C416.415 67.9736 417.011 69.1661 417.806 69.3649C418.6 69.5636 419.395 68.7686 419.991 68.1723C420.786 67.1786 420.984 65.3899 419.991 64.3961C414.031 58.6324 412.243 58.8311 407.276 59.4273C406.482 59.6261 405.488 62.0111 406.084 62.8061Z" fill="#2D2453"></path><path d="M406.281 68.5656C407.871 67.9694 409.659 67.9694 411.049 68.7644C412.44 69.5594 413.433 71.1494 413.632 72.7394" stroke="#2D2453" stroke-width="0.5" stroke-miterlimit="10" stroke-linecap="round" stroke-linejoin="round"></path><path d="M385.223 70.9506C386.017 69.9569 386.812 68.7644 388.004 68.1681C389.196 67.5719 390.587 67.3731 391.779 67.9694" stroke="#2D2453" stroke-width="0.5" stroke-miterlimit="10" stroke-linecap="round" stroke-linejoin="round"></path><path d="M394.958 64.7891C394.759 67.1741 393.567 69.5591 391.978 71.3478C391.382 71.9441 390.786 72.5403 390.587 73.3353C390.388 74.1303 390.388 75.1241 391.183 75.5216C392.375 76.1178 393.964 74.7266 394.958 75.5216C395.355 75.9191 395.752 76.5153 396.348 76.3166C396.746 76.3166 396.944 75.9191 397.143 75.5216C397.739 75.1241 398.534 75.5216 399.328 75.5216C399.924 75.5216 400.719 75.1241 400.918 74.5278C401.116 73.9316 401.116 73.1366 400.719 72.7391" stroke="#2D2453" stroke-width="0.5" stroke-miterlimit="10" stroke-linecap="round" stroke-linejoin="round"></path><path d="M428.93 88.6439C429.923 88.0477 430.916 87.2527 432.108 86.8552C433.3 86.4577 434.492 86.4577 435.684 87.0539C436.678 87.6502 437.473 88.8427 437.473 90.0352" stroke="#2D2453" stroke-width="0.5" stroke-miterlimit="10" stroke-linecap="round" stroke-linejoin="round"></path><path d="M433.501 86.8516C433.898 87.8453 433.699 88.8391 433.302 89.8328C432.905 90.8266 431.911 91.4228 430.918 91.6216" stroke="#2D2453" stroke-width="0.5" stroke-miterlimit="10" stroke-linecap="round" stroke-linejoin="round"></path><path d="M434.294 78.7031C437.871 79.4981 440.652 82.6781 441.049 86.2556C441.447 89.8331 439.659 93.6094 436.48 95.3981C433.301 97.1869 429.129 96.7894 426.348 94.4044" stroke="#2D2453" stroke-width="0.5" stroke-miterlimit="10" stroke-linecap="round" stroke-linejoin="round"></path><path d="M393.568 63.0042C388.8 63.4017 384.826 67.7742 384.429 67.3767C384.032 66.9792 382.641 65.3892 382.84 64.793C383.038 64.1967 386.813 59.8242 389.793 58.6317C390.588 58.2342 391.581 58.0355 392.574 58.2342C393.568 58.433 394.362 59.0292 394.76 59.8242C394.959 60.818 394.363 63.0042 393.568 63.0042Z" fill="#2D2453"></path><path d="M425.749 107.922C427.736 107.922 429.524 106.928 430.915 105.537C432.306 104.146 432.902 102.158 432.902 100.37C432.902 99.5747 432.703 98.9784 432.902 98.1834C433.1 97.3884 433.498 96.7922 434.094 96.5934C431.312 97.1897 428.332 96.5934 426.147 94.8047C426.345 99.1772 425.948 103.55 425.551 107.922C425.551 107.922 425.551 107.922 425.749 107.922Z" fill="#2D2453"></path><path d="M438.07 67.3749C435.09 63.7974 429.924 63.3999 428.136 59.0274C426.944 56.2449 427.143 53.0649 425.553 50.4812C423.567 47.3012 419.991 45.3137 416.216 45.3137C412.441 45.1149 408.468 46.1087 405.289 44.1212C402.905 42.5312 400.72 40.3449 398.733 38.3574C394.759 34.7799 388.601 34.1837 384.031 36.9662C379.462 39.7487 376.283 46.1087 377.078 51.2762C377.873 56.4437 383.634 57.8349 386.813 58.6299C389.594 59.2262 393.965 55.4499 399.925 55.8474C410.653 56.6424 418.6 56.8412 423.964 64.1949C426.149 67.3749 426.547 71.3499 425.355 75.1262C423.567 80.6912 421.977 83.6724 417.805 86.6537C414.229 89.0387 408.865 88.8399 405.488 86.2562C403.501 84.6662 401.316 82.6787 398.733 81.4862C396.746 80.4924 395.952 81.4862 393.766 80.8899C392.574 80.4924 390.19 79.6974 388.998 79.2999C384.826 78.3062 380.654 84.4674 376.681 82.6787C375.29 82.0824 375.29 81.8837 375.091 80.4924C374.892 79.1012 376.879 74.5299 377.277 73.1387C378.866 67.5737 382.243 64.9899 385.819 60.4187C386.018 60.2199 385.819 59.8224 385.621 59.6237C384.23 59.2262 382.243 57.8349 380.654 56.8412C377.277 54.8537 377.277 54.8537 374.694 57.6362C371.118 61.2137 373.303 64.1949 372.906 69.3624C372.906 70.5549 371.316 74.3312 371.316 80.8899C371.316 92.8149 371.714 107.721 379.462 117.062C383.038 121.236 388.799 123.422 394.561 123.621C404.494 123.621 416.216 115.87 420.388 112.491C424.56 109.112 424.957 104.939 425.553 99.5724C425.951 95.9949 424.361 93.4112 424.957 89.8337C425.156 87.8462 426.348 86.0574 428.136 84.8649C430.719 83.0762 434.494 79.6974 437.672 81.4862C438.268 81.8837 439.063 82.2812 439.659 82.0824C440.255 81.8837 440.454 81.0887 440.454 80.4924C441.05 76.5174 440.454 70.5549 438.07 67.3749ZM394.163 93.4112C393.965 93.8087 393.369 94.0074 392.971 94.2062C390.786 95.0012 388.005 95.0012 385.819 93.8087C385.422 93.6099 385.025 93.4112 384.826 93.0137C384.627 92.6162 384.429 92.2187 384.627 91.8212C384.826 91.4237 385.422 91.2249 385.819 91.2249C387.409 90.8274 388.799 90.6287 389.991 90.8274C393.766 91.4237 394.561 93.0137 394.163 93.4112Z" fill="#2D2453"></path><path d="M844.548 203.316C844.548 203.316 837.992 191.193 820.311 195.168C802.629 199.143 803.225 212.856 803.225 212.856C803.225 212.856 803.225 250.619 807.794 257.973C812.364 265.128 821.304 262.345 821.304 262.345L821.701 273.674C821.701 273.674 823.092 281.028 830.84 282.021C853.687 285.201 849.317 262.345 849.317 262.345L846.337 238.694C846.337 238.694 852.694 238.495 855.277 234.123C860.839 224.583 844.548 203.316 844.548 203.316Z" stroke="#2D2453" stroke-width="0.5" stroke-miterlimit="10" stroke-linecap="round" stroke-linejoin="round"></path><path d="M843.95 203.517C840.97 204.709 838.188 206.895 837.394 209.877C836.599 212.858 837.394 217.032 838.785 219.615C839.182 220.212 839.778 222.597 840.175 222.994C841.765 224.584 843.95 221.603 846.135 221.404C848.917 221.205 851.698 222.994 852.691 225.777C853.685 228.36 852.89 232.932 851.301 235.317C849.711 237.702 845.738 238.298 845.738 238.298C845.738 238.298 845.937 239.888 846.334 241.478C846.93 243.863 850.109 244.857 852.294 244.062C854.479 243.267 856.069 241.08 857.46 239.093C858.85 236.708 857.658 233.727 858.652 230.944C859.645 227.963 861.83 224.982 861.234 221.802C860.837 218.622 859.645 216.237 856.665 215.044C855.672 214.647 854.877 214.249 854.281 213.653C852.294 211.665 853.685 208.485 852.095 205.703C850.903 202.523 846.731 202.324 843.95 203.517Z" fill="#2D2453"></path><path d="M819.714 218.223C819.714 218.62 819.912 219.216 820.111 219.614C820.31 219.813 820.707 220.011 821.104 220.011C822.495 220.21 823.886 219.813 825.475 219.614C827.661 219.216 829.846 219.216 832.031 220.011C832.826 220.21 833.621 220.608 834.415 220.608C834.614 220.608 835.011 220.608 835.21 220.409C835.409 220.21 835.607 219.813 835.607 219.614C835.806 218.421 835.806 217.229 835.409 216.036C835.21 215.44 835.011 214.645 834.614 214.248C833.819 213.254 832.627 212.856 831.435 212.459C828.257 211.664 825.078 211.266 821.899 211.664C820.707 211.863 819.912 211.863 819.714 213.254C819.316 214.844 819.515 216.633 819.714 218.223Z" fill="#2D2453"></path><path d="M808.985 218.424C808.985 218.822 808.985 219.219 808.786 219.418C808.587 219.617 808.19 219.617 807.991 219.815C805.806 220.014 803.422 220.412 801.237 220.61C800.442 220.61 799.647 220.809 799.25 220.213C799.051 219.815 799.051 219.617 798.853 219.219C798.654 218.027 798.654 216.834 799.449 215.84C799.846 215.443 800.243 215.244 800.641 215.045C802.23 214.25 804.018 213.654 806.005 213.455C806.998 213.257 808.985 213.257 809.382 214.25C809.382 215.443 808.985 217.232 808.985 218.424Z" fill="#2D2453"></path><path d="M802.63 247.438C802.034 247.438 801.637 247.04 801.637 246.444C801.835 244.059 802.63 237.5 811.57 237.302C820.709 237.103 824.285 243.264 825.08 245.45C825.278 245.848 824.881 246.245 824.484 246.245C822.298 246.047 816.934 247.239 813.557 246.842C811.968 246.643 805.213 247.438 802.63 247.438Z" fill="#2D2453"></path><path d="M804.613 225.775C804.613 226.173 804.812 226.769 805.011 227.166C805.209 227.564 805.607 227.961 806.004 228.16C806.401 228.359 806.997 228.16 807.395 227.763C807.593 227.564 807.593 227.166 807.593 226.769C807.593 226.173 807.593 225.378 807.593 224.781" stroke="#2D2453" stroke-width="0.5" stroke-miterlimit="10" stroke-linecap="round" stroke-linejoin="round"></path><path d="M824.68 223.391C824.481 224.583 824.68 225.974 824.879 227.167C825.077 227.564 825.077 227.962 825.475 228.359C825.673 228.757 826.269 228.956 826.667 228.956C827.461 228.956 827.859 228.161 828.256 227.564C829.051 226.173 829.647 224.782 830.441 223.391" stroke="#2D2453" stroke-width="0.5" stroke-miterlimit="10" stroke-linecap="round" stroke-linejoin="round"></path><path d="M812.361 216.836C812.361 221.606 811.765 226.376 810.375 230.947C810.176 231.742 809.977 232.338 810.176 233.133C810.375 233.928 810.971 234.525 811.765 234.525C812.163 234.525 812.361 234.326 812.759 234.127C814.149 233.73 815.341 235.121 816.732 234.922C817.725 234.723 818.321 233.73 818.52 232.736" stroke="#2D2453" stroke-width="0.5" stroke-miterlimit="10" stroke-linecap="round" stroke-linejoin="round"></path><path d="M845.145 223.789C846.535 224.187 847.926 224.783 848.919 225.975C849.714 227.168 849.913 228.559 849.515 229.95C849.317 231.54 848.522 232.932 847.529 233.925" stroke="#2D2453" stroke-width="0.5" stroke-miterlimit="10" stroke-linecap="round" stroke-linejoin="round"></path><path d="M843.953 230.347C844.549 229.552 845.344 228.558 846.139 227.962C846.933 227.365 847.927 226.769 849.119 226.57" stroke="#2D2453" stroke-width="0.5" stroke-miterlimit="10" stroke-linecap="round" stroke-linejoin="round"></path><path d="M821.703 272.884L815.742 278.648C815.742 278.648 787.73 287.194 785.346 292.163C777.399 308.262 776.406 329.131 778.79 361.726C778.79 361.726 777.399 377.228 788.723 382.594C799.849 387.762 806.802 384.582 806.802 384.582L812.166 382.197C812.166 382.197 813.557 379.414 817.133 376.036C819.716 373.651 825.875 374.843 829.053 374.048L841.57 372.259L845.344 371.266L848.324 389.153C848.324 389.153 911.501 384.582 917.462 376.632C923.422 368.682 919.051 350.993 917.263 339.863C915.475 328.733 907.329 281.629 892.032 276.661C878.92 272.288 860.841 269.903 860.841 269.903L849.914 261.953L830.444 279.841L821.703 272.884Z" fill="#2D2453"></path><path d="M842.363 237.109C842.363 237.109 843.555 238.501 846.535 238.699" stroke="#2D2453" stroke-width="0.5" stroke-miterlimit="10" stroke-linecap="round" stroke-linejoin="round"></path><path d="M835.013 254C830.642 260.956 821.305 262.347 821.305 262.347" stroke="#2D2453" stroke-width="0.5" stroke-miterlimit="10" stroke-linecap="round" stroke-linejoin="round"></path><path d="M852.891 368.875L856.268 383.185" stroke="white" stroke-width="0.5" stroke-miterlimit="10" stroke-linecap="round" stroke-linejoin="round"></path><path d="M597.801 229.751L606.146 214.249C606.146 214.249 611.907 215.243 618.066 212.062C618.066 212.062 627.006 212.858 631.178 219.019C633.761 222.994 636.145 227.565 638.33 232.534L596.609 232.335L597.801 229.751Z" fill="#2D2453"></path><path d="M620.645 172.515C622.83 172.316 624.42 171.123 626.406 169.732C628.194 168.341 629.585 166.155 628.989 163.968C629.982 166.155 631.572 170.925 632.764 173.111C633.757 174.701 635.545 176.49 636.936 175.496C637.333 175.098 637.731 174.502 637.929 174.105C638.525 172.117 638.525 167.347 637.929 165.36C636.141 159.596 631.373 156.217 626.605 153.435C631.373 151.845 634.154 146.28 633.558 141.311C632.962 136.342 629.188 132.168 624.817 129.585C620.446 127.2 615.082 124.417 609.917 124.218C605.546 124.02 601.374 125.808 597.202 126.802C594.222 127.398 591.242 128.591 589.652 130.976C588.659 132.367 588.262 134.156 588.063 135.945C587.864 141.112 590.646 146.28 595.017 148.665C586.076 148.863 578.328 154.826 573.759 162.378C563.627 178.477 570.779 194.775 575.149 197.557C581.308 201.333 585.48 198.153 585.48 198.153C585.48 198.153 581.706 195.172 580.315 194.178C576.342 191.396 573.163 186.03 576.938 180.862C580.911 175.893 584.09 179.073 586.672 180.067C588.262 180.663 589.851 179.868 590.447 178.477C591.242 176.291 592.632 173.508 594.818 172.912C602.566 169.931 612.301 173.31 620.645 172.515Z" fill="#2D2453"></path><path d="M606.143 214.253C590.249 212.266 588.461 199.148 588.461 199.148" stroke="#2D2453" stroke-width="0.5" stroke-miterlimit="10" stroke-linecap="round" stroke-linejoin="round"></path><path d="M623.426 182.648C622.234 183.841 622.036 185.63 621.837 187.418C621.638 190.002 621.638 192.387 621.638 194.971C621.638 195.567 621.638 196.163 621.44 196.76C621.241 197.555 620.446 198.35 619.652 198.548C618.857 198.747 617.864 198.548 617.069 197.952C616.672 197.753 616.473 197.356 616.076 197.157C615.281 196.76 614.486 196.76 613.493 196.76C612.698 196.561 611.705 195.766 612.102 194.971" stroke="#2D2453" stroke-width="0.5" stroke-miterlimit="10" stroke-linecap="round" stroke-linejoin="round"></path><path d="M604.951 202.918C605.745 204.11 607.136 205.104 608.527 204.905C608.725 204.905 608.725 204.905 608.725 204.905C608.725 204.905 608.725 204.905 608.725 204.706C608.924 204.309 608.725 203.713 608.328 203.315C607.931 202.918 607.533 202.719 607.136 202.52C606.54 202.123 606.143 201.725 605.547 201.328C605.149 200.93 604.752 199.738 604.355 199.539C603.361 198.943 604.553 202.321 604.951 202.918Z" stroke="#2D2453" stroke-width="0.5" stroke-miterlimit="10" stroke-linecap="round" stroke-linejoin="round"></path><path d="M606.539 182.054C606.539 182.054 613.493 179.669 615.678 182.849" stroke="#2D2453" stroke-width="0.5" stroke-miterlimit="10" stroke-linecap="round" stroke-linejoin="round"></path><path d="M625.414 185.038C625.414 185.038 630.778 183.845 633.361 185.634" stroke="#2D2453" stroke-width="0.5" stroke-miterlimit="10" stroke-linecap="round" stroke-linejoin="round"></path><path d="M615.678 182.849C615.678 183.445 614.883 184.24 613.89 184.24C612.897 184.24 612.301 183.445 612.301 182.849C612.301 182.252 613.095 181.656 614.089 181.656C615.082 181.656 615.678 182.252 615.678 182.849Z" fill="#2D2453"></path><path d="M632.963 186.028C632.963 186.625 632.169 187.42 631.175 187.42C630.182 187.42 629.586 186.625 629.586 186.028C629.586 185.432 630.381 184.836 631.374 184.836C632.367 184.836 632.963 185.432 632.963 186.028Z" fill="#2D2453"></path><path d="M606.541 176.689C606.541 176.888 606.541 176.888 606.541 177.087C606.74 177.286 606.938 177.286 607.137 177.286C610.514 177.286 613.892 177.286 617.269 177.286C617.666 177.286 617.865 177.286 618.262 177.087C618.858 176.888 619.057 176.093 618.858 175.497C618.66 174.901 618.064 174.304 617.468 174.106C616.872 173.907 616.276 173.708 615.481 173.708L610.117 173.112C609.322 173.112 608.726 172.913 607.932 173.112C605.945 173.311 606.541 174.901 606.541 176.689Z" fill="#2D2453"></path><path d="M626.012 177.485C626.012 178.082 626.012 178.678 626.21 179.075C626.608 179.473 627.005 179.87 627.601 180.069C629.786 180.864 631.972 181.659 634.356 182.057C634.555 182.057 634.753 182.057 634.952 182.057C635.151 182.057 635.151 181.858 635.151 181.659C635.747 180.268 635.548 178.28 634.356 177.088C632.965 175.697 630.978 175.299 628.992 175.1C626.409 174.902 626.21 174.902 626.012 177.485Z" fill="#2D2453"></path><path d="M611.706 189.606C615.766 189.606 619.057 186.314 619.057 182.252C619.057 178.191 615.766 174.898 611.706 174.898C607.646 174.898 604.355 178.191 604.355 182.252C604.355 186.314 607.646 189.606 611.706 189.606Z" stroke="#FFC700" stroke-width="0.5" stroke-miterlimit="10"></path><path d="M631.773 193.582C635.832 193.582 639.124 190.29 639.124 186.229C639.124 182.167 635.832 178.875 631.773 178.875C627.713 178.875 624.422 182.167 624.422 186.229C624.422 190.29 627.713 193.582 631.773 193.582Z" stroke="#FFC700" stroke-width="0.5" stroke-miterlimit="10"></path><path d="M619.059 182.249C619.059 182.249 622.237 179.666 625.217 183.044" stroke="#FFC700" stroke-width="0.5" stroke-miterlimit="10"></path><path d="M590.449 193.583C590.449 195.968 588.462 197.956 586.078 197.956C583.694 197.956 581.707 195.968 581.707 193.583C581.707 191.198 583.694 189.211 586.078 189.211C588.462 189.211 590.449 191.198 590.449 193.583Z" fill="#FFC700"></path><path d="M582.103 182.05C579.521 181.454 577.931 183.044 577.335 184.634C576.739 186.025 576.739 188.211 578.13 189.801" stroke="#2D2453" stroke-width="0.5" stroke-miterlimit="10" stroke-linecap="round" stroke-linejoin="round"></path><path d="M577.535 184.633C578.727 184.633 579.919 185.03 580.913 185.428C581.906 185.825 583.098 186.62 583.495 187.614" stroke="#2D2453" stroke-width="0.5" stroke-miterlimit="10" stroke-linecap="round" stroke-linejoin="round"></path><path d="M570.782 214.25C570.782 214.25 534.624 217.629 528.862 224.188C523.101 230.945 512.373 244.261 515.353 286.992C518.134 329.724 522.505 335.488 534.028 336.084C549.921 336.879 557.272 316.01 557.272 316.01L572.769 316.209L595.218 232.734L596.808 232.138C571.576 231.343 570.782 214.25 570.782 214.25ZM583.099 244.659L576.941 247.64L574.557 245.851C574.358 245.851 574.358 245.851 574.159 245.851L573.563 245.652L580.715 251.019C580.715 251.019 578.133 253.603 576.742 253.205H576.543L580.318 255.391C580.715 255.59 580.715 255.987 580.517 256.186C579.722 256.981 576.543 257.975 575.153 257.18L574.358 256.782C575.947 257.975 577.139 258.77 577.139 258.969C577.139 259.366 574.358 261.354 573.166 260.956C572.967 260.956 572.57 260.758 572.173 260.559L572.57 260.757C572.57 260.757 572.173 269.105 568.994 271.092V271.888C568.596 274.471 566.808 276.26 566.61 277.651C566.212 279.042 566.212 278.248 566.212 278.248L552.306 277.453L553.1 274.471L548.531 255.192C548.133 253.404 548.928 251.615 550.319 250.621L561.842 242.671C562.835 242.075 563.828 241.876 565.02 242.274V242.075L578.331 241.677C578.331 241.677 578.331 242.274 578.133 242.87L581.51 241.28L587.669 240.286L583.099 244.659Z" fill="#2D2453"></path><path d="M651.442 280.437C650.449 273.481 648.065 261.357 644.29 248.836L638.529 270.897L646.277 287.195C646.277 287.195 647.469 299.318 642.701 301.306C639.522 302.697 635.35 298.921 635.35 298.921C634.158 298.126 633.165 296.933 631.973 295.542L623.43 327.938V328.535C626.211 333.503 629.589 337.677 636.939 338.075C653.032 338.87 653.429 293.157 651.442 280.437Z" fill="#2D2453"></path><path d="M551.311 282.42L553.298 274.271L548.729 254.993C548.331 253.204 548.927 251.415 550.517 250.421L562.039 242.471C563.033 241.875 564.026 241.676 565.218 242.074L574.357 245.85L581.509 251.216C581.509 251.216 578.926 253.8 577.536 253.403" stroke="#2D2453" stroke-width="0.5" stroke-miterlimit="10" stroke-linecap="round" stroke-linejoin="round"></path><path d="M575.55 257.181C576.941 257.976 580.119 256.982 580.914 256.187C581.113 255.988 581.113 255.591 580.715 255.392L566.809 247.243C566.213 246.846 565.617 246.846 564.822 247.045L555.484 249.827" stroke="#2D2453" stroke-width="0.5" stroke-miterlimit="10" stroke-linecap="round" stroke-linejoin="round"></path><path d="M556.676 253.999L566.212 251.614C566.808 251.415 567.205 251.614 567.801 251.812C567.801 251.812 577.536 258.371 577.536 258.57C577.536 258.967 574.755 260.955 573.563 260.557C572.569 260.16 568.596 258.57 567.404 257.974C567.205 257.775 566.808 257.775 566.411 257.974L563.232 259.166L563.033 261.352C563.033 261.352 569.589 269.104 569.192 271.489C568.795 274.072 567.007 275.861 566.808 277.252C566.411 278.644 565.417 283.414 565.417 283.414" stroke="#2D2453" stroke-width="0.5" stroke-miterlimit="10" stroke-linecap="round" stroke-linejoin="round"></path><path d="M565.02 241.874L578.33 241.477C578.33 241.477 578.33 241.874 578.132 242.47" stroke="#2D2453" stroke-width="0.5" stroke-miterlimit="10" stroke-linecap="round" stroke-linejoin="round"></path><path d="M573.363 244.86L581.111 241.283L587.27 240.289L583.098 244.662L576.939 247.643" stroke="#2D2453" stroke-width="0.5" stroke-miterlimit="10" stroke-linecap="round" stroke-linejoin="round"></path><path d="M581.11 241.281C581.11 241.281 580.116 243.269 582.699 245.058" stroke="#2D2453" stroke-width="0.5" stroke-miterlimit="10" stroke-linecap="round" stroke-linejoin="round"></path><path d="M468.265 135.147C459.325 128.986 424.557 124.812 424.557 124.812C424.557 124.812 422.372 148.662 400.32 148.662C375.486 148.463 376.281 123.023 376.281 123.023C376.281 123.023 357.208 123.023 351.645 123.62C328.798 126.203 308.137 181.655 308.137 181.655H335.951C336.149 180.86 336.547 180.065 336.944 179.27L348.268 157.805L354.824 150.65C355.619 149.855 356.016 148.861 356.016 147.668L356.414 142.103C356.414 140.712 358.003 139.917 358.996 140.513C360.784 141.507 362.97 143.296 362.97 146.476C362.97 147.668 362.771 149.656 362.771 151.246C362.572 152.438 362.374 153.631 361.778 154.625L358.996 159.395C358.996 159.395 367.936 162.575 369.526 163.37C371.115 164.165 373.698 169.332 369.526 170.723L368.731 185.232L368.532 221.405L487.933 220.808L488.529 175.493C488.927 175.493 473.43 138.725 468.265 135.147ZM436.08 202.523L436.875 197.753C437.074 196.958 436.478 196.163 435.683 195.965L431.312 194.573C422.968 194.772 421.18 192.785 420.783 191.791C420.385 190.797 421.577 187.617 421.577 187.617L420.783 173.108C416.809 171.717 419.193 166.748 420.783 165.755C422.372 164.96 431.312 161.78 431.312 161.78L428.531 157.01C427.935 156.016 427.537 154.823 427.537 153.631C427.339 152.041 427.14 150.053 427.339 148.861C427.339 145.681 429.524 143.892 431.312 142.898C432.504 142.302 433.895 143.097 433.895 144.488L434.292 150.053C434.292 151.047 434.888 152.24 435.484 153.035L442.04 160.19L453.365 181.655C454.159 183.046 454.755 184.835 454.954 186.425L457.338 201.331L436.08 202.523Z" fill="#2D2453"></path><path d="M432.705 170.727C432.705 170.727 419.792 173.509 418.401 174.702C417.606 175.497 417.407 181.459 421.182 181.062" fill="white"></path><path d="M431.91 179.07C431.91 179.07 419.196 180.263 418.997 182.648C418.798 185.033 418.6 187.815 422.573 187.617C426.546 187.617 430.917 187.219 430.917 187.219" fill="white"></path><path d="M440.651 162.572C440.651 162.572 435.486 160.982 431.711 161.777L440.651 162.572Z" fill="white"></path><path d="M450.785 154.82L454.361 181.85" stroke="white" stroke-width="0.5" stroke-miterlimit="10" stroke-linecap="round" stroke-linejoin="round"></path><path d="M488.53 220.812H369.129" stroke="#2D2453" stroke-width="0.5" stroke-miterlimit="10"></path><path d="M421.182 172.91C417.209 171.519 419.593 166.55 421.182 165.557C422.772 164.762 431.712 161.582 431.712 161.582L428.93 156.812C428.334 155.818 427.937 154.625 427.937 153.433C427.738 151.843 427.54 149.855 427.738 148.663C427.738 145.483 429.924 143.694 431.712 142.7C432.904 142.104 434.295 142.899 434.295 144.29L434.692 149.855C434.692 150.849 435.288 152.042 435.884 152.837L442.44 159.992L453.764 181.457C454.559 182.848 455.155 184.438 455.354 186.227L457.738 201.133L436.281 202.325L437.076 197.555C437.275 196.76 436.679 195.965 435.884 195.767L431.513 194.375C423.169 194.574 421.381 192.587 420.984 191.593C420.586 190.599 421.778 187.419 421.778 187.419" stroke="#2D2453" stroke-width="0.5" stroke-miterlimit="10" stroke-linecap="round" stroke-linejoin="round"></path><path d="M432.904 170.328C432.904 170.328 419.991 173.111 418.6 174.303C417.805 175.098 417.607 181.061 421.381 180.663" stroke="#2D2453" stroke-width="0.5" stroke-miterlimit="10" stroke-linecap="round" stroke-linejoin="round"></path><path d="M432.309 178.672C432.309 178.672 419.594 179.864 419.395 182.249C419.197 184.634 418.998 187.417 422.971 187.218C426.945 187.218 431.316 186.821 431.316 186.821" stroke="#2D2453" stroke-width="0.5" stroke-miterlimit="10" stroke-linecap="round" stroke-linejoin="round"></path><path d="M440.85 162.377C440.85 162.377 435.685 160.787 431.91 161.582" stroke="#2D2453" stroke-width="0.5" stroke-miterlimit="10" stroke-linecap="round" stroke-linejoin="round"></path><path d="M358.004 168.141C358.004 168.141 370.917 170.923 372.308 172.116C373.103 172.911 373.302 178.873 369.527 178.476" fill="white"></path><path d="M350.059 160.189C350.059 160.189 355.224 158.599 358.999 159.394L350.059 160.189Z" fill="white"></path><path d="M369.131 170.925C373.104 169.534 370.919 163.969 369.33 163.174C367.74 162.379 358.8 159.199 358.8 159.199L361.582 154.429C362.178 153.435 362.575 152.242 362.575 151.05C362.774 149.46 362.972 147.472 362.774 146.28C362.774 143.1 360.588 141.311 358.8 140.317C357.608 139.721 356.217 140.516 356.217 141.907L355.82 147.472C355.82 148.466 355.224 149.659 354.628 150.454L348.072 157.609L335.953 181.26" stroke="#2D2453" stroke-width="0.5" stroke-miterlimit="10" stroke-linecap="round" stroke-linejoin="round"></path><path d="M357.805 167.945C357.805 167.945 370.718 170.728 372.109 171.92C372.904 172.715 373.102 178.678 369.328 178.28" stroke="#2D2453" stroke-width="0.5" stroke-miterlimit="10" stroke-linecap="round" stroke-linejoin="round"></path><path d="M358.402 176.289C358.402 176.289 371.117 177.482 371.316 179.867C371.515 182.252 376.481 185.034 372.309 184.835" stroke="#2D2453" stroke-width="0.5" stroke-miterlimit="10" stroke-linecap="round" stroke-linejoin="round"></path><path d="M349.66 159.994C349.66 159.994 354.826 158.404 358.6 159.199" stroke="#2D2453" stroke-width="0.5" stroke-miterlimit="10" stroke-linecap="round" stroke-linejoin="round"></path><path d="M473.631 221.204L465.883 200.931L433.103 201.925L434.295 221.403H433.301L432.109 201.528C432.109 201.329 432.109 201.329 432.308 201.13C432.308 200.931 432.507 200.931 432.705 200.931L466.281 199.938C466.479 199.938 466.678 200.136 466.678 200.335L474.823 221.403L473.631 221.204Z" fill="white"></path><path d="M803.027 316.406L805.61 351.386L814.749 354.566L803.027 316.406Z" fill="#181133"></path><path d="M803.027 315.016L814.351 353.772" stroke="white" stroke-width="0.5" stroke-miterlimit="10" stroke-linecap="round" stroke-linejoin="round"></path><path d="M795.477 348.805L857.462 366.493" stroke="white" stroke-width="0.5" stroke-miterlimit="10" stroke-linecap="round" stroke-linejoin="round"></path><path d="M871.367 313.227L889.843 351.784L877.923 357.349L871.367 313.227Z" fill="#181133"></path><path d="M901.566 347.016L843.355 372.853" stroke="white" stroke-width="0.5" stroke-miterlimit="10" stroke-linecap="round" stroke-linejoin="round"></path><path d="M870.973 312.039L889.846 351.392" stroke="white" stroke-width="0.5" stroke-miterlimit="10" stroke-linecap="round" stroke-linejoin="round"></path><path d="M830.84 279.836C830.84 279.836 833.621 293.351 834.416 293.947C835.012 294.543 836.8 292.556 836.8 292.556L830.84 279.836Z" fill="#181133"></path><path d="M831.436 279.042L837.197 292.359L859.846 268.906L860.64 269.503L837.396 293.551C837.396 293.75 837.197 293.75 836.999 293.75C836.8 293.75 836.601 293.551 836.601 293.551L831.038 280.235L830.84 279.838L831.436 279.042Z" fill="white"></path><path d="M816.336 279.242C816.336 279.242 824.481 293.95 825.077 293.95C825.673 293.95 826.071 292.36 826.071 292.36C826.269 291.962 826.269 291.366 826.071 290.968L816.336 279.242Z" fill="#181133"></path><path d="M816.533 277.852L826.666 291.565L830.043 279.243L830.639 279.64L831.036 279.243L827.46 292.758C827.46 292.957 827.262 293.155 827.063 293.155C826.864 293.155 826.666 293.155 826.666 292.957L815.938 278.448L816.533 277.852Z" fill="white"></path><path d="M598.594 228.166C598.594 228.166 627.202 224.588 626.209 214.849C623.825 213.458 622.633 212.663 618.063 212.266C618.063 212.266 612.699 214.452 609.719 214.452C606.739 214.452 605.547 214.651 605.547 214.651L598.594 228.166Z" fill="#181133"></path><path d="M596.808 232.34L606.146 214.254C606.146 214.254 622.436 217.235 629.589 197.758C636.741 178.082 639.522 156.815 615.682 150.853C591.841 145.089 576.941 161.983 574.756 167.945C568.994 183.448 568.2 186.827 584.491 198.155L570.981 214.254C570.782 214.254 571.577 231.347 596.808 232.34Z" stroke="#2D2453" stroke-width="0.5" stroke-miterlimit="10" stroke-linecap="round" stroke-linejoin="round"></path><path d="M631.375 295.539C631.375 295.539 635.547 300.508 639.322 301.502C643.296 302.694 638.13 333.898 642.302 336.283C642.302 336.283 640.316 339.463 633.362 337.873C625.217 336.084 623.031 328.134 623.031 328.134L631.375 295.539Z" fill="#181133"></path><path d="M638.33 270.496L646.277 287.191C646.277 287.191 647.667 299.712 642.899 301.302C638.131 302.892 635.549 298.917 635.549 298.917C630.582 294.744 625.019 283.216 625.019 283.216C623.032 283.216 618.463 281.427 618.463 281.427C618.463 281.427 616.079 281.229 614.49 280.632C613.298 280.235 612.105 278.049 611.509 276.657C611.311 276.26 611.708 275.664 612.106 275.664C614.49 275.862 620.052 276.459 621.046 276.459C622.238 276.459 630.185 278.645 630.185 278.645L622.238 276.459L618.066 273.875C618.066 273.875 610.914 272.484 609.324 271.689C608.132 271.092 607.536 269.304 607.139 268.111C606.94 267.714 607.337 267.316 607.735 267.316C610.317 267.714 618.662 268.707 619.854 268.906C621.244 269.105 629.787 272.881 629.787 272.881C629.787 272.881 624.82 268.111 624.026 267.316C623.032 266.521 613.894 264.335 612.106 262.944C611.112 262.149 610.913 260.757 610.715 259.764C610.715 259.167 611.311 258.77 611.907 258.77C615.284 259.764 625.019 262.347 626.211 262.745C627.8 263.341 632.966 268.906 632.966 268.906L626.807 262.944L617.47 260.36C615.88 259.167 615.483 257.18 615.284 255.987C615.284 255.391 615.682 254.994 616.278 255.192L631.774 259.764C632.966 260.161 634.158 260.956 634.754 262.149L638.33 270.496Z" stroke="#2D2453" stroke-width="0.5" stroke-miterlimit="10" stroke-linecap="round" stroke-linejoin="round"></path><path d="M631.77 295.337L623.227 327.535H569.785L595.215 232.93H648.459L638.326 270.692" stroke="#2D2453" stroke-width="0.5" stroke-miterlimit="10"></path><path d="M545.351 248.039L531.047 302.099L542.371 277.653L545.351 277.057V248.039Z" fill="#181133"></path><path d="M545.551 245.258L545.749 277.257" stroke="white" stroke-width="0.5" stroke-miterlimit="10" stroke-linecap="round" stroke-linejoin="round"></path><path d="M557.868 316.208L567.802 278.047C567.802 277.849 567.802 277.65 567.802 277.65C567.802 277.451 567.603 277.451 567.404 277.451L542.372 276.656C542.173 276.656 541.975 276.855 541.975 276.855L531.246 301.699C531.048 301.898 531.246 302.295 531.445 302.295C531.644 302.494 532.041 302.295 532.041 302.096L542.571 277.65L566.61 278.445L556.08 318.791L557.868 316.208Z" fill="white"></path><path d="M354.031 123.424C354.031 123.424 359.793 134.356 377.872 134.157L376.282 122.828L354.031 123.424Z" fill="#181133"></path><path d="M426.148 94.6006C425.75 105.134 424.757 115.668 424.36 126.202C423.962 133.754 422.571 144.686 415.817 148.263C409.062 151.841 397.34 152.437 389.99 150.847C377.871 148.263 376.083 123.419 376.083 123.419C376.083 123.419 378.069 111.892 376.877 107.917C376.281 106.128 375.685 104.339 375.487 102.352C375.288 100.364 375.288 98.3769 376.281 96.7869C377.871 94.0044 381.248 87.4456 384.427 87.0481C389.592 86.6506 394.758 93.2094 399.923 93.6069C405.088 94.0044 410.453 94.0044 415.022 91.8181C418.201 90.4269 421.181 88.0419 423.565 85.4581C425.154 83.8681 426.744 82.0794 428.532 80.6881C430.32 79.2969 432.704 78.3031 434.889 78.5019C437.273 78.7006 439.458 80.2906 439.657 82.6756" stroke="#2D2453" stroke-width="0.5" stroke-miterlimit="10" stroke-linecap="round" stroke-linejoin="round"></path><path d="M190.13 324.156L183.375 337.87L190.527 336.28L190.13 324.156Z" fill="#181133"></path><path d="M190.527 322.57L190.924 336.682" stroke="white" stroke-width="0.5" stroke-miterlimit="10" stroke-linecap="round" stroke-linejoin="round"></path><path d="M190.723 336.484C192.312 337.478 197.279 343.242 199.861 346.024C200.457 346.819 200.06 348.012 199.067 348.012C198.272 348.012 197.08 348.012 196.285 347.614C193.901 346.819 188.736 343.838 188.736 343.838L182.18 347.614" stroke="#2D2453" stroke-width="0.5" stroke-miterlimit="10" stroke-linecap="round" stroke-linejoin="round"></path><path d="M173.641 340.659C173.641 340.659 188.938 335.491 190.528 336.286H190.726" stroke="#2D2453" stroke-width="0.5" stroke-miterlimit="10" stroke-linecap="round" stroke-linejoin="round"></path><path d="M137.681 344.829L171.256 340.655C173.044 340.456 174.634 341.052 176.024 342.245C179.6 345.425 186.554 352.182 187.348 353.971C188.342 356.356 189.136 368.48 189.136 370.269C188.938 373.647 183.176 367.884 183.176 367.884C183.176 367.884 183.375 369.871 182.382 370.07C181.388 370.07 177.812 368.082 177.216 365.896C176.819 363.909 175.031 357.946 175.031 357.946C175.031 357.946 171.654 355.76 170.064 354.17C169.071 353.176 167.283 354.17 166.885 353.574L172.448 364.107C172.647 364.505 172.448 364.902 172.051 364.902C171.058 365.101 169.468 365.3 168.077 364.306C166.091 362.915 162.713 358.741 161.323 358.741C159.733 358.741 152.78 363.71 149.204 364.107C145.628 364.505 135.297 363.511 135.297 363.511L137.681 344.829Z" stroke="#2D2453" stroke-width="0.5" stroke-miterlimit="10" stroke-linecap="round" stroke-linejoin="round"></path><path d="M174.633 347.812C177.017 349.999 179.202 352.583 180.792 355.365C181.785 360.135 182.58 364.706 183.374 369.476" stroke="#2D2453" stroke-width="0.5" stroke-miterlimit="10" stroke-linecap="round" stroke-linejoin="round"></path><path d="M158.738 350.789C160.725 350.789 162.712 351.187 164.5 351.783C165.294 351.982 166.288 352.379 166.685 353.174" stroke="#2D2453" stroke-width="0.5" stroke-miterlimit="10" stroke-linecap="round" stroke-linejoin="round"></path></svg>