<svg xmlns="http://www.w3.org/2000/svg" width="222" height="212" viewBox="0 0 222 212" fill="none"><path d="M100.182 126.602H1V195.424H100.182V126.602Z" stroke="#2D2453" stroke-width="0.5" stroke-miterlimit="10"></path><path d="M32.6914 126.428V16.4844H220.948V159.869" stroke="#2D2453" stroke-width="0.5" stroke-miterlimit="10"></path><path d="M17.7846 174.257L17.6133 176.15L30.1181 169.784V167.375L17.7846 174.257Z" fill="#574D82"></path><path d="M32.8633 171.332L71.748 145.695L72.2619 147.76L32.8633 171.332Z" fill="#574D82"></path><path d="M32.6891 175.633L32.0039 179.59L35.4299 177.181L32.6891 175.633Z" fill="#574D82"></path><path d="M13.6758 170.3L57.5282 144.664V149.482L52.9031 152.062L13.6758 170.3Z" fill="#574D82"></path><path d="M44.3398 170.652L44.5111 185.276L81.5116 157.403L81.8542 145.188L44.3398 170.652Z" stroke="#2D2453" stroke-width="0.5" stroke-miterlimit="10" stroke-linecap="round" stroke-linejoin="round"></path><path d="M31.4882 165.477L32.5159 172.187L40.567 175.112L42.6226 169.606L44.3356 170.467V185.264H42.4513L40.7383 179.414L32.5159 175.456L32.002 179.93L30.2891 180.102V164.961L31.4882 165.477Z" stroke="#2D2453" stroke-width="0.5" stroke-miterlimit="10" stroke-linecap="round" stroke-linejoin="round"></path><path d="M35.6012 177.008L32.0039 179.933" stroke="#2D2453" stroke-width="0.5" stroke-miterlimit="10" stroke-linecap="round" stroke-linejoin="round"></path><path d="M32.5195 171.853L72.4321 147.766" stroke="#2D2453" stroke-width="0.5" stroke-miterlimit="10" stroke-linecap="round" stroke-linejoin="round"></path><path d="M31.6595 165.657L71.2294 143.29L69.5164 142.602L30.2891 164.969L31.6595 165.657Z" stroke="#2D2453" stroke-width="0.5" stroke-miterlimit="10" stroke-linecap="round" stroke-linejoin="round"></path><path d="M42.625 169.448L80.1394 144.5L81.8523 145.016L44.5093 170.48L42.625 169.448Z" stroke="#2D2453" stroke-width="0.5" stroke-miterlimit="10" stroke-linecap="round" stroke-linejoin="round"></path><path d="M71.2344 143.289L72.4335 147.763L74.8316 147.935" stroke="#2D2453" stroke-width="0.5" stroke-miterlimit="10" stroke-linecap="round" stroke-linejoin="round"></path><path d="M6.48047 156.362L51.7033 138.812L61.6386 141.221L16.7584 160.664L6.48047 156.362Z" stroke="#2D2453" stroke-width="0.5" stroke-miterlimit="10" stroke-linecap="round" stroke-linejoin="round"></path><path d="M16.7578 160.841L16.9291 162.561L61.8093 142.603L61.638 141.227L16.7578 160.841Z" stroke="#2D2453" stroke-width="0.5" stroke-miterlimit="10" stroke-linecap="round" stroke-linejoin="round"></path><path d="M6.48047 156.531L6.65178 158.08L10.9342 161.177V169.607L7.33696 168.919V170.64L17.2723 176.318L17.6149 174.253L13.1611 170.296L13.3324 162.037L16.7584 162.725V160.661L6.48047 156.531Z" stroke="#2D2453" stroke-width="0.5" stroke-miterlimit="10" stroke-linecap="round" stroke-linejoin="round"></path><path d="M13.5039 170.472L52.2173 152.406" stroke="#2D2453" stroke-width="0.5" stroke-miterlimit="10" stroke-linecap="round" stroke-linejoin="round"></path><path d="M17.6133 174.257L30.1181 167.375" stroke="#2D2453" stroke-width="0.5" stroke-miterlimit="10" stroke-linecap="round" stroke-linejoin="round"></path><path d="M17.2695 176.319L29.9456 169.781" stroke="#2D2453" stroke-width="0.5" stroke-miterlimit="10" stroke-linecap="round" stroke-linejoin="round"></path><path d="M7.33594 168.924L10.7619 167.203" stroke="#2D2453" stroke-width="0.5" stroke-miterlimit="10" stroke-linecap="round" stroke-linejoin="round"></path><path d="M57.6953 144.664V149.31" stroke="#2D2453" stroke-width="0.5" stroke-miterlimit="10" stroke-linecap="round" stroke-linejoin="round"></path><path d="M84.2521 168.586C96.0717 168.586 105.664 178.221 105.664 190.093C105.664 201.965 96.0717 211.6 84.2521 211.6C72.4326 211.6 62.8398 201.965 62.8398 190.093C62.8398 178.221 72.4326 168.586 84.2521 168.586Z" fill="#2D2453"></path><path d="M71.9219 192.849L82.0285 202.484L96.7602 180.633" stroke="white" stroke-width="2" stroke-miterlimit="10" stroke-linecap="round" stroke-linejoin="round"></path><path d="M107.717 67.5859C105.318 77.2211 106.518 86.1679 107.374 86.5121C108.402 86.8562 115.768 85.4797 116.624 85.1356C120.735 83.7592 124.846 82.0386 128.444 79.8019C132.041 77.3931 136.495 73.2638 138.722 69.4785C128.958 71.5432 117.309 70.6829 107.717 67.5859Z" fill="#574D82"></path><path d="M162.363 46.0703C162.02 47.7909 161.164 48.135 158.937 49.6835C153.969 53.1246 150.03 48.8232 149.516 51.232C151.743 52.9525 154.826 53.6408 157.567 52.7805C160.307 51.7481 162.363 48.9953 162.363 46.0703Z" fill="#574D82"></path><path d="M132.211 23.8841C132.554 24.4003 133.239 24.2282 133.753 24.2282C136.494 23.8841 139.406 25.2605 140.776 27.6693C141.119 28.3575 141.633 29.3899 142.318 29.5619C143.003 29.734 143.688 29.0458 144.202 28.5296C144.888 27.6693 145.059 26.1208 144.202 25.2605C139.063 20.2709 137.522 20.443 133.239 20.9592C132.554 21.1312 131.698 23.1959 132.211 23.8841Z" fill="#2D2453"></path><path d="M132.383 28.8679C133.753 28.3518 135.295 28.3518 136.494 29.04C137.693 29.7282 138.55 31.1047 138.721 32.4811" stroke="#2D2453" stroke-width="0.5" stroke-miterlimit="10" stroke-linecap="round" stroke-linejoin="round"></path><path d="M114.23 30.9394C114.916 30.0791 115.601 29.0468 116.629 28.5306C117.656 28.0144 118.856 27.8424 119.883 28.3585" stroke="#2D2453" stroke-width="0.5" stroke-miterlimit="10" stroke-linecap="round" stroke-linejoin="round"></path><path d="M122.622 25.6016C122.45 27.6662 121.422 29.7309 120.052 31.2794C119.538 31.7956 119.024 32.3117 118.853 33C118.682 33.6882 118.682 34.5485 119.367 34.8926C120.395 35.4087 121.765 34.2043 122.622 34.8926C122.964 35.2367 123.307 35.7528 123.821 35.5808C124.163 35.5808 124.335 35.2367 124.506 34.8926C125.02 34.5485 125.705 34.8926 126.39 34.8926C126.904 34.8926 127.589 34.5485 127.76 34.0323C127.932 33.5161 127.932 32.8279 127.589 32.4838" stroke="#2D2453" stroke-width="0.5" stroke-miterlimit="10" stroke-linecap="round" stroke-linejoin="round"></path><path d="M151.91 46.2493C152.767 45.7331 153.623 45.0449 154.651 44.7008C155.679 44.3567 156.707 44.3566 157.734 44.8728C158.591 45.389 159.276 46.4213 159.276 47.4536" stroke="#2D2453" stroke-width="0.5" stroke-miterlimit="10" stroke-linecap="round" stroke-linejoin="round"></path><path d="M155.852 44.6953C156.194 45.5556 156.023 46.4159 155.681 47.2761C155.338 48.1364 154.481 48.6526 153.625 48.8246" stroke="#2D2453" stroke-width="0.5" stroke-miterlimit="10" stroke-linecap="round" stroke-linejoin="round"></path><path d="M156.539 37.6484C159.623 38.3367 162.021 41.0896 162.364 44.1866C162.706 47.2836 161.164 50.5526 158.424 52.1011C155.683 53.6496 152.086 53.3055 149.688 51.2408" stroke="#2D2453" stroke-width="0.5" stroke-miterlimit="10" stroke-linecap="round" stroke-linejoin="round"></path><path d="M121.423 24.0562C117.312 24.4003 113.886 28.1855 113.543 27.8414C113.201 27.4973 112.002 26.1209 112.173 25.6047C112.344 25.0885 115.599 21.3033 118.168 20.271C118.854 19.9269 119.71 19.7548 120.567 19.9269C121.423 20.0989 122.108 20.6151 122.451 21.3033C122.622 22.1636 122.108 24.0562 121.423 24.0562Z" fill="#2D2453"></path><path d="M149.167 62.9338C150.88 62.9338 152.422 62.0735 153.621 60.8691C154.82 59.6647 155.334 57.9442 155.334 56.3957C155.334 55.7075 155.163 55.1913 155.334 54.5031C155.505 53.8148 155.848 53.2987 156.362 53.1266C153.964 53.6428 151.394 53.1266 149.51 51.5781C149.681 55.3633 149.339 59.1486 148.996 62.9338C148.996 62.9338 148.996 62.9338 149.167 62.9338Z" fill="#2D2453"></path><path d="M159.791 27.8372C157.221 24.7402 152.767 24.3961 151.226 20.6109C150.198 18.2021 150.369 15.4492 148.999 13.2125C147.286 10.4596 144.203 8.73905 140.948 8.73905C137.693 8.567 134.267 9.42728 131.526 7.70672C129.471 6.33028 127.587 4.43766 125.874 2.7171C122.448 -0.379896 117.137 -0.896061 113.197 1.51272C109.258 3.9215 106.517 9.42727 107.202 13.9007C107.887 18.3742 112.855 19.5786 115.596 20.2668C117.994 20.7829 121.762 17.5139 126.901 17.858C136.151 18.5462 143.003 18.7183 147.628 25.0843C149.513 27.8372 149.855 31.2783 148.828 34.5474C147.286 39.365 145.915 41.9458 142.318 44.5266C139.235 46.5913 134.61 46.4192 131.698 44.1825C129.985 42.8061 128.1 41.0855 125.874 40.0532C124.161 39.1929 123.475 40.0532 121.591 39.537C120.563 39.1929 118.508 38.5047 117.48 38.1606C113.883 37.3003 110.285 42.634 106.859 41.0855C105.66 40.5693 105.66 40.3973 105.489 39.1929C105.318 37.9885 107.031 34.0312 107.373 32.8268C108.744 28.0093 111.656 25.7726 114.739 21.8153C114.91 21.6432 114.739 21.2991 114.568 21.1271C113.369 20.7829 111.656 19.5786 110.285 18.7183C107.373 16.9977 107.373 16.9977 105.146 19.4065C102.063 22.5035 103.947 25.0843 103.605 29.5578C103.605 30.5901 102.234 33.8592 102.234 39.537C102.234 49.8603 102.577 62.7645 109.258 70.8511C112.341 74.4643 117.309 76.3569 122.276 76.529C130.841 76.529 140.948 69.8188 144.545 66.8939C148.142 63.9689 148.485 60.3557 148.999 55.7102C149.341 52.6132 147.971 50.3765 148.485 47.2795C148.656 45.559 149.684 44.0105 151.226 42.9781C153.453 41.4296 156.707 38.5047 159.448 40.0532C159.962 40.3973 160.647 40.7414 161.161 40.5693C161.675 40.3973 161.846 39.7091 161.846 39.1929C162.36 35.7518 161.846 30.5901 159.791 27.8372ZM121.934 50.3765C121.762 50.7206 121.249 50.8927 120.906 51.0647C119.022 51.753 116.623 51.753 114.739 50.7206C114.397 50.5486 114.054 50.3765 113.883 50.0324C113.711 49.6883 113.54 49.3442 113.711 49.0001C113.883 48.656 114.397 48.4839 114.739 48.4839C116.11 48.1398 117.309 47.9677 118.336 48.1398C121.591 48.656 122.276 50.0324 121.934 50.3765Z" fill="#2D2453"></path><path d="M185.828 86.5032C178.12 81.1695 148.143 77.5563 148.143 77.5563C148.143 77.5563 146.258 98.203 127.244 98.203C105.832 98.0309 106.517 76.0078 106.517 76.0078C106.517 76.0078 90.0724 76.0078 85.2761 76.524C65.5767 78.7607 47.7617 126.764 47.7617 126.764H71.7435C71.9148 126.076 72.2574 125.388 72.6 124.7L82.364 106.118L88.0169 99.9235C88.7021 99.2353 89.0446 98.375 89.0446 97.3427L89.3872 92.5252C89.3872 91.3208 90.7576 90.6325 91.6141 91.1487C93.1558 92.009 95.0401 93.5575 95.0401 96.3104C95.0401 97.3427 94.8688 99.0633 94.8688 100.44C94.6975 101.472 94.5262 102.504 94.0123 103.365L91.6141 107.494C91.6141 107.494 99.3225 110.247 100.693 110.935C102.063 111.623 104.29 116.097 100.693 117.301L100.008 129.861L99.8364 161.175L202.787 160.659L203.301 121.431C203.643 121.431 190.282 89.6002 185.828 86.5032ZM158.078 144.83L158.763 140.701C158.934 140.013 158.421 139.324 157.735 139.152L153.967 137.948C146.772 138.12 145.231 136.399 144.888 135.539C144.545 134.679 145.573 131.926 145.573 131.926L144.888 119.366C141.462 118.161 143.518 113.86 144.888 113C146.258 112.312 153.967 109.559 153.967 109.559L151.569 105.429C151.055 104.569 150.712 103.537 150.712 102.504C150.541 101.128 150.369 99.4074 150.541 98.375C150.541 95.6222 152.425 94.0737 153.967 93.2134C154.995 92.6972 156.194 93.3854 156.194 94.5898L156.536 99.4074C156.536 100.268 157.05 101.3 157.564 101.988L163.217 108.182L172.981 126.764C173.666 127.969 174.18 129.517 174.351 130.894L176.407 143.798L158.078 144.83Z" fill="#2D2453"></path><path d="M155.169 117.305C155.169 117.305 144.035 119.713 142.836 120.746C142.151 121.434 141.979 126.596 145.234 126.252" fill="white"></path><path d="M154.486 124.531C154.486 124.531 143.523 125.564 143.352 127.628C143.181 129.693 143.01 132.102 146.435 131.93C149.861 131.93 153.63 131.586 153.63 131.586" fill="white"></path><path d="M162.021 110.256C162.021 110.256 157.567 108.879 154.312 109.568L162.021 110.256Z" fill="white"></path><path d="M170.754 103.547L173.837 126.946" stroke="white" stroke-width="0.5" stroke-miterlimit="10" stroke-linecap="round" stroke-linejoin="round"></path><path d="M221.001 159.867H101.148" stroke="#2D2453" stroke-width="0.5" stroke-miterlimit="10"></path><path d="M145.234 119.201C141.808 117.996 143.864 113.695 145.234 112.835C146.605 112.147 154.313 109.394 154.313 109.394L151.915 105.264C151.401 104.404 151.058 103.372 151.058 102.339C150.887 100.963 150.716 99.2424 150.887 98.2101C150.887 95.4572 152.771 93.9087 154.313 93.0484C155.341 92.5322 156.54 93.2204 156.54 94.4248L156.883 99.2424C156.883 100.103 157.396 101.135 157.91 101.823L163.563 108.017L173.327 126.599C174.012 127.804 174.526 129.18 174.698 130.729L176.753 143.633L158.253 144.665L158.938 140.536C159.109 139.848 158.596 139.159 157.91 138.987L154.142 137.783C146.947 137.955 145.406 136.234 145.063 135.374C144.72 134.514 145.748 131.761 145.748 131.761" stroke="#2D2453" stroke-width="0.5" stroke-miterlimit="10" stroke-linecap="round" stroke-linejoin="round"></path><path d="M155.341 116.961C155.341 116.961 144.207 119.37 143.008 120.402C142.323 121.09 142.151 126.252 145.406 125.908" stroke="#2D2453" stroke-width="0.5" stroke-miterlimit="10" stroke-linecap="round" stroke-linejoin="round"></path><path d="M154.822 124.188C154.822 124.188 143.859 125.22 143.688 127.284C143.517 129.349 143.345 131.758 146.771 131.586C150.197 131.586 153.966 131.242 153.966 131.242" stroke="#2D2453" stroke-width="0.5" stroke-miterlimit="10" stroke-linecap="round" stroke-linejoin="round"></path><path d="M162.193 110.092C162.193 110.092 157.739 108.715 154.484 109.404" stroke="#2D2453" stroke-width="0.5" stroke-miterlimit="10" stroke-linecap="round" stroke-linejoin="round"></path><path d="M90.7578 115.07C90.7578 115.07 101.892 117.479 103.091 118.511C103.776 119.2 103.948 124.361 100.693 124.017" fill="white"></path><path d="M83.9062 108.186C83.9062 108.186 88.36 106.809 91.6147 107.497L83.9062 108.186Z" fill="white"></path><path d="M100.349 117.482C103.775 116.278 101.891 111.461 100.52 110.772C99.1499 110.084 91.4415 107.331 91.4415 107.331L93.8397 103.202C94.3536 102.342 94.6962 101.309 94.6962 100.277C94.8675 98.9005 95.0388 97.1799 94.8675 96.1476C94.8675 93.3947 92.9832 91.8462 91.4415 90.9859C90.4137 90.4697 89.2146 91.158 89.2146 92.3623L88.872 97.1799C88.872 98.0402 88.3581 99.0725 87.8442 99.7607L82.1914 105.955L71.7422 126.429" stroke="#2D2453" stroke-width="0.5" stroke-miterlimit="10" stroke-linecap="round" stroke-linejoin="round"></path><path d="M90.5859 114.898C90.5859 114.898 101.72 117.307 102.919 118.34C103.605 119.028 103.776 124.189 100.521 123.845" stroke="#2D2453" stroke-width="0.5" stroke-miterlimit="10" stroke-linecap="round" stroke-linejoin="round"></path><path d="M91.1016 122.125C91.1016 122.125 102.065 123.157 102.236 125.222C102.407 127.287 106.69 129.695 103.092 129.523" stroke="#2D2453" stroke-width="0.5" stroke-miterlimit="10" stroke-linecap="round" stroke-linejoin="round"></path><path d="M83.5625 108.022C83.5625 108.022 88.0163 106.645 91.2709 107.333" stroke="#2D2453" stroke-width="0.5" stroke-miterlimit="10" stroke-linecap="round" stroke-linejoin="round"></path><path d="M190.458 161.012L183.777 143.462L155.513 144.322L156.541 161.184H155.684L154.656 143.978C154.656 143.806 154.656 143.806 154.828 143.634C154.828 143.462 154.999 143.462 155.17 143.462L184.12 142.602C184.291 142.602 184.462 142.774 184.462 142.946L191.485 161.184L190.458 161.012Z" fill="white"></path><path d="M87.3359 76.3599C87.3359 76.3599 92.3036 85.823 107.892 85.6509L106.521 75.8438L87.3359 76.3599Z" fill="#181133"></path><path d="M149.517 51.4116C149.174 60.5305 148.318 69.6495 147.975 78.7684C147.632 85.3065 146.433 94.7696 140.609 97.8666C134.785 100.964 124.678 101.48 118.34 100.103C107.891 97.8666 106.35 76.3596 106.35 76.3596C106.35 76.3596 108.062 66.3804 107.035 62.9393C106.521 61.3908 106.007 59.8423 105.836 58.1217C105.664 56.4012 105.664 54.6806 106.521 53.3042C107.891 50.8954 110.803 45.2175 113.544 44.8734C117.998 44.5293 122.452 50.2072 126.905 50.5513C131.359 50.8954 135.984 50.8954 139.924 49.0028C142.665 47.7984 145.234 45.7337 147.29 43.497C148.66 42.1206 150.031 40.572 151.572 39.3677C153.114 38.1633 155.17 37.303 157.054 37.475C159.109 37.6471 160.994 39.0235 161.165 41.0882" stroke="#2D2453" stroke-width="0.5" stroke-miterlimit="10" stroke-linecap="round" stroke-linejoin="round"></path></svg>