<svg xmlns="http://www.w3.org/2000/svg" width="438" height="342" viewBox="0 0 438 342" fill="none"><path d="M386.559 114.322C386.559 100.072 397.959 88.6719 412.209 88.6719C426.459 88.6719 437.859 100.072 437.859 114.322C437.859 128.572 426.459 139.972 412.209 139.972C398.149 139.972 386.559 128.572 386.559 114.322Z" fill="#2D2453"></path><path d="M367.367 78.7925L365.277 87.7225C365.277 87.7225 387.697 101.402 379.717 113.942C372.117 125.912 365.277 131.612 360.527 136.362C355.207 131.612 343.617 121.162 343.617 121.732C343.807 106.152 344.757 90.5725 345.897 75.1825C345.897 74.6125 346.467 74.4225 346.847 74.6125C349.317 76.3225 350.837 79.1725 351.407 82.0225C352.357 87.1525 351.597 95.5125 352.357 96.8425C354.067 92.2825 355.777 87.7225 357.487 84.1125C359.577 79.9325 362.997 72.3325 366.227 64.5425C367.177 62.0725 370.787 63.4025 370.217 65.8725L367.367 78.7925Z" stroke="#2D2453" stroke-width="0.5" stroke-miterlimit="10" stroke-linecap="round" stroke-linejoin="round"></path><path d="M343.238 117.172L368.508 128.002L363.378 132.942L343.238 117.172Z" fill="#574D82"></path><path d="M343.049 116.789L367.369 135.599C367.369 135.599 305.049 215.969 285.289 224.899C267.239 233.069 194.849 238.959 181.929 239.909C180.789 239.909 180.029 241.049 180.219 241.999L190.289 341.369L0.289062 341.939C0.289062 341.939 0.66906 267.459 18.7191 235.349C53.6791 173.029 141.649 182.909 141.649 182.909C141.649 182.909 163.879 181.009 177.369 182.339C190.859 183.479 233.229 192.789 253.939 187.089C274.649 181.389 343.049 116.789 343.049 116.789Z" fill="#2D2453"></path><path d="M401.947 127.431L396.438 128.381L397.197 122.301C397.197 122.111 397.197 121.921 397.387 121.731L420.377 100.261C421.327 99.3107 422.847 99.3107 423.797 100.451L425.697 102.351C426.647 103.301 426.647 104.821 425.507 105.771L402.517 127.241C402.517 127.431 402.327 127.431 401.947 127.431Z" stroke="white" stroke-width="0.5" stroke-miterlimit="10" stroke-linecap="round" stroke-linejoin="round"></path><path d="M418.859 101.781L423.989 107.481" stroke="white" stroke-width="0.5" stroke-miterlimit="10" stroke-linecap="round" stroke-linejoin="round"></path><path d="M397.578 121.539L402.708 127.049" stroke="white" stroke-width="0.5" stroke-miterlimit="10" stroke-linecap="round" stroke-linejoin="round"></path><path d="M131.391 165.242C131.391 165.242 140.511 181.012 140.131 179.302C138.421 171.702 138.611 166.382 138.611 166.382L131.391 165.242Z" fill="#574D82"></path><path d="M121.319 127.811C121.319 127.811 121.319 134.081 121.129 131.991C120.939 130.471 128.539 131.231 130.248 132.371C131.958 133.511 126.449 125.721 121.319 127.811Z" fill="#574D82"></path><path d="M128.73 122.109C125.69 122.109 122.65 124.199 121.51 127.049C120.37 129.899 121.13 133.509 123.22 135.599" stroke="#2D2453" stroke-width="0.5" stroke-miterlimit="10" stroke-linecap="round" stroke-linejoin="round"></path><path d="M121.32 127.813C123.22 127.433 125.12 127.813 126.64 128.573C128.35 129.333 129.68 130.853 130.44 132.373" stroke="#2D2453" stroke-width="0.5" stroke-miterlimit="10" stroke-linecap="round" stroke-linejoin="round"></path><path d="M164.451 99.8828L163.501 125.343C163.311 127.813 166.351 131.993 166.161 134.653C165.971 136.553 162.551 136.933 162.361 138.833C161.221 145.293 153.811 171.323 131.391 165.243" stroke="#2D2453" stroke-width="0.5" stroke-miterlimit="10" stroke-linecap="round" stroke-linejoin="round"></path><path d="M164.447 111.852C161.407 111.852 158.367 112.422 155.707 113.752C154.377 114.512 153.047 115.272 152.287 116.602C151.717 117.552 151.717 118.882 152.667 119.642C153.617 120.212 154.757 119.832 155.517 119.262C156.847 118.502 157.987 117.362 159.317 116.602C161.027 115.652 162.927 115.462 164.827 114.892C165.017 114.892 165.207 114.702 165.397 114.702C165.587 114.512 165.587 114.322 165.587 114.132C165.587 113.182 165.207 112.232 164.447 111.852Z" fill="#2D2453"></path><path d="M164.447 111.852C161.407 111.852 158.367 112.422 155.707 113.752C154.377 114.512 153.047 115.272 152.287 116.602C151.717 117.552 151.717 118.882 152.667 119.642C153.617 120.212 154.757 119.832 155.517 119.262C156.847 118.502 157.987 117.362 159.317 116.602C161.027 115.652 162.927 115.462 164.827 114.892C165.017 114.892 165.207 114.702 165.397 114.702C165.587 114.512 165.587 114.322 165.587 114.132C165.587 113.182 165.207 112.232 164.447 111.852Z" stroke="#2D2453" stroke-miterlimit="10"></path><path d="M156.469 130.094C156.849 128.574 157.609 127.244 158.939 126.484C160.269 125.724 161.979 125.724 163.309 126.484" stroke="#2D2453" stroke-width="0.5" stroke-miterlimit="10" stroke-linecap="round" stroke-linejoin="round"></path><path d="M150.391 153.461C151.151 155.361 151.721 156.691 153.051 158.211" stroke="#2D2453" stroke-width="0.5" stroke-miterlimit="10" stroke-linecap="round" stroke-linejoin="round"></path><path d="M138.608 166.758C137.278 172.648 140.508 181.198 142.598 187.088" stroke="#2D2453" stroke-width="0.5" stroke-miterlimit="10" stroke-linecap="round" stroke-linejoin="round"></path><path d="M90.3477 141.867C93.9577 148.897 97.1877 156.307 98.3277 164.097C99.4677 171.887 98.5177 180.247 94.5277 187.087" stroke="#2D2453" stroke-width="0.5" stroke-miterlimit="10" stroke-linecap="round" stroke-linejoin="round"></path><path d="M2.57023 162.391C-1.79977 125.151 8.27023 86.391 30.5002 56.371C36.0102 48.771 43.2302 41.361 52.5402 40.221C62.4202 39.081 72.8702 47.251 73.2502 57.131C73.8202 67.201 63.3702 76.321 53.6802 74.231C45.5102 72.331 40.0002 63.781 39.6202 55.421C39.2402 47.061 43.2302 39.081 48.3602 32.431C58.2402 19.701 72.4902 10.771 87.8802 5.83105C103.27 1.08105 119.61 0.131046 135.76 1.08105C157.99 2.60105 180.98 8.49105 196.75 24.261" stroke="#FFC700" stroke-miterlimit="10" stroke-linecap="round" stroke-linejoin="round"></path><path d="M413.918 192.984C415.058 195.454 416.388 197.924 417.148 200.584C417.908 203.244 418.288 206.094 417.338 208.754C416.388 211.414 413.918 213.504 411.068 213.504C408.218 213.504 405.558 210.844 406.128 208.184C406.318 207.234 406.888 206.284 407.458 205.524C409.548 203.244 413.158 202.674 416.198 203.814C419.238 204.764 421.518 207.234 423.038 209.894C426.078 215.214 426.458 221.864 424.938 227.944C423.418 234.024 420.188 239.344 416.578 244.474" stroke="#FFC700" stroke-miterlimit="10" stroke-linecap="round" stroke-linejoin="round"></path><path d="M94.529 158.588C88.829 155.168 84.649 134.458 76.479 137.498C79.519 142.438 83.509 147.378 85.409 153.078C87.309 158.968 86.549 165.998 81.799 169.988C78.379 172.838 73.819 173.408 69.639 173.788C73.249 175.878 76.859 177.018 79.899 179.108C83.129 181.008 85.979 183.858 87.119 187.468C88.259 190.698 87.879 194.308 86.929 197.538C85.029 203.808 80.089 209.318 74.009 211.978C79.709 212.928 85.979 214.638 88.449 219.578C89.209 220.908 89.589 222.618 89.779 224.138C90.159 228.318 89.209 232.688 86.739 236.108C84.269 239.528 80.089 241.808 75.909 241.808C81.039 241.998 83.889 248.838 82.179 253.778C80.089 259.668 73.059 263.658 66.979 262.138C69.639 259.858 72.299 257.198 73.629 253.968C74.959 250.738 74.579 246.368 71.539 244.278C68.309 241.998 64.129 243.328 60.329 242.378C54.629 240.858 51.589 234.398 52.349 228.508C53.109 222.808 56.909 217.868 61.089 213.688C50.449 214.638 39.999 205.898 39.049 195.448C38.099 184.808 46.839 174.358 57.289 173.408C50.259 172.458 43.039 169.038 39.239 162.958C34.679 155.738 36.009 145.668 40.949 138.828C45.889 131.798 54.059 127.618 62.419 125.718L61.849 126.288C61.849 105.958 75.149 84.1084 94.909 73.6584C105.359 68.1484 119.039 67.1984 131.769 69.2884C164.259 74.6084 153.809 88.2884 159.509 89.2384C171.289 91.1384 170.339 101.778 167.299 105.198C162.549 110.328 150.199 98.7384 144.119 111.088C143.169 112.988 143.169 115.078 142.979 116.978C142.599 119.068 141.459 121.158 139.559 121.348C138.039 121.538 136.519 120.588 135.189 119.638C131.199 117.168 125.879 116.218 121.509 118.308C109.159 124.388 114.479 133.888 115.999 135.788C116.759 136.738 117.709 137.308 118.849 137.878L122.079 139.778C122.649 140.158 123.219 140.538 123.789 140.918C125.309 142.628 124.739 145.288 124.169 147.568C124.549 147.948 112.769 169.798 94.529 158.588Z" fill="#2D2453"></path><path d="M88.0674 186.898C89.7774 191.458 90.7274 196.968 88.6374 202.478C87.6874 204.758 86.1674 206.848 83.6974 208.748C80.8474 211.028 77.4274 212.928 73.8174 214.068C78.3774 216.158 81.2274 221.478 80.4674 226.798C79.7074 231.738 75.7174 236.298 70.5874 237.818C75.1474 240.858 78.1874 244.658 79.1374 248.838C80.2774 253.588 77.9974 259.668 72.8674 261.758C73.2474 264.038 74.9574 266.128 77.0474 267.268C79.3274 268.408 81.9874 268.408 84.4574 267.268C84.6474 267.268 84.8374 267.268 84.8374 267.268C85.0274 267.268 85.0274 267.458 85.0274 267.648C85.2174 270.308 82.3674 272.018 79.7074 272.588C77.9974 272.968 76.0974 273.158 74.3874 273.158C72.4874 273.158 70.3974 272.968 68.4974 272.398C65.2674 271.638 63.1774 270.308 62.2274 268.218C61.6574 266.888 61.8474 264.988 62.7974 263.658C63.1774 263.088 63.5574 262.708 64.1274 262.518C62.6074 261.758 60.8974 261.188 59.1874 260.618C55.5774 259.288 51.9674 257.958 49.1174 255.298C45.8874 252.258 44.7474 247.508 46.0774 243.708C47.2174 240.668 49.8774 238.388 52.9174 237.628C46.8374 235.728 41.8974 231.358 39.6174 226.038C37.3374 220.528 38.4774 214.638 43.2274 207.798H43.0374L43.9874 207.038C44.1774 207.228 44.5574 207.608 44.3674 207.798C39.4274 214.638 38.0974 220.338 40.3774 225.658C42.8474 231.548 48.9274 236.108 56.1474 237.438C56.3374 237.438 56.5274 237.818 56.5274 238.008C56.5274 238.198 56.3374 238.388 55.9574 238.388C52.1574 237.818 48.1674 240.288 46.8374 244.088C45.6974 247.508 46.8374 251.878 49.6874 254.728C52.3474 257.388 55.7674 258.528 59.3774 259.858C61.4674 260.618 63.7474 261.378 65.6474 262.518C65.8374 262.708 66.0274 262.898 65.8374 263.088C65.8374 263.278 65.6474 263.468 65.2674 263.468C64.3174 263.278 63.5574 264.038 63.3674 264.418C62.6074 265.558 62.4174 266.888 62.9874 268.028C63.7474 269.738 65.6474 271.068 68.6874 271.638C72.2974 272.398 75.9074 272.588 79.5174 271.828C81.6074 271.448 83.5074 270.308 84.0774 268.598C81.6074 269.548 78.9474 269.358 76.6674 268.218C74.1974 266.888 72.2974 264.418 71.9174 261.568C71.9174 261.378 72.1074 261.188 72.2974 260.998C77.0474 259.288 79.3274 253.398 78.3774 249.028C77.4274 244.848 74.1974 241.048 69.2574 238.008C69.0674 237.818 69.0674 237.628 69.0674 237.438C69.0674 237.248 69.2574 237.058 69.4474 237.058C74.5774 235.918 78.9474 231.548 79.7074 226.608C80.4674 221.478 77.0474 215.778 72.2974 214.448C72.1074 214.448 71.9174 214.258 71.9174 214.068C71.9174 213.878 72.1074 213.688 72.2974 213.688C76.2874 212.738 80.2774 210.648 83.3174 208.178C85.5974 206.278 87.1174 204.378 87.8774 202.288C89.9674 196.968 88.8274 191.648 87.3074 187.278L88.0674 186.898Z" fill="white"></path><path d="M61.6605 263.853C61.2805 263.473 61.0905 261.573 61.6605 261.193C64.1305 259.293 72.1105 258.723 74.2005 261.193C74.5805 261.763 74.5805 263.283 74.2005 263.853C72.1105 266.133 63.9405 266.133 61.6605 263.853Z" fill="#FFC700"></path><path d="M151.907 94.1841C151.717 94.1841 151.717 94.1841 151.717 94.1841C151.527 93.9941 151.527 93.8041 151.527 93.6141C154.187 90.0041 157.037 89.0541 160.837 87.9141C161.027 87.9141 161.407 87.9141 161.407 88.2941C161.407 88.4841 161.407 88.8641 161.027 88.8641C156.657 90.0041 154.377 91.1441 152.287 94.1841C152.097 94.1841 152.097 94.1841 151.907 94.1841Z" fill="white"></path><path d="M254.317 186.898C262.487 187.468 271.037 188.418 275.597 188.798C275.787 188.798 275.977 188.988 275.977 189.368C275.977 189.558 275.787 189.748 275.597 189.748C270.277 189.178 260.397 188.228 251.277 187.658C251.277 187.658 252.037 187.468 252.797 187.278C253.557 187.088 254.317 186.898 254.317 186.898Z" fill="white"></path><path d="M190.859 341.942L56.7188 341.752C73.2488 340.232 134.429 335.672 148.109 325.602C162.359 314.962 170.529 233.832 171.669 234.212C175.469 236.112 180.599 240.292 180.409 241.432C180.029 242.762 190.859 341.942 190.859 341.942Z" fill="#181133"></path><path d="M180.407 241.238C176.227 237.248 170.527 232.878 162.357 232.118H162.167C158.937 231.738 155.707 231.358 153.047 232.878C152.857 233.068 152.477 232.878 152.477 232.688C152.287 232.498 152.477 232.118 152.667 232.118C155.707 230.408 159.127 230.788 162.357 231.168H162.547C170.717 232.118 176.607 236.488 180.977 240.478L180.407 241.238Z" fill="white"></path><path d="M337.92 121.539L353.12 135.219C353.31 135.409 353.31 135.789 353.12 135.979C352.93 136.169 352.93 136.169 352.74 136.169C352.55 136.169 352.55 136.169 352.36 135.979L337.16 122.299L337.92 121.539Z" fill="white"></path></svg>