<svg xmlns="http://www.w3.org/2000/svg" width="39" height="52" viewBox="0 0 39 52" fill="none"><path d="M35.0144 30.841C34.0269 29.8463 33.0267 28.8733 32.0308 27.8919V26.9315H38.9761C38.9761 24.5475 38.9761 20.2304 38.9761 16.9926L32.0049 10.1172V20.0392H22.2835C23.1458 20.9741 23.5769 21.4627 24.0339 21.93C25.9177 23.8593 27.9787 25.6395 29.6684 27.7174C35.398 34.763 31.9018 43.6139 22.8611 44.8207C19.6538 45.2458 16.3685 45.0462 13.1006 45.1268H10.2812L13.7303 48.5264L13.7949 48.607L17.0067 51.7686C17.1532 51.7895 17.317 51.8108 17.4939 51.8237C20.1395 52.0083 22.7937 52.0453 25.4436 51.9343C29.8709 51.6454 33.8631 50.3195 36.7173 46.7458C40.317 42.2375 39.5927 35.4641 35.0144 30.841Z" fill="white"></path><path d="M14.9695 30.0671C13.0811 28.1382 11.0201 26.3576 9.32999 24.2797C3.60045 17.2349 7.09667 8.38398 16.1423 7.17726C19.35 6.75235 22.6352 6.95194 25.8989 6.87122H28.7186L25.2695 3.47192L25.2047 3.39123L21.9928 0.229915C21.8417 0.204438 21.6825 0.187478 21.5014 0.17474C18.8557 -0.0122525 16.2012 -0.0492469 13.5509 0.0641421C9.12754 0.353077 5.13529 1.67881 2.27655 5.25229C-1.31895 9.76056 -0.590345 16.5337 4.00109 21.1569C4.98426 22.1512 5.98445 23.1242 6.98038 24.1056V25.066H0.00884492C0.00884492 27.4496 0.00884492 31.7667 0.00884492 35.0044L6.98463 41.8796V31.958H16.694C15.8317 31.023 15.4006 30.5344 14.9695 30.0671Z" fill="white"></path></svg>